%TF.GenerationSoftware,KiCad,Pcbnew,(6.0.4)*%
%TF.CreationDate,2022-03-29T09:37:11-06:00*%
%TF.ProjectId,luces_status,6c756365-735f-4737-9461-7475732e6b69,rev?*%
%TF.SameCoordinates,Original*%
%TF.FileFunction,Copper,L1,Top*%
%TF.FilePolarity,Positive*%
%FSLAX46Y46*%
G04 Gerber Fmt 4.6, Leading zero omitted, Abs format (unit mm)*
G04 Created by KiCad (PCBNEW (6.0.4)) date 2022-03-29 09:37:11*
%MOMM*%
%LPD*%
G01*
G04 APERTURE LIST*
G04 Aperture macros list*
%AMRoundRect*
0 Rectangle with rounded corners*
0 $1 Rounding radius*
0 $2 $3 $4 $5 $6 $7 $8 $9 X,Y pos of 4 corners*
0 Add a 4 corners polygon primitive as box body*
4,1,4,$2,$3,$4,$5,$6,$7,$8,$9,$2,$3,0*
0 Add four circle primitives for the rounded corners*
1,1,$1+$1,$2,$3*
1,1,$1+$1,$4,$5*
1,1,$1+$1,$6,$7*
1,1,$1+$1,$8,$9*
0 Add four rect primitives between the rounded corners*
20,1,$1+$1,$2,$3,$4,$5,0*
20,1,$1+$1,$4,$5,$6,$7,0*
20,1,$1+$1,$6,$7,$8,$9,0*
20,1,$1+$1,$8,$9,$2,$3,0*%
%AMFreePoly0*
4,1,21,1.545000,0.775000,0.925000,0.775000,0.925000,0.525000,1.545000,0.525000,1.545000,0.125000,0.925000,0.125000,0.925000,-0.125000,1.545000,-0.125000,1.545000,-0.525000,0.925000,-0.525000,0.925000,-0.775000,1.545000,-0.775000,1.545000,-1.175000,0.925000,-1.175000,0.925000,-1.125000,-0.925000,-1.125000,-0.925000,1.125000,0.925000,1.125000,0.925000,1.175000,1.545000,1.175000,
1.545000,0.775000,1.545000,0.775000,$1*%
G04 Aperture macros list end*
%TA.AperFunction,SMDPad,CuDef*%
%ADD10RoundRect,0.200000X-0.200000X-0.275000X0.200000X-0.275000X0.200000X0.275000X-0.200000X0.275000X0*%
%TD*%
%TA.AperFunction,ComponentPad*%
%ADD11R,2.500000X2.500000*%
%TD*%
%TA.AperFunction,ComponentPad*%
%ADD12O,2.500000X2.500000*%
%TD*%
%TA.AperFunction,SMDPad,CuDef*%
%ADD13R,1.200000X1.200000*%
%TD*%
%TA.AperFunction,ComponentPad*%
%ADD14R,2.600000X2.600000*%
%TD*%
%TA.AperFunction,ComponentPad*%
%ADD15C,2.600000*%
%TD*%
%TA.AperFunction,ComponentPad*%
%ADD16R,1.700000X1.700000*%
%TD*%
%TA.AperFunction,ComponentPad*%
%ADD17O,1.700000X1.700000*%
%TD*%
%TA.AperFunction,SMDPad,CuDef*%
%ADD18R,0.830000X0.400000*%
%TD*%
%TA.AperFunction,SMDPad,CuDef*%
%ADD19FreePoly0,180.000000*%
%TD*%
%TA.AperFunction,SMDPad,CuDef*%
%ADD20RoundRect,0.200000X0.200000X0.275000X-0.200000X0.275000X-0.200000X-0.275000X0.200000X-0.275000X0*%
%TD*%
%TA.AperFunction,ComponentPad*%
%ADD21R,1.000000X1.000000*%
%TD*%
%TA.AperFunction,ComponentPad*%
%ADD22O,1.000000X1.000000*%
%TD*%
%TA.AperFunction,ViaPad*%
%ADD23C,0.800000*%
%TD*%
%TA.AperFunction,Conductor*%
%ADD24C,0.250000*%
%TD*%
%TA.AperFunction,Conductor*%
%ADD25C,0.800000*%
%TD*%
G04 APERTURE END LIST*
D10*
%TO.P,R4,1*%
%TO.N,ctrl_naranja*%
X194755000Y-48260000D03*
%TO.P,R4,2*%
%TO.N,GND*%
X196405000Y-48260000D03*
%TD*%
%TO.P,R5,1*%
%TO.N,ctrl_verde*%
X194755000Y-69828957D03*
%TO.P,R5,2*%
%TO.N,Net-(Q3-Pad4)*%
X196405000Y-69828957D03*
%TD*%
D11*
%TO.P,K1,1*%
%TO.N,+12V*%
X189985000Y-32370244D03*
D12*
%TO.P,K1,2*%
X187985000Y-26370244D03*
%TO.P,K1,3*%
%TO.N,led_rojo*%
X175785000Y-26370244D03*
%TO.P,K1,4*%
%TO.N,unconnected-(K1-Pad4)*%
X175785000Y-38370244D03*
%TO.P,K1,5*%
%TO.N,Net-(D1-Pad1)*%
X187985000Y-38370244D03*
%TD*%
D11*
%TO.P,K3,1*%
%TO.N,+12V*%
X190009215Y-68781388D03*
D12*
%TO.P,K3,2*%
X188009215Y-62781388D03*
%TO.P,K3,3*%
%TO.N,led_verde*%
X175809215Y-62781388D03*
%TO.P,K3,4*%
%TO.N,unconnected-(K3-Pad4)*%
X175809215Y-74781388D03*
%TO.P,K3,5*%
%TO.N,Net-(D5-Pad1)*%
X188009215Y-74781388D03*
%TD*%
D13*
%TO.P,D3,1,K*%
%TO.N,Net-(D3-Pad1)*%
X195580000Y-54480000D03*
%TO.P,D3,2,A*%
%TO.N,+12V*%
X195580000Y-57280000D03*
%TD*%
D14*
%TO.P,J3,1,Pin_1*%
%TO.N,led_rojo*%
X163030000Y-44835000D03*
D15*
%TO.P,J3,2,Pin_2*%
%TO.N,led_naranja*%
X163030000Y-49915000D03*
%TO.P,J3,3,Pin_3*%
%TO.N,led_verde*%
X163030000Y-54995000D03*
%TO.P,J3,4,Pin_4*%
%TO.N,GND*%
X163030000Y-60075000D03*
%TD*%
D10*
%TO.P,R2,1*%
%TO.N,ctrl_rojo*%
X194755000Y-31448827D03*
%TO.P,R2,2*%
%TO.N,GND*%
X196405000Y-31448827D03*
%TD*%
D16*
%TO.P,J2,1,Pin_1*%
%TO.N,ctrl_rojo*%
X165100000Y-66040000D03*
D17*
%TO.P,J2,2,Pin_2*%
%TO.N,GND*%
X167640000Y-66040000D03*
%TO.P,J2,3,Pin_3*%
%TO.N,ctrl_naranja*%
X165100000Y-68580000D03*
%TO.P,J2,4,Pin_4*%
%TO.N,unconnected-(J2-Pad4)*%
X167640000Y-68580000D03*
%TO.P,J2,5,Pin_5*%
%TO.N,ctrl_verde*%
X165100000Y-71120000D03*
%TO.P,J2,6,Pin_6*%
%TO.N,+12V*%
X167640000Y-71120000D03*
%TD*%
D18*
%TO.P,Q1,1,S*%
%TO.N,GND*%
X197115000Y-28265244D03*
%TO.P,Q1,2,S*%
X197115000Y-27615244D03*
%TO.P,Q1,3,S*%
X197115000Y-26965244D03*
%TO.P,Q1,4,G*%
%TO.N,Net-(Q1-Pad4)*%
X197115000Y-26315244D03*
D19*
%TO.P,Q1,5,D*%
%TO.N,Net-(D1-Pad1)*%
X195175000Y-27290244D03*
%TD*%
D10*
%TO.P,R1,1*%
%TO.N,ctrl_rojo*%
X194755000Y-34342659D03*
%TO.P,R1,2*%
%TO.N,Net-(Q1-Pad4)*%
X196405000Y-34342659D03*
%TD*%
D13*
%TO.P,D5,1,K*%
%TO.N,Net-(D5-Pad1)*%
X195580000Y-74908957D03*
%TO.P,D5,2,A*%
%TO.N,+12V*%
X195580000Y-72108957D03*
%TD*%
D18*
%TO.P,Q2,1,S*%
%TO.N,GND*%
X197115000Y-44155000D03*
%TO.P,Q2,2,S*%
X197115000Y-43505000D03*
%TO.P,Q2,3,S*%
X197115000Y-42855000D03*
%TO.P,Q2,4,G*%
%TO.N,Net-(Q2-Pad4)*%
X197115000Y-42205000D03*
D19*
%TO.P,Q2,5,D*%
%TO.N,Net-(D3-Pad1)*%
X195175000Y-43180000D03*
%TD*%
D18*
%TO.P,Q3,1,S*%
%TO.N,GND*%
X197115000Y-63183957D03*
%TO.P,Q3,2,S*%
X197115000Y-62533957D03*
%TO.P,Q3,3,S*%
X197115000Y-61883957D03*
%TO.P,Q3,4,G*%
%TO.N,Net-(Q3-Pad4)*%
X197115000Y-61233957D03*
D19*
%TO.P,Q3,5,D*%
%TO.N,Net-(D5-Pad1)*%
X195175000Y-62208957D03*
%TD*%
D20*
%TO.P,R6,1*%
%TO.N,GND*%
X196405000Y-67288957D03*
%TO.P,R6,2*%
%TO.N,ctrl_verde*%
X194755000Y-67288957D03*
%TD*%
D13*
%TO.P,D1,1,K*%
%TO.N,Net-(D1-Pad1)*%
X194180000Y-37450244D03*
%TO.P,D1,2,A*%
%TO.N,+12V*%
X196980000Y-37450244D03*
%TD*%
D21*
%TO.P,J1,1,Pin_1*%
%TO.N,ctrl_rojo*%
X164475000Y-32385000D03*
D22*
%TO.P,J1,2,Pin_2*%
%TO.N,GND*%
X165745000Y-32385000D03*
%TO.P,J1,3,Pin_3*%
%TO.N,ctrl_naranja*%
X164475000Y-33655000D03*
%TO.P,J1,4,Pin_4*%
%TO.N,unconnected-(J1-Pad4)*%
X165745000Y-33655000D03*
%TO.P,J1,5,Pin_5*%
%TO.N,ctrl_verde*%
X164475000Y-34925000D03*
%TO.P,J1,6,Pin_6*%
%TO.N,+12V*%
X165745000Y-34925000D03*
%TD*%
D11*
%TO.P,K2,1*%
%TO.N,+12V*%
X189985000Y-50295000D03*
D12*
%TO.P,K2,2*%
X187985000Y-44295000D03*
%TO.P,K2,3*%
%TO.N,led_naranja*%
X175785000Y-44295000D03*
%TO.P,K2,4*%
%TO.N,unconnected-(K2-Pad4)*%
X175785000Y-56295000D03*
%TO.P,K2,5*%
%TO.N,Net-(D3-Pad1)*%
X187985000Y-56295000D03*
%TD*%
D10*
%TO.P,R3,1*%
%TO.N,ctrl_naranja*%
X194755000Y-50800000D03*
%TO.P,R3,2*%
%TO.N,Net-(Q2-Pad4)*%
X196405000Y-50800000D03*
%TD*%
D23*
%TO.N,Net-(D1-Pad1)*%
X194180000Y-37450244D03*
%TO.N,Net-(D3-Pad1)*%
X193117464Y-53262536D03*
%TO.N,Net-(D5-Pad1)*%
X193040000Y-74908957D03*
X192489321Y-70833206D03*
%TO.N,+12V*%
X195580000Y-72390000D03*
%TO.N,GND*%
X198120000Y-45720000D03*
X197130011Y-32370244D03*
X198579011Y-64748957D03*
X197115000Y-46725000D03*
X193040000Y-64748957D03*
%TO.N,ctrl_rojo*%
X194755000Y-34342659D03*
X167640000Y-36830000D03*
X165100000Y-39370000D03*
%TO.N,ctrl_naranja*%
X190500000Y-48260000D03*
%TO.N,ctrl_verde*%
X162560000Y-40640000D03*
X160020000Y-40640000D03*
%TO.N,led_rojo*%
X170180000Y-34910244D03*
%TO.N,Net-(Q2-Pad4)*%
X198120000Y-48260000D03*
X197854511Y-50800000D03*
%TD*%
D24*
%TO.N,Net-(D1-Pad1)*%
X195479520Y-36150724D02*
X194180000Y-37450244D01*
X195175000Y-27290244D02*
X195479520Y-27594764D01*
X195479520Y-27594764D02*
X195479520Y-36150724D01*
%TO.N,Net-(D3-Pad1)*%
X193117464Y-53262536D02*
X194334928Y-54480000D01*
X195175000Y-43180000D02*
X195580000Y-43585000D01*
X194334928Y-54480000D02*
X195580000Y-54480000D01*
X195580000Y-43585000D02*
X195580000Y-54480000D01*
%TO.N,Net-(D5-Pad1)*%
X192262536Y-70606421D02*
X192489321Y-70833206D01*
X194555386Y-62208957D02*
X192262536Y-64501807D01*
X195175000Y-62208957D02*
X194555386Y-62208957D01*
X192262536Y-64501807D02*
X192262536Y-70606421D01*
X195580000Y-74908957D02*
X193040000Y-74908957D01*
D25*
%TO.N,+12V*%
X195580000Y-57280000D02*
X192261646Y-57280000D01*
X183875244Y-30480000D02*
X187985000Y-26370244D01*
X192880489Y-38749755D02*
X195680489Y-38749755D01*
X187985000Y-26370244D02*
X187985000Y-30370244D01*
X183875244Y-30480000D02*
X173055300Y-30480000D01*
X192261646Y-58528957D02*
X188009215Y-62781388D01*
X189985000Y-51685000D02*
X195580000Y-57280000D01*
X192340000Y-39940000D02*
X187985000Y-44295000D01*
X195680489Y-38749755D02*
X196980000Y-37450244D01*
X192261646Y-57280000D02*
X192261646Y-58528957D01*
X168610300Y-34925000D02*
X165745000Y-34925000D01*
X189985000Y-32370244D02*
X189985000Y-36935244D01*
X187985000Y-44295000D02*
X187985000Y-48295000D01*
X188009215Y-66781388D02*
X190009215Y-68781388D01*
X189985000Y-36935244D02*
X192340000Y-39290244D01*
X169978612Y-68781388D02*
X190009215Y-68781388D01*
X192340000Y-39290244D02*
X192880489Y-38749755D01*
X187985000Y-30370244D02*
X189985000Y-32370244D01*
X192340000Y-39290244D02*
X192340000Y-39940000D01*
X187985000Y-48295000D02*
X189985000Y-50295000D01*
X173055300Y-30480000D02*
X168610300Y-34925000D01*
X188009215Y-62781388D02*
X188009215Y-66781388D01*
X189985000Y-50295000D02*
X189985000Y-51685000D01*
X167640000Y-71120000D02*
X169978612Y-68781388D01*
D24*
%TO.N,GND*%
X197115000Y-63183957D02*
X196900000Y-63183957D01*
X195335000Y-64748957D02*
X193865000Y-64748957D01*
X196405000Y-48260000D02*
X198579011Y-50434011D01*
X163650489Y-31560489D02*
X161405489Y-33805489D01*
X196405000Y-48260000D02*
X197115000Y-47550000D01*
X198120000Y-45720000D02*
X197115000Y-46725000D01*
X198579011Y-50434011D02*
X198579011Y-64748957D01*
X197115000Y-42855000D02*
X197115000Y-44155000D01*
X197115000Y-47550000D02*
X197115000Y-46725000D01*
X197115000Y-46725000D02*
X197115000Y-44155000D01*
X163030000Y-60075000D02*
X167640000Y-64685000D01*
X193865000Y-64748957D02*
X196405000Y-67288957D01*
X197115000Y-30738827D02*
X196405000Y-31448827D01*
X196405000Y-31645233D02*
X197130011Y-32370244D01*
X197115000Y-26965244D02*
X197115000Y-28265244D01*
X167640000Y-64685000D02*
X167640000Y-66040000D01*
X196405000Y-31448827D02*
X196405000Y-31645233D01*
X161405489Y-33805489D02*
X161405489Y-58450489D01*
X193040000Y-64748957D02*
X193865000Y-64748957D01*
X165745000Y-32005978D02*
X165299511Y-31560489D01*
X165299511Y-31560489D02*
X163650489Y-31560489D01*
X197115000Y-28265244D02*
X197115000Y-30738827D01*
X196900000Y-63183957D02*
X195335000Y-64748957D01*
X161405489Y-58450489D02*
X163030000Y-60075000D01*
X165745000Y-32385000D02*
X165745000Y-32005978D01*
X197115000Y-63183957D02*
X197115000Y-61883957D01*
%TO.N,ctrl_rojo*%
X167640000Y-36830000D02*
X165100000Y-39370000D01*
X194755000Y-34342659D02*
X194755000Y-31448827D01*
%TO.N,ctrl_naranja*%
X194755000Y-48260000D02*
X190500000Y-48260000D01*
X194755000Y-48260000D02*
X194755000Y-50800000D01*
%TO.N,ctrl_verde*%
X165100000Y-71120000D02*
X165100000Y-72368957D01*
X165100000Y-71120000D02*
X160955969Y-66975969D01*
X194755000Y-70653957D02*
X194755000Y-69828957D01*
X164475000Y-38725000D02*
X164475000Y-34925000D01*
X194755000Y-67288957D02*
X194755000Y-69828957D01*
X162560000Y-40640000D02*
X164475000Y-38725000D01*
X160955969Y-66975969D02*
X160955969Y-41575969D01*
X169086942Y-76355899D02*
X189053058Y-76355899D01*
X165100000Y-72368957D02*
X169086942Y-76355899D01*
X189053058Y-76355899D02*
X194755000Y-70653957D01*
X160955969Y-41575969D02*
X160020000Y-40640000D01*
%TO.N,led_rojo*%
X170180000Y-35560000D02*
X170180000Y-34910244D01*
X163030000Y-42710000D02*
X163030000Y-44835000D01*
X163030000Y-42710000D02*
X170180000Y-35560000D01*
%TO.N,led_naranja*%
X168650000Y-44295000D02*
X175785000Y-44295000D01*
X163030000Y-49915000D02*
X168650000Y-44295000D01*
%TO.N,led_verde*%
X163030000Y-54995000D02*
X168022827Y-54995000D01*
X168022827Y-54995000D02*
X175809215Y-62781388D01*
%TO.N,Net-(Q1-Pad4)*%
X197854511Y-26389755D02*
X197780000Y-26315244D01*
X196405000Y-34342659D02*
X197854511Y-32893148D01*
X197854511Y-32893148D02*
X197854511Y-26389755D01*
X197780000Y-26315244D02*
X197115000Y-26315244D01*
%TO.N,Net-(Q2-Pad4)*%
X199272627Y-43635460D02*
X199272627Y-47107373D01*
X197780000Y-42205000D02*
X199210460Y-43635460D01*
X199210460Y-43635460D02*
X199272627Y-43635460D01*
X197854511Y-50800000D02*
X196405000Y-50800000D01*
X197115000Y-42205000D02*
X197780000Y-42205000D01*
X199272627Y-47107373D02*
X198120000Y-48260000D01*
%TO.N,Net-(Q3-Pad4)*%
X197854511Y-68379446D02*
X197854511Y-61308468D01*
X197854511Y-61308468D02*
X197780000Y-61233957D01*
X196405000Y-69828957D02*
X197854511Y-68379446D01*
X197780000Y-61233957D02*
X197115000Y-61233957D01*
%TD*%
%TA.AperFunction,Conductor*%
%TO.N,GND*%
G36*
X201900018Y-23370000D02*
G01*
X201914851Y-23372310D01*
X201914855Y-23372310D01*
X201923724Y-23373691D01*
X201932626Y-23372527D01*
X201932628Y-23372527D01*
X201936936Y-23371963D01*
X201941720Y-23371338D01*
X201965117Y-23370472D01*
X202221492Y-23384869D01*
X202235524Y-23386450D01*
X202375953Y-23410311D01*
X202516376Y-23434170D01*
X202530151Y-23437314D01*
X202803891Y-23516177D01*
X202817228Y-23520844D01*
X203080418Y-23629861D01*
X203093148Y-23635992D01*
X203342468Y-23773786D01*
X203354432Y-23781303D01*
X203586762Y-23946149D01*
X203597810Y-23954959D01*
X203810224Y-24144785D01*
X203820215Y-24154776D01*
X203908939Y-24254057D01*
X204010041Y-24367190D01*
X204018850Y-24378236D01*
X204051019Y-24423575D01*
X204183697Y-24610568D01*
X204191214Y-24622532D01*
X204329008Y-24871852D01*
X204335139Y-24884582D01*
X204444156Y-25147772D01*
X204448823Y-25161109D01*
X204527686Y-25434849D01*
X204530830Y-25448624D01*
X204541688Y-25512526D01*
X204572717Y-25695145D01*
X204578549Y-25729471D01*
X204580131Y-25743513D01*
X204594118Y-25992593D01*
X204592817Y-26019036D01*
X204592690Y-26019849D01*
X204592690Y-26019855D01*
X204591309Y-26028724D01*
X204592473Y-26037626D01*
X204592473Y-26037628D01*
X204593618Y-26046380D01*
X204595333Y-26059492D01*
X204595436Y-26060283D01*
X204596500Y-26076621D01*
X204596500Y-75515633D01*
X204595000Y-75535018D01*
X204592690Y-75549851D01*
X204592690Y-75549855D01*
X204591309Y-75558724D01*
X204593136Y-75572692D01*
X204593662Y-75576716D01*
X204594528Y-75600117D01*
X204584476Y-75779123D01*
X204580131Y-75856488D01*
X204578550Y-75870524D01*
X204569042Y-75926482D01*
X204530830Y-76151376D01*
X204527686Y-76165151D01*
X204448823Y-76438891D01*
X204444156Y-76452228D01*
X204335139Y-76715418D01*
X204329008Y-76728148D01*
X204191214Y-76977468D01*
X204183697Y-76989432D01*
X204018851Y-77221762D01*
X204010042Y-77232808D01*
X203894772Y-77361795D01*
X203820215Y-77445224D01*
X203810224Y-77455215D01*
X203597810Y-77645041D01*
X203586762Y-77653851D01*
X203354432Y-77818697D01*
X203342468Y-77826214D01*
X203093148Y-77964008D01*
X203080418Y-77970139D01*
X202817228Y-78079156D01*
X202803891Y-78083823D01*
X202530151Y-78162686D01*
X202516376Y-78165830D01*
X202375953Y-78189689D01*
X202235524Y-78213550D01*
X202221490Y-78215131D01*
X202152407Y-78219010D01*
X201972407Y-78229118D01*
X201945964Y-78227817D01*
X201945151Y-78227690D01*
X201945145Y-78227690D01*
X201936276Y-78226309D01*
X201927374Y-78227473D01*
X201927372Y-78227473D01*
X201912323Y-78229441D01*
X201904714Y-78230436D01*
X201888379Y-78231500D01*
X159434367Y-78231500D01*
X159414982Y-78230000D01*
X159400149Y-78227690D01*
X159400145Y-78227690D01*
X159391276Y-78226309D01*
X159382374Y-78227473D01*
X159382372Y-78227473D01*
X159378064Y-78228037D01*
X159373280Y-78228662D01*
X159349883Y-78229528D01*
X159093508Y-78215131D01*
X159079476Y-78213550D01*
X158939048Y-78189690D01*
X158798624Y-78165830D01*
X158784849Y-78162686D01*
X158511109Y-78083823D01*
X158497772Y-78079156D01*
X158234582Y-77970139D01*
X158221852Y-77964008D01*
X157972532Y-77826214D01*
X157960568Y-77818697D01*
X157728238Y-77653851D01*
X157717190Y-77645041D01*
X157504776Y-77455215D01*
X157494785Y-77445224D01*
X157420228Y-77361795D01*
X157304958Y-77232808D01*
X157296149Y-77221762D01*
X157131303Y-76989432D01*
X157123786Y-76977468D01*
X156985992Y-76728148D01*
X156979861Y-76715418D01*
X156870844Y-76452228D01*
X156866177Y-76438891D01*
X156787314Y-76165151D01*
X156784170Y-76151376D01*
X156745958Y-75926482D01*
X156736450Y-75870524D01*
X156735031Y-75857927D01*
X157570774Y-75857927D01*
X157571355Y-75862947D01*
X157571355Y-75862951D01*
X157573050Y-75877599D01*
X157599600Y-76107058D01*
X157600979Y-76111932D01*
X157600980Y-76111936D01*
X157639918Y-76249540D01*
X157667886Y-76348376D01*
X157670020Y-76352951D01*
X157670022Y-76352958D01*
X157771739Y-76571090D01*
X157773876Y-76575672D01*
X157776718Y-76579853D01*
X157776718Y-76579854D01*
X157911997Y-76778911D01*
X157912000Y-76778915D01*
X157914843Y-76783098D01*
X157918320Y-76786775D01*
X157918321Y-76786776D01*
X158018630Y-76892850D01*
X158087159Y-76965318D01*
X158091185Y-76968396D01*
X158091186Y-76968397D01*
X158282373Y-77114571D01*
X158282377Y-77114574D01*
X158286393Y-77117644D01*
X158507418Y-77236156D01*
X158512199Y-77237802D01*
X158512203Y-77237804D01*
X158702951Y-77303484D01*
X158744548Y-77317807D01*
X158848081Y-77335690D01*
X158987772Y-77359819D01*
X158987778Y-77359820D01*
X158991682Y-77360494D01*
X158995643Y-77360674D01*
X158995644Y-77360674D01*
X159020323Y-77361795D01*
X159020342Y-77361795D01*
X159021742Y-77361859D01*
X159196407Y-77361859D01*
X159198915Y-77361657D01*
X159198920Y-77361657D01*
X159378336Y-77347222D01*
X159378341Y-77347221D01*
X159383377Y-77346816D01*
X159388285Y-77345611D01*
X159388288Y-77345610D01*
X159622017Y-77288200D01*
X159626931Y-77286993D01*
X159631583Y-77285018D01*
X159631587Y-77285017D01*
X159853133Y-77190976D01*
X159853134Y-77190976D01*
X159857788Y-77189000D01*
X160070007Y-77055359D01*
X160258130Y-76889506D01*
X160417316Y-76695710D01*
X160543470Y-76478955D01*
X160633347Y-76244820D01*
X160652869Y-76151376D01*
X160683598Y-76004280D01*
X160684633Y-75999326D01*
X160686439Y-75959572D01*
X160690731Y-75865038D01*
X160696010Y-75748791D01*
X160692957Y-75722399D01*
X160680115Y-75611417D01*
X160667184Y-75499660D01*
X160635809Y-75388781D01*
X160600276Y-75263211D01*
X160600275Y-75263209D01*
X160598898Y-75258342D01*
X160596764Y-75253767D01*
X160596762Y-75253760D01*
X160495045Y-75035628D01*
X160495043Y-75035624D01*
X160492908Y-75031046D01*
X160414398Y-74915522D01*
X160354787Y-74827807D01*
X160354784Y-74827803D01*
X160351941Y-74823620D01*
X160251317Y-74717212D01*
X160183105Y-74645080D01*
X160179625Y-74641400D01*
X160109952Y-74588131D01*
X159984411Y-74492147D01*
X159984407Y-74492144D01*
X159980391Y-74489074D01*
X159963144Y-74479826D01*
X159763827Y-74372954D01*
X159759366Y-74370562D01*
X159754585Y-74368916D01*
X159754581Y-74368914D01*
X159527025Y-74290560D01*
X159522236Y-74288911D01*
X159363293Y-74261457D01*
X159279012Y-74246899D01*
X159279006Y-74246898D01*
X159275102Y-74246224D01*
X159271141Y-74246044D01*
X159271140Y-74246044D01*
X159246461Y-74244923D01*
X159246442Y-74244923D01*
X159245042Y-74244859D01*
X159070377Y-74244859D01*
X159067869Y-74245061D01*
X159067864Y-74245061D01*
X158888448Y-74259496D01*
X158888443Y-74259497D01*
X158883407Y-74259902D01*
X158878499Y-74261107D01*
X158878496Y-74261108D01*
X158646718Y-74318039D01*
X158639853Y-74319725D01*
X158635201Y-74321700D01*
X158635197Y-74321701D01*
X158516670Y-74372013D01*
X158408996Y-74417718D01*
X158317762Y-74475171D01*
X158208962Y-74543686D01*
X158196777Y-74551359D01*
X158008654Y-74717212D01*
X157849468Y-74911008D01*
X157723314Y-75127763D01*
X157633437Y-75361898D01*
X157632404Y-75366844D01*
X157632402Y-75366850D01*
X157595259Y-75544648D01*
X157582151Y-75607392D01*
X157581922Y-75612441D01*
X157581921Y-75612447D01*
X157581275Y-75626672D01*
X157570774Y-75857927D01*
X156735031Y-75857927D01*
X156734869Y-75856488D01*
X156730525Y-75779123D01*
X156721089Y-75611100D01*
X156722411Y-75587208D01*
X156722334Y-75587201D01*
X156722537Y-75584937D01*
X156722637Y-75583131D01*
X156722770Y-75582342D01*
X156723576Y-75577552D01*
X156723729Y-75565000D01*
X156719773Y-75537376D01*
X156718500Y-75519514D01*
X156718500Y-40640000D01*
X159106496Y-40640000D01*
X159126458Y-40829928D01*
X159185473Y-41011556D01*
X159280960Y-41176944D01*
X159285378Y-41181851D01*
X159285379Y-41181852D01*
X159388524Y-41296406D01*
X159408747Y-41318866D01*
X159563248Y-41431118D01*
X159569276Y-41433802D01*
X159569278Y-41433803D01*
X159731681Y-41506109D01*
X159737712Y-41508794D01*
X159819643Y-41526209D01*
X159918056Y-41547128D01*
X159918061Y-41547128D01*
X159924513Y-41548500D01*
X159980405Y-41548500D01*
X160048526Y-41568502D01*
X160069500Y-41585405D01*
X160285564Y-41801469D01*
X160319590Y-41863781D01*
X160322469Y-41890564D01*
X160322469Y-66897202D01*
X160321942Y-66908385D01*
X160320267Y-66915878D01*
X160320516Y-66923804D01*
X160320516Y-66923805D01*
X160322407Y-66983955D01*
X160322469Y-66987914D01*
X160322469Y-67015825D01*
X160322966Y-67019759D01*
X160322966Y-67019760D01*
X160322974Y-67019825D01*
X160323907Y-67031662D01*
X160325296Y-67075858D01*
X160330947Y-67095308D01*
X160334956Y-67114669D01*
X160337495Y-67134766D01*
X160340414Y-67142137D01*
X160340414Y-67142139D01*
X160353773Y-67175881D01*
X160357618Y-67187111D01*
X160366582Y-67217967D01*
X160369951Y-67229562D01*
X160373984Y-67236381D01*
X160373986Y-67236386D01*
X160380262Y-67246997D01*
X160388957Y-67264745D01*
X160396417Y-67283586D01*
X160401079Y-67290002D01*
X160401079Y-67290003D01*
X160422405Y-67319356D01*
X160428921Y-67329276D01*
X160437492Y-67343768D01*
X160451427Y-67367331D01*
X160465748Y-67381652D01*
X160478588Y-67396685D01*
X160490497Y-67413076D01*
X160507541Y-67427176D01*
X160524574Y-67441267D01*
X160533353Y-67449257D01*
X163749777Y-70665682D01*
X163783803Y-70727994D01*
X163782100Y-70788446D01*
X163760989Y-70864570D01*
X163737251Y-71086695D01*
X163737548Y-71091848D01*
X163737548Y-71091851D01*
X163746959Y-71255066D01*
X163750110Y-71309715D01*
X163751247Y-71314761D01*
X163751248Y-71314767D01*
X163762441Y-71364432D01*
X163799222Y-71527639D01*
X163883266Y-71734616D01*
X163932748Y-71815364D01*
X163997291Y-71920688D01*
X163999987Y-71925088D01*
X164146250Y-72093938D01*
X164318126Y-72236632D01*
X164397938Y-72283270D01*
X164404070Y-72286853D01*
X164452794Y-72338491D01*
X164466500Y-72395641D01*
X164466500Y-72408813D01*
X164466997Y-72412747D01*
X164466997Y-72412748D01*
X164467005Y-72412813D01*
X164467938Y-72424650D01*
X164469327Y-72468846D01*
X164473022Y-72481564D01*
X164474978Y-72488296D01*
X164478987Y-72507657D01*
X164481526Y-72527754D01*
X164484445Y-72535125D01*
X164484445Y-72535127D01*
X164497804Y-72568869D01*
X164501649Y-72580099D01*
X164513982Y-72622550D01*
X164518015Y-72629369D01*
X164518017Y-72629374D01*
X164524293Y-72639985D01*
X164532988Y-72657733D01*
X164540448Y-72676574D01*
X164545110Y-72682990D01*
X164545110Y-72682991D01*
X164566436Y-72712344D01*
X164572952Y-72722264D01*
X164595458Y-72760319D01*
X164609779Y-72774640D01*
X164622619Y-72789673D01*
X164634528Y-72806064D01*
X164640634Y-72811115D01*
X164668605Y-72834255D01*
X164677384Y-72842245D01*
X168583285Y-76748146D01*
X168590829Y-76756436D01*
X168594942Y-76762917D01*
X168600719Y-76768342D01*
X168644609Y-76809557D01*
X168647451Y-76812312D01*
X168667172Y-76832033D01*
X168670367Y-76834511D01*
X168679389Y-76842217D01*
X168711621Y-76872485D01*
X168718570Y-76876305D01*
X168729374Y-76882245D01*
X168745898Y-76893098D01*
X168761901Y-76905512D01*
X168802485Y-76923075D01*
X168813115Y-76928282D01*
X168851882Y-76949594D01*
X168859559Y-76951565D01*
X168859564Y-76951567D01*
X168871500Y-76954631D01*
X168890208Y-76961036D01*
X168908797Y-76969080D01*
X168916622Y-76970319D01*
X168916624Y-76970320D01*
X168952461Y-76975996D01*
X168964082Y-76978403D01*
X168995901Y-76986572D01*
X169006912Y-76989399D01*
X169027173Y-76989399D01*
X169046882Y-76990950D01*
X169066885Y-76994118D01*
X169074777Y-76993372D01*
X169080004Y-76992878D01*
X169110896Y-76989958D01*
X169122753Y-76989399D01*
X188974291Y-76989399D01*
X188985474Y-76989926D01*
X188992967Y-76991601D01*
X189000893Y-76991352D01*
X189000894Y-76991352D01*
X189061044Y-76989461D01*
X189065003Y-76989399D01*
X189092914Y-76989399D01*
X189096849Y-76988902D01*
X189096914Y-76988894D01*
X189108751Y-76987961D01*
X189141009Y-76986947D01*
X189145028Y-76986821D01*
X189152947Y-76986572D01*
X189172401Y-76980920D01*
X189191758Y-76976912D01*
X189203988Y-76975367D01*
X189203989Y-76975367D01*
X189211855Y-76974373D01*
X189219226Y-76971454D01*
X189219228Y-76971454D01*
X189252970Y-76958095D01*
X189264200Y-76954250D01*
X189299041Y-76944128D01*
X189299042Y-76944128D01*
X189306651Y-76941917D01*
X189313470Y-76937884D01*
X189313475Y-76937882D01*
X189324086Y-76931606D01*
X189341834Y-76922911D01*
X189360675Y-76915451D01*
X189381045Y-76900652D01*
X189396445Y-76889463D01*
X189406365Y-76882947D01*
X189437593Y-76864479D01*
X189437596Y-76864477D01*
X189444420Y-76860441D01*
X189458741Y-76846120D01*
X189473775Y-76833279D01*
X189475490Y-76832033D01*
X189490165Y-76821371D01*
X189518356Y-76787294D01*
X189526346Y-76778515D01*
X191395904Y-74908957D01*
X192126496Y-74908957D01*
X192127186Y-74915522D01*
X192139810Y-75035628D01*
X192146458Y-75098885D01*
X192205473Y-75280513D01*
X192300960Y-75445901D01*
X192305378Y-75450808D01*
X192305379Y-75450809D01*
X192383324Y-75537376D01*
X192428747Y-75587823D01*
X192583248Y-75700075D01*
X192589276Y-75702759D01*
X192589278Y-75702760D01*
X192681382Y-75743767D01*
X192757712Y-75777751D01*
X192851113Y-75797604D01*
X192938056Y-75816085D01*
X192938061Y-75816085D01*
X192944513Y-75817457D01*
X193135487Y-75817457D01*
X193141939Y-75816085D01*
X193141944Y-75816085D01*
X193228887Y-75797604D01*
X193322288Y-75777751D01*
X193398618Y-75743767D01*
X193490722Y-75702760D01*
X193490724Y-75702759D01*
X193496752Y-75700075D01*
X193651253Y-75587823D01*
X193655668Y-75582920D01*
X193660580Y-75578497D01*
X193661705Y-75579746D01*
X193715014Y-75546906D01*
X193748200Y-75542457D01*
X194362130Y-75542457D01*
X194430251Y-75562459D01*
X194476744Y-75616115D01*
X194480112Y-75624227D01*
X194503080Y-75685494D01*
X194529385Y-75755662D01*
X194616739Y-75872218D01*
X194733295Y-75959572D01*
X194869684Y-76010702D01*
X194931866Y-76017457D01*
X196228134Y-76017457D01*
X196290316Y-76010702D01*
X196426705Y-75959572D01*
X196543261Y-75872218D01*
X196553972Y-75857927D01*
X200693156Y-75857927D01*
X200693737Y-75862947D01*
X200693737Y-75862951D01*
X200695432Y-75877599D01*
X200721982Y-76107058D01*
X200723361Y-76111932D01*
X200723362Y-76111936D01*
X200762300Y-76249540D01*
X200790268Y-76348376D01*
X200792402Y-76352951D01*
X200792404Y-76352958D01*
X200894121Y-76571090D01*
X200896258Y-76575672D01*
X200899100Y-76579853D01*
X200899100Y-76579854D01*
X201034379Y-76778911D01*
X201034382Y-76778915D01*
X201037225Y-76783098D01*
X201040702Y-76786775D01*
X201040703Y-76786776D01*
X201141012Y-76892850D01*
X201209541Y-76965318D01*
X201213567Y-76968396D01*
X201213568Y-76968397D01*
X201404755Y-77114571D01*
X201404759Y-77114574D01*
X201408775Y-77117644D01*
X201629800Y-77236156D01*
X201634581Y-77237802D01*
X201634585Y-77237804D01*
X201825333Y-77303484D01*
X201866930Y-77317807D01*
X201970463Y-77335690D01*
X202110154Y-77359819D01*
X202110160Y-77359820D01*
X202114064Y-77360494D01*
X202118025Y-77360674D01*
X202118026Y-77360674D01*
X202142705Y-77361795D01*
X202142724Y-77361795D01*
X202144124Y-77361859D01*
X202318789Y-77361859D01*
X202321297Y-77361657D01*
X202321302Y-77361657D01*
X202500718Y-77347222D01*
X202500723Y-77347221D01*
X202505759Y-77346816D01*
X202510667Y-77345611D01*
X202510670Y-77345610D01*
X202744399Y-77288200D01*
X202749313Y-77286993D01*
X202753965Y-77285018D01*
X202753969Y-77285017D01*
X202975515Y-77190976D01*
X202975516Y-77190976D01*
X202980170Y-77189000D01*
X203192389Y-77055359D01*
X203380512Y-76889506D01*
X203539698Y-76695710D01*
X203665852Y-76478955D01*
X203755729Y-76244820D01*
X203775251Y-76151376D01*
X203805980Y-76004280D01*
X203807015Y-75999326D01*
X203808821Y-75959572D01*
X203813113Y-75865038D01*
X203818392Y-75748791D01*
X203815339Y-75722399D01*
X203802497Y-75611417D01*
X203789566Y-75499660D01*
X203758191Y-75388781D01*
X203722658Y-75263211D01*
X203722657Y-75263209D01*
X203721280Y-75258342D01*
X203719146Y-75253767D01*
X203719144Y-75253760D01*
X203617427Y-75035628D01*
X203617425Y-75035624D01*
X203615290Y-75031046D01*
X203536780Y-74915522D01*
X203477169Y-74827807D01*
X203477166Y-74827803D01*
X203474323Y-74823620D01*
X203373699Y-74717212D01*
X203305487Y-74645080D01*
X203302007Y-74641400D01*
X203232334Y-74588131D01*
X203106793Y-74492147D01*
X203106789Y-74492144D01*
X203102773Y-74489074D01*
X203085526Y-74479826D01*
X202886209Y-74372954D01*
X202881748Y-74370562D01*
X202876967Y-74368916D01*
X202876963Y-74368914D01*
X202649407Y-74290560D01*
X202644618Y-74288911D01*
X202485675Y-74261457D01*
X202401394Y-74246899D01*
X202401388Y-74246898D01*
X202397484Y-74246224D01*
X202393523Y-74246044D01*
X202393522Y-74246044D01*
X202368843Y-74244923D01*
X202368824Y-74244923D01*
X202367424Y-74244859D01*
X202192759Y-74244859D01*
X202190251Y-74245061D01*
X202190246Y-74245061D01*
X202010830Y-74259496D01*
X202010825Y-74259497D01*
X202005789Y-74259902D01*
X202000881Y-74261107D01*
X202000878Y-74261108D01*
X201769100Y-74318039D01*
X201762235Y-74319725D01*
X201757583Y-74321700D01*
X201757579Y-74321701D01*
X201639052Y-74372013D01*
X201531378Y-74417718D01*
X201440144Y-74475171D01*
X201331344Y-74543686D01*
X201319159Y-74551359D01*
X201131036Y-74717212D01*
X200971850Y-74911008D01*
X200845696Y-75127763D01*
X200755819Y-75361898D01*
X200754786Y-75366844D01*
X200754784Y-75366850D01*
X200717641Y-75544648D01*
X200704533Y-75607392D01*
X200704304Y-75612441D01*
X200704303Y-75612447D01*
X200703657Y-75626672D01*
X200693156Y-75857927D01*
X196553972Y-75857927D01*
X196630615Y-75755662D01*
X196681745Y-75619273D01*
X196688500Y-75557091D01*
X196688500Y-74260823D01*
X196681745Y-74198641D01*
X196630615Y-74062252D01*
X196543261Y-73945696D01*
X196426705Y-73858342D01*
X196290316Y-73807212D01*
X196228134Y-73800457D01*
X194931866Y-73800457D01*
X194869684Y-73807212D01*
X194733295Y-73858342D01*
X194616739Y-73945696D01*
X194529385Y-74062252D01*
X194526233Y-74070660D01*
X194480112Y-74193687D01*
X194437470Y-74250451D01*
X194370909Y-74275151D01*
X194362130Y-74275457D01*
X193748200Y-74275457D01*
X193680079Y-74255455D01*
X193660853Y-74239114D01*
X193660580Y-74239417D01*
X193655668Y-74234994D01*
X193651253Y-74230091D01*
X193496752Y-74117839D01*
X193490724Y-74115155D01*
X193490722Y-74115154D01*
X193328319Y-74042848D01*
X193328318Y-74042848D01*
X193322288Y-74040163D01*
X193218749Y-74018155D01*
X193141944Y-74001829D01*
X193141939Y-74001829D01*
X193135487Y-74000457D01*
X192944513Y-74000457D01*
X192938061Y-74001829D01*
X192938056Y-74001829D01*
X192861251Y-74018155D01*
X192757712Y-74040163D01*
X192751682Y-74042848D01*
X192751681Y-74042848D01*
X192589278Y-74115154D01*
X192589276Y-74115155D01*
X192583248Y-74117839D01*
X192577907Y-74121719D01*
X192577906Y-74121720D01*
X192429515Y-74229533D01*
X192423450Y-74231697D01*
X192409229Y-74251768D01*
X192402271Y-74259496D01*
X192374301Y-74290560D01*
X192300960Y-74372013D01*
X192244020Y-74470636D01*
X192215095Y-74520736D01*
X192205473Y-74537401D01*
X192146458Y-74719029D01*
X192145768Y-74725590D01*
X192145768Y-74725592D01*
X192130204Y-74873679D01*
X192126496Y-74908957D01*
X191395904Y-74908957D01*
X192226498Y-74078363D01*
X192249852Y-74065611D01*
X192255674Y-74050656D01*
X192266359Y-74038502D01*
X194256405Y-72048456D01*
X194318717Y-72014430D01*
X194389532Y-72019495D01*
X194446368Y-72062042D01*
X194471179Y-72128562D01*
X194471500Y-72137551D01*
X194471500Y-72757091D01*
X194478255Y-72819273D01*
X194529385Y-72955662D01*
X194616739Y-73072218D01*
X194733295Y-73159572D01*
X194869684Y-73210702D01*
X194931866Y-73217457D01*
X195178084Y-73217457D01*
X195229332Y-73228350D01*
X195291677Y-73256108D01*
X195291685Y-73256111D01*
X195297712Y-73258794D01*
X195391113Y-73278647D01*
X195478056Y-73297128D01*
X195478061Y-73297128D01*
X195484513Y-73298500D01*
X195675487Y-73298500D01*
X195681939Y-73297128D01*
X195681944Y-73297128D01*
X195768888Y-73278647D01*
X195862288Y-73258794D01*
X195868315Y-73256111D01*
X195868323Y-73256108D01*
X195930668Y-73228350D01*
X195981916Y-73217457D01*
X196228134Y-73217457D01*
X196290316Y-73210702D01*
X196426705Y-73159572D01*
X196543261Y-73072218D01*
X196630615Y-72955662D01*
X196681745Y-72819273D01*
X196688500Y-72757091D01*
X196688500Y-71460823D01*
X196681745Y-71398641D01*
X196630615Y-71262252D01*
X196543261Y-71145696D01*
X196426705Y-71058342D01*
X196418297Y-71055190D01*
X196410425Y-71050880D01*
X196411533Y-71048856D01*
X196364858Y-71013791D01*
X196340163Y-70947228D01*
X196355374Y-70877880D01*
X196405663Y-70827764D01*
X196465856Y-70812456D01*
X196661634Y-70812456D01*
X196664492Y-70812193D01*
X196664501Y-70812193D01*
X196700004Y-70808931D01*
X196735062Y-70805710D01*
X196808908Y-70782568D01*
X196891450Y-70756701D01*
X196891452Y-70756700D01*
X196898699Y-70754429D01*
X197045381Y-70665596D01*
X197166639Y-70544338D01*
X197255472Y-70397656D01*
X197258665Y-70387469D01*
X197290689Y-70285279D01*
X197306753Y-70234019D01*
X197313500Y-70160592D01*
X197313499Y-69868552D01*
X197333501Y-69800433D01*
X197350404Y-69779457D01*
X198246769Y-68883093D01*
X198255048Y-68875559D01*
X198261529Y-68871446D01*
X198308155Y-68821794D01*
X198310909Y-68818953D01*
X198330646Y-68799216D01*
X198333126Y-68796019D01*
X198340831Y-68786997D01*
X198365670Y-68760546D01*
X198371097Y-68754767D01*
X198374916Y-68747821D01*
X198374918Y-68747818D01*
X198380859Y-68737012D01*
X198391710Y-68720493D01*
X198399269Y-68710747D01*
X198404125Y-68704487D01*
X198407270Y-68697218D01*
X198407273Y-68697214D01*
X198421685Y-68663909D01*
X198426902Y-68653259D01*
X198448206Y-68614506D01*
X198453244Y-68594883D01*
X198459648Y-68576180D01*
X198464544Y-68564866D01*
X198464544Y-68564865D01*
X198467692Y-68557591D01*
X198468931Y-68549768D01*
X198468934Y-68549758D01*
X198474610Y-68513922D01*
X198477016Y-68502302D01*
X198486039Y-68467157D01*
X198486039Y-68467156D01*
X198488011Y-68459476D01*
X198488011Y-68439222D01*
X198489562Y-68419511D01*
X198491491Y-68407332D01*
X198492731Y-68399503D01*
X198488570Y-68355484D01*
X198488011Y-68343627D01*
X198488011Y-61387231D01*
X198488538Y-61376047D01*
X198490212Y-61368559D01*
X198488073Y-61300500D01*
X198488011Y-61296543D01*
X198488011Y-61268612D01*
X198487505Y-61264606D01*
X198486572Y-61252760D01*
X198486142Y-61239056D01*
X198485184Y-61208578D01*
X198479533Y-61189126D01*
X198475525Y-61169774D01*
X198473979Y-61157536D01*
X198473978Y-61157534D01*
X198472985Y-61149671D01*
X198456705Y-61108554D01*
X198452870Y-61097353D01*
X198440529Y-61054874D01*
X198436496Y-61048055D01*
X198436494Y-61048050D01*
X198430218Y-61037439D01*
X198421521Y-61019689D01*
X198414063Y-61000851D01*
X198388082Y-60965091D01*
X198381564Y-60955169D01*
X198363089Y-60923928D01*
X198363085Y-60923923D01*
X198359053Y-60917105D01*
X198344729Y-60902781D01*
X198331887Y-60887746D01*
X198327004Y-60881025D01*
X198319983Y-60871361D01*
X198289482Y-60846128D01*
X198274965Y-60831611D01*
X198272000Y-60826939D01*
X198222348Y-60780313D01*
X198219507Y-60777559D01*
X198199770Y-60757822D01*
X198196573Y-60755342D01*
X198187551Y-60747637D01*
X198161100Y-60722798D01*
X198155321Y-60717371D01*
X198148375Y-60713552D01*
X198148372Y-60713550D01*
X198137566Y-60707609D01*
X198121047Y-60696758D01*
X198113114Y-60690605D01*
X198105041Y-60684343D01*
X198097772Y-60681198D01*
X198097768Y-60681195D01*
X198064463Y-60666783D01*
X198053813Y-60661566D01*
X198015060Y-60640262D01*
X197995437Y-60635224D01*
X197976734Y-60628820D01*
X197965420Y-60623924D01*
X197965419Y-60623924D01*
X197958145Y-60620776D01*
X197950322Y-60619537D01*
X197950312Y-60619534D01*
X197914476Y-60613858D01*
X197902856Y-60611452D01*
X197867711Y-60602429D01*
X197867710Y-60602429D01*
X197860030Y-60600457D01*
X197839776Y-60600457D01*
X197820055Y-60598904D01*
X197816925Y-60598408D01*
X197779973Y-60585792D01*
X197776705Y-60583342D01*
X197640316Y-60532212D01*
X197578134Y-60525457D01*
X196651866Y-60525457D01*
X196589684Y-60532212D01*
X196453295Y-60583342D01*
X196446110Y-60588727D01*
X196446108Y-60588728D01*
X196444738Y-60589755D01*
X196427828Y-60602429D01*
X196427809Y-60602443D01*
X196361303Y-60627292D01*
X196299902Y-60616232D01*
X196244734Y-60591038D01*
X196100000Y-60570228D01*
X194486061Y-60570228D01*
X194433718Y-60558841D01*
X194402935Y-60544783D01*
X194402933Y-60544782D01*
X194394734Y-60541038D01*
X194250000Y-60520228D01*
X193630000Y-60520228D01*
X193621024Y-60520870D01*
X193563627Y-60524975D01*
X193563626Y-60524975D01*
X193556889Y-60525457D01*
X193491071Y-60544783D01*
X193425235Y-60564114D01*
X193425233Y-60564115D01*
X193416589Y-60566653D01*
X193388845Y-60584483D01*
X193301159Y-60640835D01*
X193301156Y-60640837D01*
X193293579Y-60645707D01*
X193287678Y-60652517D01*
X193203726Y-60749402D01*
X193203724Y-60749405D01*
X193197824Y-60756214D01*
X193137081Y-60889223D01*
X193116271Y-61033957D01*
X193116271Y-61433957D01*
X193121500Y-61507068D01*
X193123403Y-61513548D01*
X193127341Y-61526960D01*
X193131162Y-61580391D01*
X193116271Y-61683957D01*
X193116271Y-62083957D01*
X193116432Y-62086207D01*
X193120785Y-62147064D01*
X193121500Y-62157068D01*
X193123403Y-62163548D01*
X193127341Y-62176960D01*
X193131162Y-62230391D01*
X193116271Y-62333957D01*
X193116271Y-62699978D01*
X193096269Y-62768099D01*
X193079366Y-62789073D01*
X192389747Y-63478691D01*
X191870283Y-63998155D01*
X191861997Y-64005695D01*
X191855518Y-64009807D01*
X191850093Y-64015584D01*
X191808893Y-64059458D01*
X191806138Y-64062300D01*
X191786401Y-64082037D01*
X191783921Y-64085234D01*
X191776218Y-64094254D01*
X191745950Y-64126486D01*
X191742131Y-64133432D01*
X191742129Y-64133435D01*
X191736188Y-64144241D01*
X191725337Y-64160760D01*
X191712922Y-64176766D01*
X191709777Y-64184035D01*
X191709774Y-64184039D01*
X191695362Y-64217344D01*
X191690145Y-64227994D01*
X191668841Y-64266747D01*
X191666870Y-64274422D01*
X191666870Y-64274423D01*
X191663803Y-64286369D01*
X191657399Y-64305073D01*
X191649355Y-64323662D01*
X191648116Y-64331485D01*
X191648113Y-64331495D01*
X191642437Y-64367331D01*
X191640031Y-64378951D01*
X191629036Y-64421777D01*
X191629036Y-64442031D01*
X191627485Y-64461741D01*
X191624316Y-64481750D01*
X191627487Y-64515290D01*
X191628477Y-64525768D01*
X191629036Y-64537626D01*
X191629036Y-66945129D01*
X191609034Y-67013250D01*
X191555378Y-67059743D01*
X191485104Y-67069847D01*
X191458808Y-67063112D01*
X191369531Y-67029643D01*
X191307349Y-67022888D01*
X189587718Y-67022888D01*
X189519597Y-67002886D01*
X189498623Y-66985983D01*
X188954620Y-66441980D01*
X188920594Y-66379668D01*
X188917715Y-66352885D01*
X188917715Y-64357458D01*
X188937717Y-64289337D01*
X188977412Y-64250314D01*
X189041753Y-64210499D01*
X189041767Y-64210489D01*
X189045734Y-64208034D01*
X189049297Y-64205017D01*
X189049302Y-64205014D01*
X189241654Y-64042175D01*
X189241655Y-64042174D01*
X189245220Y-64039156D01*
X189336944Y-63934565D01*
X189414472Y-63846162D01*
X189414476Y-63846157D01*
X189417554Y-63842647D01*
X189426498Y-63828743D01*
X189556420Y-63626755D01*
X189558948Y-63622825D01*
X189666298Y-63384517D01*
X189737245Y-63132960D01*
X189754047Y-63000884D01*
X189769831Y-62876809D01*
X189769831Y-62876805D01*
X189770229Y-62873679D01*
X189772646Y-62781388D01*
X189753276Y-62520736D01*
X189741940Y-62470636D01*
X189731965Y-62426556D01*
X189736440Y-62355701D01*
X189765763Y-62309653D01*
X192846478Y-59228938D01*
X192861511Y-59216097D01*
X192867559Y-59211703D01*
X192867560Y-59211702D01*
X192872899Y-59207823D01*
X192918662Y-59156998D01*
X192923203Y-59152213D01*
X192937718Y-59137698D01*
X192950640Y-59121741D01*
X192954924Y-59116726D01*
X192996265Y-59070812D01*
X192996269Y-59070807D01*
X193000686Y-59065901D01*
X193003986Y-59060185D01*
X193003989Y-59060181D01*
X193007719Y-59053720D01*
X193018919Y-59037423D01*
X193023621Y-59031617D01*
X193023622Y-59031615D01*
X193027775Y-59026487D01*
X193039917Y-59002658D01*
X193058834Y-58965531D01*
X193061982Y-58959734D01*
X193092870Y-58906234D01*
X193096173Y-58900513D01*
X193100521Y-58887131D01*
X193108084Y-58868872D01*
X193114476Y-58856327D01*
X193132183Y-58790245D01*
X193134055Y-58783926D01*
X193153147Y-58725167D01*
X193153147Y-58725166D01*
X193155188Y-58718885D01*
X193156660Y-58704882D01*
X193160261Y-58685453D01*
X193163903Y-58671860D01*
X193166218Y-58627689D01*
X193167482Y-58603573D01*
X193167999Y-58596999D01*
X193169802Y-58579841D01*
X193169802Y-58579839D01*
X193170146Y-58576567D01*
X193170146Y-58556031D01*
X193170319Y-58549437D01*
X193173553Y-58487739D01*
X193173553Y-58487734D01*
X193173898Y-58481147D01*
X193171697Y-58467250D01*
X193170146Y-58447540D01*
X193170146Y-58314500D01*
X193190148Y-58246379D01*
X193243804Y-58199886D01*
X193296146Y-58188500D01*
X194512671Y-58188500D01*
X194580792Y-58208502D01*
X194604332Y-58230407D01*
X194605008Y-58229731D01*
X194611358Y-58236081D01*
X194616739Y-58243261D01*
X194733295Y-58330615D01*
X194869684Y-58381745D01*
X194931866Y-58388500D01*
X196228134Y-58388500D01*
X196290316Y-58381745D01*
X196426705Y-58330615D01*
X196543261Y-58243261D01*
X196630615Y-58126705D01*
X196681745Y-57990316D01*
X196688500Y-57928134D01*
X196688500Y-56631866D01*
X196681745Y-56569684D01*
X196630615Y-56433295D01*
X196543261Y-56316739D01*
X196426705Y-56229385D01*
X196290316Y-56178255D01*
X196228134Y-56171500D01*
X195808503Y-56171500D01*
X195740382Y-56151498D01*
X195719408Y-56134595D01*
X195388408Y-55803595D01*
X195354382Y-55741283D01*
X195359447Y-55670468D01*
X195401994Y-55613632D01*
X195468514Y-55588821D01*
X195477503Y-55588500D01*
X196228134Y-55588500D01*
X196290316Y-55581745D01*
X196426705Y-55530615D01*
X196543261Y-55443261D01*
X196630615Y-55326705D01*
X196681745Y-55190316D01*
X196688500Y-55128134D01*
X196688500Y-53831866D01*
X196681745Y-53769684D01*
X196630615Y-53633295D01*
X196543261Y-53516739D01*
X196426705Y-53429385D01*
X196404808Y-53421176D01*
X196295270Y-53380112D01*
X196238506Y-53337470D01*
X196213806Y-53270909D01*
X196213500Y-53262130D01*
X196213500Y-51909500D01*
X196233502Y-51841379D01*
X196287158Y-51794886D01*
X196339500Y-51783500D01*
X196651610Y-51783499D01*
X196661634Y-51783499D01*
X196664492Y-51783236D01*
X196664501Y-51783236D01*
X196700004Y-51779974D01*
X196735062Y-51776753D01*
X196741447Y-51774752D01*
X196891450Y-51727744D01*
X196891452Y-51727743D01*
X196898699Y-51725472D01*
X197045381Y-51636639D01*
X197143935Y-51538085D01*
X197206247Y-51504059D01*
X197277062Y-51509124D01*
X197307091Y-51525244D01*
X197382039Y-51579697D01*
X197397759Y-51591118D01*
X197403787Y-51593802D01*
X197403789Y-51593803D01*
X197566192Y-51666109D01*
X197572223Y-51668794D01*
X197665624Y-51688647D01*
X197752567Y-51707128D01*
X197752572Y-51707128D01*
X197759024Y-51708500D01*
X197949998Y-51708500D01*
X197956450Y-51707128D01*
X197956455Y-51707128D01*
X198043399Y-51688647D01*
X198136799Y-51668794D01*
X198142830Y-51666109D01*
X198305233Y-51593803D01*
X198305235Y-51593802D01*
X198311263Y-51591118D01*
X198329107Y-51578154D01*
X198408106Y-51520757D01*
X198465764Y-51478866D01*
X198491548Y-51450230D01*
X198589132Y-51341852D01*
X198589133Y-51341851D01*
X198593551Y-51336944D01*
X198689038Y-51171556D01*
X198748053Y-50989928D01*
X198768015Y-50800000D01*
X198748053Y-50610072D01*
X198689038Y-50428444D01*
X198666008Y-50388554D01*
X198651825Y-50363990D01*
X198593551Y-50263056D01*
X198498351Y-50157325D01*
X198470186Y-50126045D01*
X198470185Y-50126044D01*
X198465764Y-50121134D01*
X198311263Y-50008882D01*
X198305235Y-50006198D01*
X198305233Y-50006197D01*
X198142830Y-49933891D01*
X198142829Y-49933891D01*
X198136799Y-49931206D01*
X198043399Y-49911353D01*
X197956455Y-49892872D01*
X197956450Y-49892872D01*
X197949998Y-49891500D01*
X197759024Y-49891500D01*
X197752572Y-49892872D01*
X197752567Y-49892872D01*
X197665623Y-49911353D01*
X197572223Y-49931206D01*
X197566193Y-49933891D01*
X197566192Y-49933891D01*
X197403789Y-50006197D01*
X197403787Y-50006198D01*
X197397759Y-50008882D01*
X197392418Y-50012762D01*
X197392417Y-50012763D01*
X197307091Y-50074756D01*
X197240223Y-50098615D01*
X197171072Y-50082534D01*
X197143935Y-50061915D01*
X197045381Y-49963361D01*
X196898699Y-49874528D01*
X196891452Y-49872257D01*
X196891450Y-49872256D01*
X196809964Y-49846720D01*
X196735062Y-49823247D01*
X196661635Y-49816500D01*
X196651560Y-49816500D01*
X196339499Y-49816501D01*
X196271380Y-49796499D01*
X196224887Y-49742844D01*
X196213500Y-49690501D01*
X196213500Y-44895963D01*
X196233502Y-44827842D01*
X196287158Y-44781349D01*
X196304002Y-44775067D01*
X196313412Y-44772304D01*
X196313843Y-44773771D01*
X196374295Y-44765082D01*
X196431921Y-44788972D01*
X196446348Y-44799784D01*
X196461946Y-44808324D01*
X196582394Y-44853478D01*
X196597649Y-44857105D01*
X196648514Y-44862631D01*
X196655328Y-44863000D01*
X196896885Y-44863000D01*
X196912124Y-44858525D01*
X196913329Y-44857135D01*
X196915000Y-44849452D01*
X196915000Y-44844884D01*
X197315000Y-44844884D01*
X197319475Y-44860123D01*
X197320865Y-44861328D01*
X197328548Y-44862999D01*
X197574669Y-44862999D01*
X197581490Y-44862629D01*
X197632352Y-44857105D01*
X197647604Y-44853479D01*
X197768054Y-44808324D01*
X197783649Y-44799786D01*
X197885724Y-44723285D01*
X197898285Y-44710724D01*
X197974786Y-44608649D01*
X197983324Y-44593054D01*
X198028478Y-44472606D01*
X198032105Y-44457351D01*
X198037631Y-44406486D01*
X198038000Y-44399672D01*
X198038000Y-44373115D01*
X198033525Y-44357876D01*
X198032135Y-44356671D01*
X198024452Y-44355000D01*
X197333115Y-44355000D01*
X197317876Y-44359475D01*
X197316671Y-44360865D01*
X197315000Y-44368548D01*
X197315000Y-44844884D01*
X196915000Y-44844884D01*
X196915000Y-43039500D01*
X196935002Y-42971379D01*
X196988658Y-42924886D01*
X197041000Y-42913500D01*
X197189000Y-42913500D01*
X197257121Y-42933502D01*
X197303614Y-42987158D01*
X197315000Y-43039500D01*
X197315000Y-43936885D01*
X197319475Y-43952124D01*
X197320865Y-43953329D01*
X197328548Y-43955000D01*
X198019884Y-43955000D01*
X198035123Y-43950525D01*
X198036328Y-43949135D01*
X198037999Y-43941452D01*
X198037999Y-43910331D01*
X198037629Y-43903510D01*
X198031252Y-43844793D01*
X198033644Y-43844533D01*
X198033652Y-43815468D01*
X198031252Y-43815207D01*
X198037631Y-43756486D01*
X198038000Y-43749672D01*
X198038000Y-43663095D01*
X198058002Y-43594974D01*
X198111658Y-43548481D01*
X198181932Y-43538377D01*
X198246512Y-43567871D01*
X198253095Y-43574000D01*
X198602222Y-43923127D01*
X198636248Y-43985439D01*
X198639127Y-44012222D01*
X198639127Y-46792778D01*
X198619125Y-46860899D01*
X198602222Y-46881874D01*
X198169499Y-47314596D01*
X198107187Y-47348621D01*
X198080404Y-47351500D01*
X198024513Y-47351500D01*
X198018061Y-47352872D01*
X198018056Y-47352872D01*
X197931113Y-47371353D01*
X197837712Y-47391206D01*
X197831682Y-47393891D01*
X197831681Y-47393891D01*
X197669278Y-47466197D01*
X197669276Y-47466198D01*
X197663248Y-47468882D01*
X197508747Y-47581134D01*
X197430605Y-47667919D01*
X197370163Y-47705157D01*
X197299179Y-47703806D01*
X197240194Y-47664292D01*
X197229196Y-47648879D01*
X197170176Y-47551426D01*
X197160869Y-47539557D01*
X197050443Y-47429131D01*
X197038574Y-47419824D01*
X196904988Y-47338921D01*
X196891243Y-47332715D01*
X196741356Y-47285744D01*
X196728306Y-47283131D01*
X196673414Y-47278087D01*
X196661876Y-47281475D01*
X196660671Y-47282865D01*
X196659000Y-47290548D01*
X196659000Y-49224884D01*
X196663475Y-49240123D01*
X196664865Y-49241328D01*
X196669294Y-49242291D01*
X196728315Y-49236868D01*
X196741351Y-49234257D01*
X196891243Y-49187285D01*
X196904988Y-49181079D01*
X197038574Y-49100176D01*
X197050443Y-49090869D01*
X197160869Y-48980443D01*
X197170176Y-48968574D01*
X197229196Y-48871121D01*
X197281594Y-48823215D01*
X197351573Y-48811242D01*
X197416917Y-48839003D01*
X197430597Y-48852072D01*
X197508747Y-48938866D01*
X197663248Y-49051118D01*
X197669276Y-49053802D01*
X197669278Y-49053803D01*
X197783665Y-49104731D01*
X197837712Y-49128794D01*
X197931112Y-49148647D01*
X198018056Y-49167128D01*
X198018061Y-49167128D01*
X198024513Y-49168500D01*
X198215487Y-49168500D01*
X198221939Y-49167128D01*
X198221944Y-49167128D01*
X198308888Y-49148647D01*
X198402288Y-49128794D01*
X198456335Y-49104731D01*
X198570722Y-49053803D01*
X198570724Y-49053802D01*
X198576752Y-49051118D01*
X198731253Y-48938866D01*
X198772101Y-48893500D01*
X198854621Y-48801852D01*
X198854622Y-48801851D01*
X198859040Y-48796944D01*
X198954527Y-48631556D01*
X199013542Y-48449928D01*
X199016603Y-48420810D01*
X199030907Y-48284708D01*
X199057920Y-48219051D01*
X199067122Y-48208782D01*
X199357218Y-47918687D01*
X199664885Y-47611020D01*
X199673164Y-47603486D01*
X199679645Y-47599373D01*
X199726271Y-47549721D01*
X199729025Y-47546880D01*
X199748762Y-47527143D01*
X199751242Y-47523946D01*
X199758947Y-47514924D01*
X199783786Y-47488473D01*
X199789213Y-47482694D01*
X199793032Y-47475748D01*
X199793034Y-47475745D01*
X199798975Y-47464939D01*
X199809826Y-47448420D01*
X199817385Y-47438674D01*
X199822241Y-47432414D01*
X199825386Y-47425145D01*
X199825389Y-47425141D01*
X199839801Y-47391836D01*
X199845018Y-47381186D01*
X199866322Y-47342433D01*
X199871360Y-47322810D01*
X199877764Y-47304107D01*
X199882660Y-47292793D01*
X199882660Y-47292792D01*
X199885808Y-47285518D01*
X199887047Y-47277695D01*
X199887050Y-47277685D01*
X199892726Y-47241849D01*
X199895132Y-47230229D01*
X199904155Y-47195084D01*
X199904155Y-47195083D01*
X199906127Y-47187403D01*
X199906127Y-47167149D01*
X199907678Y-47147438D01*
X199909607Y-47135259D01*
X199910847Y-47127430D01*
X199906686Y-47083411D01*
X199906127Y-47071554D01*
X199906127Y-43707253D01*
X199908359Y-43683644D01*
X199908417Y-43683341D01*
X199908417Y-43683337D01*
X199909902Y-43675554D01*
X199906376Y-43619509D01*
X199906127Y-43611598D01*
X199906127Y-43595604D01*
X199904121Y-43579730D01*
X199903378Y-43571862D01*
X199900350Y-43523723D01*
X199900350Y-43523722D01*
X199899852Y-43515810D01*
X199897306Y-43507973D01*
X199892133Y-43484829D01*
X199892095Y-43484525D01*
X199892094Y-43484520D01*
X199891101Y-43476663D01*
X199888185Y-43469298D01*
X199888184Y-43469294D01*
X199870428Y-43424449D01*
X199867756Y-43417030D01*
X199850391Y-43363585D01*
X199846141Y-43356888D01*
X199845977Y-43356629D01*
X199835212Y-43335502D01*
X199835098Y-43335214D01*
X199835095Y-43335209D01*
X199832179Y-43327843D01*
X199827523Y-43321435D01*
X199827520Y-43321429D01*
X199799169Y-43282408D01*
X199794719Y-43275861D01*
X199764627Y-43228442D01*
X199758620Y-43222801D01*
X199742939Y-43205014D01*
X199742761Y-43204769D01*
X199742759Y-43204767D01*
X199738099Y-43198353D01*
X199714608Y-43178919D01*
X199694831Y-43162557D01*
X199688897Y-43157326D01*
X199653729Y-43124302D01*
X199653726Y-43124300D01*
X199647948Y-43118874D01*
X199640724Y-43114902D01*
X199621121Y-43101579D01*
X199620881Y-43101380D01*
X199620874Y-43101376D01*
X199614771Y-43096327D01*
X199563951Y-43072413D01*
X199556919Y-43068831D01*
X199534461Y-43056484D01*
X199506072Y-43035168D01*
X198896442Y-42425537D01*
X198283652Y-41812747D01*
X198276112Y-41804461D01*
X198272000Y-41797982D01*
X198222348Y-41751356D01*
X198219507Y-41748602D01*
X198199770Y-41728865D01*
X198196573Y-41726385D01*
X198187551Y-41718680D01*
X198161100Y-41693841D01*
X198155321Y-41688414D01*
X198148375Y-41684595D01*
X198148372Y-41684593D01*
X198137566Y-41678652D01*
X198121047Y-41667801D01*
X198120583Y-41667441D01*
X198105041Y-41655386D01*
X198097772Y-41652241D01*
X198097768Y-41652238D01*
X198064463Y-41637826D01*
X198053813Y-41632609D01*
X198015060Y-41611305D01*
X197995437Y-41606267D01*
X197976734Y-41599863D01*
X197965420Y-41594967D01*
X197965419Y-41594967D01*
X197958145Y-41591819D01*
X197950322Y-41590580D01*
X197950312Y-41590577D01*
X197914476Y-41584901D01*
X197902856Y-41582495D01*
X197867711Y-41573472D01*
X197867710Y-41573472D01*
X197860030Y-41571500D01*
X197839776Y-41571500D01*
X197820055Y-41569947D01*
X197816925Y-41569451D01*
X197779973Y-41556835D01*
X197776705Y-41554385D01*
X197640316Y-41503255D01*
X197578134Y-41496500D01*
X196651866Y-41496500D01*
X196589684Y-41503255D01*
X196453295Y-41554385D01*
X196446110Y-41559770D01*
X196446108Y-41559771D01*
X196436756Y-41566780D01*
X196427828Y-41573472D01*
X196427809Y-41573486D01*
X196361303Y-41598335D01*
X196299902Y-41587275D01*
X196244734Y-41562081D01*
X196100000Y-41541271D01*
X194486061Y-41541271D01*
X194433718Y-41529884D01*
X194402935Y-41515826D01*
X194402933Y-41515825D01*
X194394734Y-41512081D01*
X194250000Y-41491271D01*
X193630000Y-41491271D01*
X193621024Y-41491913D01*
X193563627Y-41496018D01*
X193563626Y-41496018D01*
X193556889Y-41496500D01*
X193491071Y-41515826D01*
X193425235Y-41535157D01*
X193425233Y-41535158D01*
X193416589Y-41537696D01*
X193388845Y-41555526D01*
X193301159Y-41611878D01*
X193301156Y-41611880D01*
X193293579Y-41616750D01*
X193287678Y-41623560D01*
X193203726Y-41720445D01*
X193203724Y-41720448D01*
X193197824Y-41727257D01*
X193137081Y-41860266D01*
X193116271Y-42005000D01*
X193116271Y-42405000D01*
X193121500Y-42478111D01*
X193127341Y-42498003D01*
X193131162Y-42551434D01*
X193116271Y-42655000D01*
X193116271Y-43055000D01*
X193121500Y-43128111D01*
X193123403Y-43134591D01*
X193127341Y-43148003D01*
X193131162Y-43201434D01*
X193116271Y-43305000D01*
X193116271Y-43705000D01*
X193121500Y-43778111D01*
X193126772Y-43796064D01*
X193127341Y-43798003D01*
X193131162Y-43851434D01*
X193116271Y-43955000D01*
X193116271Y-44355000D01*
X193121500Y-44428111D01*
X193162696Y-44568411D01*
X193167567Y-44575990D01*
X193236878Y-44683841D01*
X193236880Y-44683844D01*
X193241750Y-44691421D01*
X193248560Y-44697322D01*
X193345445Y-44781274D01*
X193345448Y-44781276D01*
X193352257Y-44787176D01*
X193485266Y-44847919D01*
X193630000Y-44868729D01*
X194250000Y-44868729D01*
X194281986Y-44866441D01*
X194316373Y-44863982D01*
X194316374Y-44863982D01*
X194323111Y-44863500D01*
X194458203Y-44823833D01*
X194493702Y-44818729D01*
X194820500Y-44818729D01*
X194888621Y-44838731D01*
X194935114Y-44892387D01*
X194946500Y-44944729D01*
X194946500Y-47150500D01*
X194926498Y-47218621D01*
X194872842Y-47265114D01*
X194820500Y-47276500D01*
X194508390Y-47276501D01*
X194498366Y-47276501D01*
X194495508Y-47276764D01*
X194495499Y-47276764D01*
X194459996Y-47280026D01*
X194424938Y-47283247D01*
X194418560Y-47285246D01*
X194418559Y-47285246D01*
X194268550Y-47332256D01*
X194268548Y-47332257D01*
X194261301Y-47334528D01*
X194114619Y-47423361D01*
X193993361Y-47544619D01*
X193989424Y-47551120D01*
X193980551Y-47565771D01*
X193928154Y-47613678D01*
X193872775Y-47626500D01*
X191208200Y-47626500D01*
X191140079Y-47606498D01*
X191120853Y-47590157D01*
X191120580Y-47590460D01*
X191115668Y-47586037D01*
X191111253Y-47581134D01*
X191053595Y-47539243D01*
X190962094Y-47472763D01*
X190962093Y-47472762D01*
X190956752Y-47468882D01*
X190950724Y-47466198D01*
X190950722Y-47466197D01*
X190788319Y-47393891D01*
X190788318Y-47393891D01*
X190782288Y-47391206D01*
X190688887Y-47371353D01*
X190601944Y-47352872D01*
X190601939Y-47352872D01*
X190595487Y-47351500D01*
X190404513Y-47351500D01*
X190398061Y-47352872D01*
X190398056Y-47352872D01*
X190311113Y-47371353D01*
X190217712Y-47391206D01*
X190211682Y-47393891D01*
X190211681Y-47393891D01*
X190049278Y-47466197D01*
X190049276Y-47466198D01*
X190043248Y-47468882D01*
X189888747Y-47581134D01*
X189884326Y-47586044D01*
X189884325Y-47586045D01*
X189861838Y-47611020D01*
X189760960Y-47723056D01*
X189665473Y-47888444D01*
X189606458Y-48070072D01*
X189605768Y-48076633D01*
X189605768Y-48076635D01*
X189589303Y-48233295D01*
X189586496Y-48260000D01*
X189587186Y-48266565D01*
X189590608Y-48299125D01*
X189577836Y-48368963D01*
X189529333Y-48420810D01*
X189460500Y-48438204D01*
X189393191Y-48415622D01*
X189376203Y-48401390D01*
X188930405Y-47955592D01*
X188896379Y-47893280D01*
X188893500Y-47866497D01*
X188893500Y-45871070D01*
X188913502Y-45802949D01*
X188953197Y-45763926D01*
X189017538Y-45724111D01*
X189017552Y-45724101D01*
X189021519Y-45721646D01*
X189025082Y-45718629D01*
X189025087Y-45718626D01*
X189217439Y-45555787D01*
X189217440Y-45555786D01*
X189221005Y-45552768D01*
X189312729Y-45448177D01*
X189390257Y-45359774D01*
X189390261Y-45359769D01*
X189393339Y-45356259D01*
X189534733Y-45136437D01*
X189642083Y-44898129D01*
X189651714Y-44863982D01*
X189711760Y-44651076D01*
X189711761Y-44651073D01*
X189713030Y-44646572D01*
X189729832Y-44514496D01*
X189745616Y-44390421D01*
X189745616Y-44390417D01*
X189746014Y-44387291D01*
X189746386Y-44373115D01*
X189748348Y-44298160D01*
X189748431Y-44295000D01*
X189729061Y-44034348D01*
X189724055Y-44012222D01*
X189707750Y-43940168D01*
X189712225Y-43869313D01*
X189741548Y-43823265D01*
X192924832Y-40639981D01*
X192939865Y-40627140D01*
X192945913Y-40622746D01*
X192945914Y-40622745D01*
X192951253Y-40618866D01*
X192997016Y-40568041D01*
X193001557Y-40563256D01*
X193016072Y-40548741D01*
X193028994Y-40532784D01*
X193033278Y-40527769D01*
X193074619Y-40481855D01*
X193074623Y-40481850D01*
X193079040Y-40476944D01*
X193082340Y-40471228D01*
X193082343Y-40471224D01*
X193086073Y-40464763D01*
X193097273Y-40448466D01*
X193101975Y-40442660D01*
X193101976Y-40442658D01*
X193106129Y-40437530D01*
X193137186Y-40376577D01*
X193140333Y-40370782D01*
X193171223Y-40317279D01*
X193171224Y-40317278D01*
X193174527Y-40311556D01*
X193178875Y-40298173D01*
X193186441Y-40279907D01*
X193189079Y-40274729D01*
X193192829Y-40267370D01*
X193210533Y-40201299D01*
X193212400Y-40194997D01*
X193233542Y-40129928D01*
X193234232Y-40123363D01*
X193234234Y-40123354D01*
X193235015Y-40115925D01*
X193238617Y-40096491D01*
X193240547Y-40089286D01*
X193240547Y-40089284D01*
X193242257Y-40082903D01*
X193242700Y-40074460D01*
X193245836Y-40014616D01*
X193246353Y-40008042D01*
X193248156Y-39990884D01*
X193248156Y-39990882D01*
X193248500Y-39987610D01*
X193248500Y-39967074D01*
X193248673Y-39960480D01*
X193251907Y-39898782D01*
X193251907Y-39898777D01*
X193252252Y-39892190D01*
X193250051Y-39878292D01*
X193248500Y-39858583D01*
X193248500Y-39784255D01*
X193268502Y-39716134D01*
X193322158Y-39669641D01*
X193374500Y-39658255D01*
X195599072Y-39658255D01*
X195618781Y-39659806D01*
X195632679Y-39662007D01*
X195639266Y-39661662D01*
X195639271Y-39661662D01*
X195700969Y-39658428D01*
X195707563Y-39658255D01*
X195728099Y-39658255D01*
X195731371Y-39657911D01*
X195731373Y-39657911D01*
X195748531Y-39656108D01*
X195755105Y-39655591D01*
X195816797Y-39652358D01*
X195816801Y-39652357D01*
X195823392Y-39652012D01*
X195829773Y-39650302D01*
X195829775Y-39650302D01*
X195836980Y-39648372D01*
X195856414Y-39644770D01*
X195863843Y-39643989D01*
X195863852Y-39643987D01*
X195870417Y-39643297D01*
X195935486Y-39622155D01*
X195941788Y-39620288D01*
X196007859Y-39602584D01*
X196020397Y-39596195D01*
X196038663Y-39588630D01*
X196045761Y-39586324D01*
X196045763Y-39586323D01*
X196052045Y-39584282D01*
X196111274Y-39550086D01*
X196117068Y-39546940D01*
X196149441Y-39530445D01*
X196178019Y-39515884D01*
X196188956Y-39507028D01*
X196205252Y-39495828D01*
X196211713Y-39492098D01*
X196211717Y-39492095D01*
X196217433Y-39488795D01*
X196222339Y-39484378D01*
X196222344Y-39484374D01*
X196268258Y-39443033D01*
X196273273Y-39438749D01*
X196286666Y-39427903D01*
X196289230Y-39425827D01*
X196303745Y-39411312D01*
X196308530Y-39406771D01*
X196354446Y-39365428D01*
X196359355Y-39361008D01*
X196367629Y-39349620D01*
X196380470Y-39334587D01*
X197119408Y-38595649D01*
X197181720Y-38561623D01*
X197208503Y-38558744D01*
X197628134Y-38558744D01*
X197690316Y-38551989D01*
X197826705Y-38500859D01*
X197943261Y-38413505D01*
X198030615Y-38296949D01*
X198081745Y-38160560D01*
X198088500Y-38098378D01*
X198088500Y-36802110D01*
X198081745Y-36739928D01*
X198030615Y-36603539D01*
X197943261Y-36486983D01*
X197826705Y-36399629D01*
X197690316Y-36348499D01*
X197628134Y-36341744D01*
X196331866Y-36341744D01*
X196328469Y-36342113D01*
X196277535Y-36347646D01*
X196277534Y-36347646D01*
X196269684Y-36348499D01*
X196266279Y-36349776D01*
X196197264Y-36346171D01*
X196139621Y-36304724D01*
X196113537Y-36238693D01*
X196113020Y-36227291D01*
X196113020Y-36210500D01*
X196114571Y-36190789D01*
X196116500Y-36178610D01*
X196117740Y-36170781D01*
X196113579Y-36126762D01*
X196113020Y-36114905D01*
X196113020Y-35452159D01*
X196133022Y-35384038D01*
X196186678Y-35337545D01*
X196239020Y-35326159D01*
X196645814Y-35326158D01*
X196661634Y-35326158D01*
X196664492Y-35325895D01*
X196664501Y-35325895D01*
X196700004Y-35322633D01*
X196735062Y-35319412D01*
X196741447Y-35317411D01*
X196891450Y-35270403D01*
X196891452Y-35270402D01*
X196898699Y-35268131D01*
X197045381Y-35179298D01*
X197166639Y-35058040D01*
X197255472Y-34911358D01*
X197257879Y-34903679D01*
X197304752Y-34754105D01*
X197306753Y-34747721D01*
X197313500Y-34674294D01*
X197313499Y-34382254D01*
X197333501Y-34314135D01*
X197350404Y-34293159D01*
X197785023Y-33858541D01*
X198246769Y-33396795D01*
X198255048Y-33389261D01*
X198261529Y-33385148D01*
X198308155Y-33335496D01*
X198310910Y-33332654D01*
X198330646Y-33312918D01*
X198333126Y-33309721D01*
X198340831Y-33300699D01*
X198355101Y-33285503D01*
X198371097Y-33268469D01*
X198374916Y-33261523D01*
X198374918Y-33261520D01*
X198380859Y-33250714D01*
X198391710Y-33234195D01*
X198399269Y-33224449D01*
X198404125Y-33218189D01*
X198407270Y-33210920D01*
X198407273Y-33210916D01*
X198421685Y-33177611D01*
X198426902Y-33166961D01*
X198448206Y-33128208D01*
X198453244Y-33108585D01*
X198459648Y-33089882D01*
X198464544Y-33078568D01*
X198464544Y-33078567D01*
X198467692Y-33071293D01*
X198468931Y-33063470D01*
X198468934Y-33063460D01*
X198474610Y-33027624D01*
X198477016Y-33016004D01*
X198486039Y-32980859D01*
X198486039Y-32980858D01*
X198488011Y-32973178D01*
X198488011Y-32952924D01*
X198489562Y-32933213D01*
X198491491Y-32921034D01*
X198492731Y-32913205D01*
X198488570Y-32869186D01*
X198488011Y-32857329D01*
X198488011Y-26468518D01*
X198488538Y-26457334D01*
X198490212Y-26449846D01*
X198488073Y-26381787D01*
X198488011Y-26377830D01*
X198488011Y-26349899D01*
X198487505Y-26345893D01*
X198486572Y-26334047D01*
X198485433Y-26297792D01*
X198485184Y-26289865D01*
X198479533Y-26270413D01*
X198475525Y-26251061D01*
X198473979Y-26238823D01*
X198473978Y-26238821D01*
X198472985Y-26230958D01*
X198456705Y-26189841D01*
X198452870Y-26178640D01*
X198440529Y-26136161D01*
X198436496Y-26129342D01*
X198436494Y-26129337D01*
X198430218Y-26118726D01*
X198421521Y-26100976D01*
X198414063Y-26082138D01*
X198388082Y-26046378D01*
X198381564Y-26036456D01*
X198363089Y-26005215D01*
X198363085Y-26005210D01*
X198359053Y-25998392D01*
X198344729Y-25984068D01*
X198331887Y-25969033D01*
X198327004Y-25962312D01*
X198319983Y-25952648D01*
X198289482Y-25927415D01*
X198274965Y-25912898D01*
X198272000Y-25908226D01*
X198226778Y-25865760D01*
X200775925Y-25865760D01*
X200776506Y-25870780D01*
X200776506Y-25870784D01*
X200781119Y-25910648D01*
X200804751Y-26114891D01*
X200806130Y-26119765D01*
X200806131Y-26119769D01*
X200870119Y-26345896D01*
X200873037Y-26356209D01*
X200875171Y-26360784D01*
X200875173Y-26360791D01*
X200975130Y-26575148D01*
X200979027Y-26583505D01*
X200981869Y-26587686D01*
X200981869Y-26587687D01*
X201117148Y-26786744D01*
X201117151Y-26786748D01*
X201119994Y-26790931D01*
X201123471Y-26794608D01*
X201123472Y-26794609D01*
X201223781Y-26900683D01*
X201292310Y-26973151D01*
X201296336Y-26976229D01*
X201296337Y-26976230D01*
X201487524Y-27122404D01*
X201487528Y-27122407D01*
X201491544Y-27125477D01*
X201712569Y-27243989D01*
X201717350Y-27245635D01*
X201717354Y-27245637D01*
X201909151Y-27311678D01*
X201949699Y-27325640D01*
X202053232Y-27343523D01*
X202192923Y-27367652D01*
X202192929Y-27367653D01*
X202196833Y-27368327D01*
X202200794Y-27368507D01*
X202200795Y-27368507D01*
X202225474Y-27369628D01*
X202225493Y-27369628D01*
X202226893Y-27369692D01*
X202401558Y-27369692D01*
X202404066Y-27369490D01*
X202404071Y-27369490D01*
X202583487Y-27355055D01*
X202583492Y-27355054D01*
X202588528Y-27354649D01*
X202593436Y-27353444D01*
X202593439Y-27353443D01*
X202827168Y-27296033D01*
X202832082Y-27294826D01*
X202836734Y-27292851D01*
X202836738Y-27292850D01*
X203058284Y-27198809D01*
X203058285Y-27198809D01*
X203062939Y-27196833D01*
X203275158Y-27063192D01*
X203463281Y-26897339D01*
X203622467Y-26703543D01*
X203748621Y-26486788D01*
X203750774Y-26481181D01*
X203812865Y-26319429D01*
X203838498Y-26252653D01*
X203841388Y-26238823D01*
X203888749Y-26012113D01*
X203889784Y-26007159D01*
X203890183Y-25998392D01*
X203896394Y-25861601D01*
X203901161Y-25756624D01*
X203900172Y-25748070D01*
X203885385Y-25620280D01*
X203872335Y-25507493D01*
X203867381Y-25489983D01*
X203805427Y-25271044D01*
X203805426Y-25271042D01*
X203804049Y-25266175D01*
X203801915Y-25261600D01*
X203801913Y-25261593D01*
X203700196Y-25043461D01*
X203700194Y-25043457D01*
X203698059Y-25038879D01*
X203671502Y-24999801D01*
X203559938Y-24835640D01*
X203559935Y-24835636D01*
X203557092Y-24831453D01*
X203466089Y-24735219D01*
X203388256Y-24652913D01*
X203384776Y-24649233D01*
X203339053Y-24614275D01*
X203189562Y-24499980D01*
X203189558Y-24499977D01*
X203185542Y-24496907D01*
X203177788Y-24492749D01*
X202968978Y-24380787D01*
X202964517Y-24378395D01*
X202959736Y-24376749D01*
X202959732Y-24376747D01*
X202732176Y-24298393D01*
X202727387Y-24296744D01*
X202623854Y-24278861D01*
X202484163Y-24254732D01*
X202484157Y-24254731D01*
X202480253Y-24254057D01*
X202476292Y-24253877D01*
X202476291Y-24253877D01*
X202451612Y-24252756D01*
X202451593Y-24252756D01*
X202450193Y-24252692D01*
X202275528Y-24252692D01*
X202273020Y-24252894D01*
X202273015Y-24252894D01*
X202093599Y-24267329D01*
X202093594Y-24267330D01*
X202088558Y-24267735D01*
X202083650Y-24268940D01*
X202083647Y-24268941D01*
X201851869Y-24325872D01*
X201845004Y-24327558D01*
X201840352Y-24329533D01*
X201840348Y-24329534D01*
X201719604Y-24380787D01*
X201614147Y-24425551D01*
X201532920Y-24476702D01*
X201411218Y-24553342D01*
X201401928Y-24559192D01*
X201213805Y-24725045D01*
X201054619Y-24918841D01*
X200928465Y-25135596D01*
X200926652Y-25140319D01*
X200926651Y-25140321D01*
X200924079Y-25147021D01*
X200838588Y-25369731D01*
X200837555Y-25374677D01*
X200837553Y-25374683D01*
X200814423Y-25485401D01*
X200787302Y-25615225D01*
X200787073Y-25620274D01*
X200787072Y-25620280D01*
X200782563Y-25719578D01*
X200775925Y-25865760D01*
X198226778Y-25865760D01*
X198222348Y-25861600D01*
X198219507Y-25858846D01*
X198199770Y-25839109D01*
X198196573Y-25836629D01*
X198187551Y-25828924D01*
X198161100Y-25804085D01*
X198155321Y-25798658D01*
X198148375Y-25794839D01*
X198148372Y-25794837D01*
X198137566Y-25788896D01*
X198121047Y-25778045D01*
X198120583Y-25777685D01*
X198105041Y-25765630D01*
X198097772Y-25762485D01*
X198097768Y-25762482D01*
X198064463Y-25748070D01*
X198053813Y-25742853D01*
X198015060Y-25721549D01*
X197995437Y-25716511D01*
X197976734Y-25710107D01*
X197965420Y-25705211D01*
X197965419Y-25705211D01*
X197958145Y-25702063D01*
X197950322Y-25700824D01*
X197950312Y-25700821D01*
X197914476Y-25695145D01*
X197902856Y-25692739D01*
X197867711Y-25683716D01*
X197867710Y-25683716D01*
X197860030Y-25681744D01*
X197839776Y-25681744D01*
X197820055Y-25680191D01*
X197816925Y-25679695D01*
X197779973Y-25667079D01*
X197776705Y-25664629D01*
X197640316Y-25613499D01*
X197578134Y-25606744D01*
X196651866Y-25606744D01*
X196589684Y-25613499D01*
X196453295Y-25664629D01*
X196446110Y-25670014D01*
X196446108Y-25670015D01*
X196444738Y-25671042D01*
X196427828Y-25683716D01*
X196427809Y-25683730D01*
X196361303Y-25708579D01*
X196299902Y-25697519D01*
X196244734Y-25672325D01*
X196100000Y-25651515D01*
X194486061Y-25651515D01*
X194433718Y-25640128D01*
X194402935Y-25626070D01*
X194402933Y-25626069D01*
X194394734Y-25622325D01*
X194250000Y-25601515D01*
X193630000Y-25601515D01*
X193621024Y-25602157D01*
X193563627Y-25606262D01*
X193563626Y-25606262D01*
X193556889Y-25606744D01*
X193491071Y-25626070D01*
X193425235Y-25645401D01*
X193425233Y-25645402D01*
X193416589Y-25647940D01*
X193388845Y-25665770D01*
X193301159Y-25722122D01*
X193301156Y-25722124D01*
X193293579Y-25726994D01*
X193287678Y-25733804D01*
X193203726Y-25830689D01*
X193203724Y-25830692D01*
X193197824Y-25837501D01*
X193194080Y-25845698D01*
X193194080Y-25845699D01*
X193188076Y-25858846D01*
X193137081Y-25970510D01*
X193116271Y-26115244D01*
X193116271Y-26515244D01*
X193116432Y-26517494D01*
X193120904Y-26580017D01*
X193121500Y-26588355D01*
X193123403Y-26594835D01*
X193127341Y-26608247D01*
X193131162Y-26661678D01*
X193116271Y-26765244D01*
X193116271Y-27165244D01*
X193116432Y-27167494D01*
X193118760Y-27200038D01*
X193121500Y-27238355D01*
X193123403Y-27244835D01*
X193127341Y-27258247D01*
X193131162Y-27311678D01*
X193116271Y-27415244D01*
X193116271Y-27815244D01*
X193121500Y-27888355D01*
X193123403Y-27894835D01*
X193127341Y-27908247D01*
X193131162Y-27961678D01*
X193116271Y-28065244D01*
X193116271Y-28465244D01*
X193121500Y-28538355D01*
X193162696Y-28678655D01*
X193167567Y-28686234D01*
X193236878Y-28794085D01*
X193236880Y-28794088D01*
X193241750Y-28801665D01*
X193248560Y-28807566D01*
X193345445Y-28891518D01*
X193345448Y-28891520D01*
X193352257Y-28897420D01*
X193485266Y-28958163D01*
X193630000Y-28978973D01*
X194250000Y-28978973D01*
X194281986Y-28976685D01*
X194316373Y-28974226D01*
X194316374Y-28974226D01*
X194323111Y-28973744D01*
X194458203Y-28934077D01*
X194493702Y-28928973D01*
X194720020Y-28928973D01*
X194788141Y-28948975D01*
X194834634Y-29002631D01*
X194846020Y-29054973D01*
X194846020Y-30339327D01*
X194826018Y-30407448D01*
X194772362Y-30453941D01*
X194720021Y-30465327D01*
X194506145Y-30465328D01*
X194498366Y-30465328D01*
X194495508Y-30465591D01*
X194495499Y-30465591D01*
X194459996Y-30468853D01*
X194424938Y-30472074D01*
X194418560Y-30474073D01*
X194418559Y-30474073D01*
X194268550Y-30521083D01*
X194268548Y-30521084D01*
X194261301Y-30523355D01*
X194114619Y-30612188D01*
X193993361Y-30733446D01*
X193904528Y-30880128D01*
X193853247Y-31043765D01*
X193846500Y-31117192D01*
X193846501Y-31780461D01*
X193853247Y-31853889D01*
X193855246Y-31860267D01*
X193855246Y-31860268D01*
X193897026Y-31993586D01*
X193904528Y-32017526D01*
X193993361Y-32164208D01*
X194084595Y-32255442D01*
X194118621Y-32317754D01*
X194121500Y-32344537D01*
X194121500Y-33446949D01*
X194101498Y-33515070D01*
X194084595Y-33536044D01*
X193993361Y-33627278D01*
X193904528Y-33773960D01*
X193853247Y-33937597D01*
X193846500Y-34011024D01*
X193846500Y-34288441D01*
X193845810Y-34301609D01*
X193841496Y-34342659D01*
X193842186Y-34349223D01*
X193842186Y-34349225D01*
X193845811Y-34383712D01*
X193846501Y-34396883D01*
X193846501Y-34674293D01*
X193846764Y-34677151D01*
X193846764Y-34677160D01*
X193849638Y-34708436D01*
X193853247Y-34747721D01*
X193855246Y-34754099D01*
X193855246Y-34754100D01*
X193902122Y-34903679D01*
X193904528Y-34911358D01*
X193993361Y-35058040D01*
X194114619Y-35179298D01*
X194261301Y-35268131D01*
X194268548Y-35270402D01*
X194268550Y-35270403D01*
X194334836Y-35291176D01*
X194424938Y-35319412D01*
X194498365Y-35326159D01*
X194506181Y-35326159D01*
X194720020Y-35326158D01*
X194788140Y-35346160D01*
X194834633Y-35399815D01*
X194846020Y-35452158D01*
X194846020Y-35836129D01*
X194826018Y-35904250D01*
X194809115Y-35925225D01*
X194429499Y-36304840D01*
X194367187Y-36338865D01*
X194340404Y-36341744D01*
X193531866Y-36341744D01*
X193469684Y-36348499D01*
X193333295Y-36399629D01*
X193216739Y-36486983D01*
X193129385Y-36603539D01*
X193078255Y-36739928D01*
X193071500Y-36802110D01*
X193071500Y-37712923D01*
X193051498Y-37781044D01*
X192997842Y-37827537D01*
X192938906Y-37838750D01*
X192934821Y-37838536D01*
X192928299Y-37837503D01*
X192860009Y-37841082D01*
X192853415Y-37841255D01*
X192832879Y-37841255D01*
X192829607Y-37841599D01*
X192829605Y-37841599D01*
X192812447Y-37843402D01*
X192805873Y-37843919D01*
X192744185Y-37847152D01*
X192744183Y-37847152D01*
X192737586Y-37847498D01*
X192723993Y-37851140D01*
X192704564Y-37854741D01*
X192690561Y-37856213D01*
X192625514Y-37877348D01*
X192619201Y-37879218D01*
X192598563Y-37884748D01*
X192559492Y-37895217D01*
X192559489Y-37895218D01*
X192553119Y-37896925D01*
X192540574Y-37903317D01*
X192522315Y-37910880D01*
X192508933Y-37915228D01*
X192503212Y-37918531D01*
X192449712Y-37949419D01*
X192443919Y-37952564D01*
X192421626Y-37963924D01*
X192351850Y-37977032D01*
X192286064Y-37950334D01*
X192275324Y-37940755D01*
X190930405Y-36595836D01*
X190896379Y-36533524D01*
X190893500Y-36506741D01*
X190893500Y-34254744D01*
X190913502Y-34186623D01*
X190967158Y-34140130D01*
X191019500Y-34128744D01*
X191283134Y-34128744D01*
X191345316Y-34121989D01*
X191481705Y-34070859D01*
X191598261Y-33983505D01*
X191685615Y-33866949D01*
X191736745Y-33730560D01*
X191743500Y-33668378D01*
X191743500Y-31072110D01*
X191736745Y-31009928D01*
X191685615Y-30873539D01*
X191598261Y-30756983D01*
X191481705Y-30669629D01*
X191345316Y-30618499D01*
X191283134Y-30611744D01*
X189563503Y-30611744D01*
X189495382Y-30591742D01*
X189474408Y-30574839D01*
X188930405Y-30030836D01*
X188896379Y-29968524D01*
X188893500Y-29941741D01*
X188893500Y-27946314D01*
X188913502Y-27878193D01*
X188953197Y-27839170D01*
X189017538Y-27799355D01*
X189017552Y-27799345D01*
X189021519Y-27796890D01*
X189025082Y-27793873D01*
X189025087Y-27793870D01*
X189217439Y-27631031D01*
X189217440Y-27631030D01*
X189221005Y-27628012D01*
X189251448Y-27593298D01*
X189390257Y-27435018D01*
X189390261Y-27435013D01*
X189393339Y-27431503D01*
X189534733Y-27211681D01*
X189642083Y-26973373D01*
X189678036Y-26845895D01*
X189711760Y-26726320D01*
X189711761Y-26726317D01*
X189713030Y-26721816D01*
X189724132Y-26634546D01*
X189745616Y-26465665D01*
X189745616Y-26465661D01*
X189746014Y-26462535D01*
X189746347Y-26449846D01*
X189747422Y-26408771D01*
X189748431Y-26370244D01*
X189740043Y-26257373D01*
X189729407Y-26114244D01*
X189729406Y-26114240D01*
X189729061Y-26109592D01*
X189727110Y-26100967D01*
X189672743Y-25860706D01*
X189671377Y-25854667D01*
X189651707Y-25804085D01*
X189578340Y-25615420D01*
X189578339Y-25615417D01*
X189576647Y-25611067D01*
X189446951Y-25384146D01*
X189285138Y-25178887D01*
X189094763Y-24999801D01*
X188942437Y-24894128D01*
X188883851Y-24853485D01*
X188883848Y-24853483D01*
X188880009Y-24850820D01*
X188840737Y-24831453D01*
X188649781Y-24737284D01*
X188649778Y-24737283D01*
X188645593Y-24735219D01*
X188613810Y-24725045D01*
X188401123Y-24656964D01*
X188396665Y-24655537D01*
X188138693Y-24613523D01*
X188024942Y-24612034D01*
X187882022Y-24610163D01*
X187882019Y-24610163D01*
X187877345Y-24610102D01*
X187618362Y-24645348D01*
X187613876Y-24646656D01*
X187613874Y-24646656D01*
X187585988Y-24654784D01*
X187367433Y-24718487D01*
X187363180Y-24720447D01*
X187363179Y-24720448D01*
X187326659Y-24737284D01*
X187130072Y-24827912D01*
X187091067Y-24853485D01*
X186915404Y-24968654D01*
X186915399Y-24968658D01*
X186911491Y-24971220D01*
X186716494Y-25145262D01*
X186549363Y-25346214D01*
X186546934Y-25350217D01*
X186448443Y-25512526D01*
X186413771Y-25569663D01*
X186312697Y-25810699D01*
X186248359Y-26064027D01*
X186247891Y-26068678D01*
X186247890Y-26068682D01*
X186240330Y-26143767D01*
X186222173Y-26324083D01*
X186222397Y-26328749D01*
X186222397Y-26328755D01*
X186224850Y-26379815D01*
X186234713Y-26585152D01*
X186262794Y-26726320D01*
X186263146Y-26728092D01*
X186256818Y-26798806D01*
X186228662Y-26841769D01*
X183535836Y-29534595D01*
X183473524Y-29568621D01*
X183446741Y-29571500D01*
X173136716Y-29571500D01*
X173117007Y-29569949D01*
X173103109Y-29567748D01*
X173096522Y-29568093D01*
X173096517Y-29568093D01*
X173034819Y-29571327D01*
X173028225Y-29571500D01*
X173007690Y-29571500D01*
X173001522Y-29572148D01*
X172987260Y-29573647D01*
X172980685Y-29574164D01*
X172918996Y-29577397D01*
X172918995Y-29577397D01*
X172912396Y-29577743D01*
X172898808Y-29581384D01*
X172879361Y-29584988D01*
X172871944Y-29585767D01*
X172871940Y-29585768D01*
X172865372Y-29586458D01*
X172808576Y-29604912D01*
X172800309Y-29607598D01*
X172793985Y-29609471D01*
X172734310Y-29625461D01*
X172734306Y-29625462D01*
X172727930Y-29627171D01*
X172722048Y-29630168D01*
X172715393Y-29633559D01*
X172697126Y-29641125D01*
X172690028Y-29643431D01*
X172690026Y-29643432D01*
X172683744Y-29645473D01*
X172678022Y-29648776D01*
X172678021Y-29648777D01*
X172624518Y-29679667D01*
X172618723Y-29682814D01*
X172557770Y-29713871D01*
X172552642Y-29718024D01*
X172552640Y-29718025D01*
X172546834Y-29722727D01*
X172530537Y-29733927D01*
X172524076Y-29737657D01*
X172524072Y-29737660D01*
X172518356Y-29740960D01*
X172513450Y-29745377D01*
X172513445Y-29745381D01*
X172467531Y-29786722D01*
X172462516Y-29791006D01*
X172454018Y-29797888D01*
X172446559Y-29803928D01*
X172432044Y-29818443D01*
X172427259Y-29822984D01*
X172376434Y-29868747D01*
X172372555Y-29874086D01*
X172372554Y-29874087D01*
X172368160Y-29880135D01*
X172355319Y-29895168D01*
X168270892Y-33979595D01*
X168208580Y-34013621D01*
X168181797Y-34016500D01*
X166858810Y-34016500D01*
X166790689Y-33996498D01*
X166744196Y-33942842D01*
X166733804Y-33874708D01*
X166739225Y-33831793D01*
X166757985Y-33683295D01*
X166758380Y-33655000D01*
X166739080Y-33458167D01*
X166681916Y-33268831D01*
X166589066Y-33094204D01*
X166585170Y-33089427D01*
X166584404Y-33088274D01*
X166563366Y-33020466D01*
X166579795Y-32956308D01*
X166667262Y-32802337D01*
X166672256Y-32791121D01*
X166717142Y-32656190D01*
X166717643Y-32642097D01*
X166711454Y-32639000D01*
X165617000Y-32639000D01*
X165548879Y-32618998D01*
X165502386Y-32565342D01*
X165491000Y-32513000D01*
X165491000Y-32112885D01*
X165999000Y-32112885D01*
X166003475Y-32128124D01*
X166004865Y-32129329D01*
X166012548Y-32131000D01*
X166703183Y-32131000D01*
X166716714Y-32127027D01*
X166717806Y-32119433D01*
X166683231Y-32004919D01*
X166678560Y-31993586D01*
X166591540Y-31829923D01*
X166584751Y-31819706D01*
X166467603Y-31676067D01*
X166458959Y-31667363D01*
X166316144Y-31549216D01*
X166305973Y-31542356D01*
X166142924Y-31454196D01*
X166131619Y-31449444D01*
X166016308Y-31413750D01*
X166002205Y-31413544D01*
X165999000Y-31420299D01*
X165999000Y-32112885D01*
X165491000Y-32112885D01*
X165491000Y-31427076D01*
X165487027Y-31413545D01*
X165479232Y-31412425D01*
X165371479Y-31444138D01*
X165354396Y-31451040D01*
X165353941Y-31449914D01*
X165290604Y-31462498D01*
X165237772Y-31442230D01*
X165236760Y-31444079D01*
X165228892Y-31439771D01*
X165221705Y-31434385D01*
X165085316Y-31383255D01*
X165023134Y-31376500D01*
X163926866Y-31376500D01*
X163864684Y-31383255D01*
X163728295Y-31434385D01*
X163611739Y-31521739D01*
X163524385Y-31638295D01*
X163473255Y-31774684D01*
X163466500Y-31836866D01*
X163466500Y-32933134D01*
X163473255Y-32995316D01*
X163524385Y-33131705D01*
X163529771Y-33138892D01*
X163534079Y-33146760D01*
X163531858Y-33147976D01*
X163552013Y-33201910D01*
X163542993Y-33255605D01*
X163543567Y-33255787D01*
X163541706Y-33261654D01*
X163541705Y-33261656D01*
X163510775Y-33359159D01*
X163483765Y-33444306D01*
X163461719Y-33640851D01*
X163462235Y-33646995D01*
X163472351Y-33767463D01*
X163478268Y-33837934D01*
X163488813Y-33874708D01*
X163528732Y-34013922D01*
X163532783Y-34028050D01*
X163623187Y-34203956D01*
X163627016Y-34208787D01*
X163628839Y-34211088D01*
X163629414Y-34212509D01*
X163630353Y-34213966D01*
X163630076Y-34214144D01*
X163655474Y-34276898D01*
X163642301Y-34346662D01*
X163638846Y-34352474D01*
X163543567Y-34525787D01*
X163541706Y-34531654D01*
X163541705Y-34531656D01*
X163485627Y-34708436D01*
X163483765Y-34714306D01*
X163461719Y-34910851D01*
X163462235Y-34916995D01*
X163473533Y-35051539D01*
X163478268Y-35107934D01*
X163479967Y-35113858D01*
X163524204Y-35268131D01*
X163532783Y-35298050D01*
X163623187Y-35473956D01*
X163746035Y-35628953D01*
X163750728Y-35632947D01*
X163750729Y-35632948D01*
X163797163Y-35672466D01*
X163836076Y-35731848D01*
X163841500Y-35768420D01*
X163841500Y-38410406D01*
X163821498Y-38478527D01*
X163804595Y-38499501D01*
X162609500Y-39694595D01*
X162547188Y-39728621D01*
X162520405Y-39731500D01*
X162464513Y-39731500D01*
X162458061Y-39732872D01*
X162458056Y-39732872D01*
X162371112Y-39751353D01*
X162277712Y-39771206D01*
X162271682Y-39773891D01*
X162271681Y-39773891D01*
X162109278Y-39846197D01*
X162109276Y-39846198D01*
X162103248Y-39848882D01*
X162097907Y-39852762D01*
X162097906Y-39852763D01*
X162052607Y-39885675D01*
X161948747Y-39961134D01*
X161944326Y-39966044D01*
X161944325Y-39966045D01*
X161833359Y-40089286D01*
X161820960Y-40103056D01*
X161725473Y-40268444D01*
X161666458Y-40450072D01*
X161665768Y-40456633D01*
X161665768Y-40456635D01*
X161655842Y-40551077D01*
X161646496Y-40640000D01*
X161666458Y-40829928D01*
X161725473Y-41011556D01*
X161820960Y-41176944D01*
X161825378Y-41181851D01*
X161825379Y-41181852D01*
X161928524Y-41296406D01*
X161948747Y-41318866D01*
X162103248Y-41431118D01*
X162109276Y-41433802D01*
X162109278Y-41433803D01*
X162271681Y-41506109D01*
X162277712Y-41508794D01*
X162359643Y-41526209D01*
X162458056Y-41547128D01*
X162458061Y-41547128D01*
X162464513Y-41548500D01*
X162655487Y-41548500D01*
X162661939Y-41547128D01*
X162661944Y-41547128D01*
X162760357Y-41526209D01*
X162842288Y-41508794D01*
X162848319Y-41506109D01*
X163010722Y-41433803D01*
X163010724Y-41433802D01*
X163016752Y-41431118D01*
X163107994Y-41364827D01*
X163170481Y-41319427D01*
X163176551Y-41317261D01*
X163190780Y-41297179D01*
X163294621Y-41181852D01*
X163294622Y-41181851D01*
X163299040Y-41176944D01*
X163394527Y-41011556D01*
X163453542Y-40829928D01*
X163470907Y-40664708D01*
X163497920Y-40599051D01*
X163507122Y-40588782D01*
X164185581Y-39910324D01*
X164247893Y-39876299D01*
X164318709Y-39881364D01*
X164368311Y-39915109D01*
X164488747Y-40048866D01*
X164546909Y-40091123D01*
X164590262Y-40147344D01*
X164596338Y-40218080D01*
X164561942Y-40282153D01*
X163373511Y-41470584D01*
X163350147Y-41483342D01*
X163344322Y-41498304D01*
X163333637Y-41510458D01*
X162637747Y-42206348D01*
X162629461Y-42213888D01*
X162622982Y-42218000D01*
X162617557Y-42223777D01*
X162576357Y-42267651D01*
X162573602Y-42270493D01*
X162553865Y-42290230D01*
X162551385Y-42293427D01*
X162543682Y-42302447D01*
X162513414Y-42334679D01*
X162509595Y-42341625D01*
X162509593Y-42341628D01*
X162503652Y-42352434D01*
X162492801Y-42368953D01*
X162480386Y-42384959D01*
X162477241Y-42392228D01*
X162477238Y-42392232D01*
X162462826Y-42425537D01*
X162457609Y-42436187D01*
X162436305Y-42474940D01*
X162434334Y-42482615D01*
X162434334Y-42482616D01*
X162431267Y-42494562D01*
X162424863Y-42513266D01*
X162416819Y-42531855D01*
X162415580Y-42539678D01*
X162415577Y-42539688D01*
X162409901Y-42575524D01*
X162407495Y-42587144D01*
X162396500Y-42629970D01*
X162396500Y-42650224D01*
X162394949Y-42669934D01*
X162391780Y-42689943D01*
X162392526Y-42697835D01*
X162395941Y-42733961D01*
X162396500Y-42745819D01*
X162396500Y-42900500D01*
X162376498Y-42968621D01*
X162322842Y-43015114D01*
X162270500Y-43026500D01*
X161715469Y-43026500D01*
X161647348Y-43006498D01*
X161600855Y-42952842D01*
X161589469Y-42900500D01*
X161589469Y-41654736D01*
X161589996Y-41643553D01*
X161591671Y-41636060D01*
X161590735Y-41606267D01*
X161589531Y-41567983D01*
X161589469Y-41564024D01*
X161589469Y-41536113D01*
X161588964Y-41532113D01*
X161588031Y-41520270D01*
X161587892Y-41515826D01*
X161586642Y-41476080D01*
X161580990Y-41456626D01*
X161576982Y-41437269D01*
X161575437Y-41425039D01*
X161575437Y-41425038D01*
X161574443Y-41417172D01*
X161571524Y-41409799D01*
X161558165Y-41376057D01*
X161554320Y-41364827D01*
X161544198Y-41329986D01*
X161544198Y-41329985D01*
X161541987Y-41322376D01*
X161537954Y-41315557D01*
X161537952Y-41315552D01*
X161531676Y-41304941D01*
X161522981Y-41287193D01*
X161515521Y-41268352D01*
X161489533Y-41232582D01*
X161483017Y-41222662D01*
X161464549Y-41191434D01*
X161464547Y-41191431D01*
X161460511Y-41184607D01*
X161446190Y-41170286D01*
X161433349Y-41155252D01*
X161426100Y-41145275D01*
X161421441Y-41138862D01*
X161415336Y-41133811D01*
X161415331Y-41133806D01*
X161387371Y-41110675D01*
X161378593Y-41102688D01*
X160967122Y-40691218D01*
X160933097Y-40628905D01*
X160930907Y-40615292D01*
X160914232Y-40456635D01*
X160914232Y-40456633D01*
X160913542Y-40450072D01*
X160854527Y-40268444D01*
X160759040Y-40103056D01*
X160746642Y-40089286D01*
X160635675Y-39966045D01*
X160635674Y-39966044D01*
X160631253Y-39961134D01*
X160527393Y-39885675D01*
X160482094Y-39852763D01*
X160482093Y-39852762D01*
X160476752Y-39848882D01*
X160470724Y-39846198D01*
X160470722Y-39846197D01*
X160308319Y-39773891D01*
X160308318Y-39773891D01*
X160302288Y-39771206D01*
X160208888Y-39751353D01*
X160121944Y-39732872D01*
X160121939Y-39732872D01*
X160115487Y-39731500D01*
X159924513Y-39731500D01*
X159918061Y-39732872D01*
X159918056Y-39732872D01*
X159831112Y-39751353D01*
X159737712Y-39771206D01*
X159731682Y-39773891D01*
X159731681Y-39773891D01*
X159569278Y-39846197D01*
X159569276Y-39846198D01*
X159563248Y-39848882D01*
X159557907Y-39852762D01*
X159557906Y-39852763D01*
X159512607Y-39885675D01*
X159408747Y-39961134D01*
X159404326Y-39966044D01*
X159404325Y-39966045D01*
X159293359Y-40089286D01*
X159280960Y-40103056D01*
X159185473Y-40268444D01*
X159126458Y-40450072D01*
X159125768Y-40456633D01*
X159125768Y-40456635D01*
X159115842Y-40551077D01*
X159106496Y-40640000D01*
X156718500Y-40640000D01*
X156718500Y-26089568D01*
X157822382Y-26089568D01*
X157822963Y-26094588D01*
X157822963Y-26094592D01*
X157827773Y-26136161D01*
X157851208Y-26338699D01*
X157852587Y-26343573D01*
X157852588Y-26343577D01*
X157900526Y-26512987D01*
X157919494Y-26580017D01*
X157921628Y-26584592D01*
X157921630Y-26584599D01*
X158017845Y-26790931D01*
X158025484Y-26807313D01*
X158028326Y-26811494D01*
X158028326Y-26811495D01*
X158163605Y-27010552D01*
X158163608Y-27010556D01*
X158166451Y-27014739D01*
X158169928Y-27018416D01*
X158169929Y-27018417D01*
X158268264Y-27122404D01*
X158338767Y-27196959D01*
X158342793Y-27200037D01*
X158342794Y-27200038D01*
X158533981Y-27346212D01*
X158533985Y-27346215D01*
X158538001Y-27349285D01*
X158542459Y-27351675D01*
X158542460Y-27351676D01*
X158548005Y-27354649D01*
X158759026Y-27467797D01*
X158763807Y-27469443D01*
X158763811Y-27469445D01*
X158989538Y-27547169D01*
X158996156Y-27549448D01*
X159099689Y-27567331D01*
X159239380Y-27591460D01*
X159239386Y-27591461D01*
X159243290Y-27592135D01*
X159247251Y-27592315D01*
X159247252Y-27592315D01*
X159271931Y-27593436D01*
X159271950Y-27593436D01*
X159273350Y-27593500D01*
X159448015Y-27593500D01*
X159450523Y-27593298D01*
X159450528Y-27593298D01*
X159629944Y-27578863D01*
X159629949Y-27578862D01*
X159634985Y-27578457D01*
X159639893Y-27577252D01*
X159639896Y-27577251D01*
X159873625Y-27519841D01*
X159878539Y-27518634D01*
X159883191Y-27516659D01*
X159883195Y-27516658D01*
X160104741Y-27422617D01*
X160104742Y-27422617D01*
X160109396Y-27420641D01*
X160266860Y-27321481D01*
X160317334Y-27289696D01*
X160317335Y-27289695D01*
X160321615Y-27287000D01*
X160509738Y-27121147D01*
X160668924Y-26927351D01*
X160795078Y-26710596D01*
X160797786Y-26703543D01*
X160880991Y-26486788D01*
X160884955Y-26476461D01*
X160886615Y-26468518D01*
X160916788Y-26324083D01*
X174022173Y-26324083D01*
X174022397Y-26328749D01*
X174022397Y-26328755D01*
X174024850Y-26379815D01*
X174034713Y-26585152D01*
X174085704Y-26841500D01*
X174174026Y-27087496D01*
X174176242Y-27091620D01*
X174285428Y-27294826D01*
X174297737Y-27317735D01*
X174300532Y-27321478D01*
X174300534Y-27321481D01*
X174451330Y-27523421D01*
X174451335Y-27523427D01*
X174454122Y-27527159D01*
X174457431Y-27530439D01*
X174457436Y-27530445D01*
X174636426Y-27707879D01*
X174639743Y-27711167D01*
X174643505Y-27713925D01*
X174643508Y-27713928D01*
X174814317Y-27839170D01*
X174850524Y-27865718D01*
X174854667Y-27867898D01*
X174854669Y-27867899D01*
X175077684Y-27985233D01*
X175077689Y-27985235D01*
X175081834Y-27987416D01*
X175220254Y-28035755D01*
X175317600Y-28069750D01*
X175328590Y-28073588D01*
X175333183Y-28074460D01*
X175580785Y-28121468D01*
X175580788Y-28121468D01*
X175585374Y-28122339D01*
X175715958Y-28127470D01*
X175841875Y-28132418D01*
X175841881Y-28132418D01*
X175846543Y-28132601D01*
X175925977Y-28123901D01*
X176101707Y-28104656D01*
X176101712Y-28104655D01*
X176106360Y-28104146D01*
X176219116Y-28074460D01*
X176354594Y-28038792D01*
X176354596Y-28038791D01*
X176359117Y-28037601D01*
X176599262Y-27934426D01*
X176821519Y-27796890D01*
X176825082Y-27793873D01*
X176825087Y-27793870D01*
X177017439Y-27631031D01*
X177017440Y-27631030D01*
X177021005Y-27628012D01*
X177051448Y-27593298D01*
X177190257Y-27435018D01*
X177190261Y-27435013D01*
X177193339Y-27431503D01*
X177334733Y-27211681D01*
X177442083Y-26973373D01*
X177478036Y-26845895D01*
X177511760Y-26726320D01*
X177511761Y-26726317D01*
X177513030Y-26721816D01*
X177524132Y-26634546D01*
X177545616Y-26465665D01*
X177545616Y-26465661D01*
X177546014Y-26462535D01*
X177546347Y-26449846D01*
X177547422Y-26408771D01*
X177548431Y-26370244D01*
X177540043Y-26257373D01*
X177529407Y-26114244D01*
X177529406Y-26114240D01*
X177529061Y-26109592D01*
X177527110Y-26100967D01*
X177472743Y-25860706D01*
X177471377Y-25854667D01*
X177451707Y-25804085D01*
X177378340Y-25615420D01*
X177378339Y-25615417D01*
X177376647Y-25611067D01*
X177246951Y-25384146D01*
X177085138Y-25178887D01*
X176894763Y-24999801D01*
X176742437Y-24894128D01*
X176683851Y-24853485D01*
X176683848Y-24853483D01*
X176680009Y-24850820D01*
X176640737Y-24831453D01*
X176449781Y-24737284D01*
X176449778Y-24737283D01*
X176445593Y-24735219D01*
X176413810Y-24725045D01*
X176201123Y-24656964D01*
X176196665Y-24655537D01*
X175938693Y-24613523D01*
X175824942Y-24612034D01*
X175682022Y-24610163D01*
X175682019Y-24610163D01*
X175677345Y-24610102D01*
X175418362Y-24645348D01*
X175413876Y-24646656D01*
X175413874Y-24646656D01*
X175385988Y-24654784D01*
X175167433Y-24718487D01*
X175163180Y-24720447D01*
X175163179Y-24720448D01*
X175126659Y-24737284D01*
X174930072Y-24827912D01*
X174891067Y-24853485D01*
X174715404Y-24968654D01*
X174715399Y-24968658D01*
X174711491Y-24971220D01*
X174516494Y-25145262D01*
X174349363Y-25346214D01*
X174346934Y-25350217D01*
X174248443Y-25512526D01*
X174213771Y-25569663D01*
X174112697Y-25810699D01*
X174048359Y-26064027D01*
X174047891Y-26068678D01*
X174047890Y-26068682D01*
X174040330Y-26143767D01*
X174022173Y-26324083D01*
X160916788Y-26324083D01*
X160935206Y-26235921D01*
X160936241Y-26230967D01*
X160936577Y-26223588D01*
X160942722Y-26088250D01*
X160947618Y-25980432D01*
X160945522Y-25962312D01*
X160930292Y-25830689D01*
X160918792Y-25731301D01*
X160917113Y-25725365D01*
X160851884Y-25494852D01*
X160851883Y-25494850D01*
X160850506Y-25489983D01*
X160848372Y-25485408D01*
X160848370Y-25485401D01*
X160746653Y-25267269D01*
X160746651Y-25267265D01*
X160744516Y-25262687D01*
X160690058Y-25182555D01*
X160606395Y-25059448D01*
X160606392Y-25059444D01*
X160603549Y-25055261D01*
X160502925Y-24948853D01*
X160434713Y-24876721D01*
X160431233Y-24873041D01*
X160402169Y-24850820D01*
X160236019Y-24723788D01*
X160236015Y-24723785D01*
X160231999Y-24720715D01*
X160010974Y-24602203D01*
X160006193Y-24600557D01*
X160006189Y-24600555D01*
X159778633Y-24522201D01*
X159773844Y-24520552D01*
X159636953Y-24496907D01*
X159530620Y-24478540D01*
X159530614Y-24478539D01*
X159526710Y-24477865D01*
X159522749Y-24477685D01*
X159522748Y-24477685D01*
X159498069Y-24476564D01*
X159498050Y-24476564D01*
X159496650Y-24476500D01*
X159321985Y-24476500D01*
X159319477Y-24476702D01*
X159319472Y-24476702D01*
X159140056Y-24491137D01*
X159140051Y-24491138D01*
X159135015Y-24491543D01*
X159130107Y-24492748D01*
X159130104Y-24492749D01*
X158898326Y-24549680D01*
X158891461Y-24551366D01*
X158886809Y-24553341D01*
X158886805Y-24553342D01*
X158666972Y-24646656D01*
X158660604Y-24649359D01*
X158448385Y-24783000D01*
X158260262Y-24948853D01*
X158101076Y-25142649D01*
X157974922Y-25359404D01*
X157973109Y-25364127D01*
X157973108Y-25364129D01*
X157945961Y-25434849D01*
X157885045Y-25593539D01*
X157884012Y-25598485D01*
X157884010Y-25598491D01*
X157848079Y-25770486D01*
X157833759Y-25839033D01*
X157833530Y-25844082D01*
X157833529Y-25844088D01*
X157828829Y-25947594D01*
X157822382Y-26089568D01*
X156718500Y-26089568D01*
X156718500Y-26088250D01*
X156720246Y-26067345D01*
X156722770Y-26052344D01*
X156722770Y-26052341D01*
X156723576Y-26047552D01*
X156723729Y-26035000D01*
X156723040Y-26030190D01*
X156723039Y-26030172D01*
X156721751Y-26021181D01*
X156720676Y-25996254D01*
X156728627Y-25854667D01*
X156734869Y-25743508D01*
X156736451Y-25729471D01*
X156742284Y-25695145D01*
X156773312Y-25512526D01*
X156784170Y-25448624D01*
X156787314Y-25434849D01*
X156866177Y-25161109D01*
X156870844Y-25147772D01*
X156979861Y-24884582D01*
X156985992Y-24871852D01*
X157123786Y-24622532D01*
X157131303Y-24610568D01*
X157263981Y-24423575D01*
X157296150Y-24378236D01*
X157304959Y-24367190D01*
X157406062Y-24254057D01*
X157494785Y-24154776D01*
X157504776Y-24144785D01*
X157717190Y-23954959D01*
X157728238Y-23946149D01*
X157960568Y-23781303D01*
X157972532Y-23773786D01*
X158221852Y-23635992D01*
X158234582Y-23629861D01*
X158497772Y-23520844D01*
X158511109Y-23516177D01*
X158784849Y-23437314D01*
X158798624Y-23434170D01*
X158939047Y-23410311D01*
X159079476Y-23386450D01*
X159093510Y-23384869D01*
X159162593Y-23380990D01*
X159342593Y-23370882D01*
X159369036Y-23372183D01*
X159369849Y-23372310D01*
X159369855Y-23372310D01*
X159378724Y-23373691D01*
X159387626Y-23372527D01*
X159387628Y-23372527D01*
X159402677Y-23370559D01*
X159410286Y-23369564D01*
X159426621Y-23368500D01*
X201880633Y-23368500D01*
X201900018Y-23370000D01*
G37*
%TD.AperFunction*%
%TA.AperFunction,Conductor*%
G36*
X197163132Y-61962459D02*
G01*
X197209625Y-62016115D01*
X197221011Y-62068457D01*
X197221011Y-66335654D01*
X197201009Y-66403775D01*
X197147353Y-66450268D01*
X197077079Y-66460372D01*
X197029740Y-66443430D01*
X196904992Y-66367880D01*
X196891243Y-66361672D01*
X196741356Y-66314701D01*
X196728306Y-66312088D01*
X196673414Y-66307044D01*
X196661876Y-66310432D01*
X196660671Y-66311822D01*
X196659000Y-66319505D01*
X196659000Y-68253841D01*
X196663475Y-68269080D01*
X196664865Y-68270285D01*
X196669294Y-68271248D01*
X196728315Y-68265825D01*
X196747903Y-68261902D01*
X196748365Y-68264210D01*
X196808542Y-68263129D01*
X196868947Y-68300435D01*
X196899595Y-68364476D01*
X196890754Y-68434920D01*
X196864315Y-68473737D01*
X196529499Y-68808553D01*
X196467187Y-68842578D01*
X196440404Y-68845457D01*
X196166386Y-68845458D01*
X196148366Y-68845458D01*
X196145508Y-68845721D01*
X196145499Y-68845721D01*
X196109996Y-68848983D01*
X196074938Y-68852204D01*
X196068560Y-68854203D01*
X196068559Y-68854203D01*
X195918550Y-68901213D01*
X195918548Y-68901214D01*
X195911301Y-68903485D01*
X195764619Y-68992318D01*
X195669095Y-69087842D01*
X195606783Y-69121868D01*
X195535968Y-69116803D01*
X195490905Y-69087842D01*
X195425405Y-69022342D01*
X195391379Y-68960030D01*
X195388500Y-68933247D01*
X195388500Y-68184667D01*
X195408502Y-68116546D01*
X195425405Y-68095572D01*
X195491259Y-68029718D01*
X195553571Y-67995692D01*
X195624386Y-68000757D01*
X195669449Y-68029718D01*
X195759557Y-68119826D01*
X195771426Y-68129133D01*
X195905012Y-68210036D01*
X195918757Y-68216242D01*
X196068644Y-68263213D01*
X196081694Y-68265826D01*
X196136586Y-68270870D01*
X196148124Y-68267482D01*
X196149329Y-68266092D01*
X196151000Y-68258409D01*
X196151000Y-66324073D01*
X196146525Y-66308834D01*
X196145135Y-66307629D01*
X196140706Y-66306666D01*
X196081685Y-66312089D01*
X196068649Y-66314700D01*
X195918757Y-66361672D01*
X195905012Y-66367878D01*
X195771426Y-66448781D01*
X195759557Y-66458088D01*
X195669449Y-66548196D01*
X195607137Y-66582222D01*
X195536322Y-66577157D01*
X195491259Y-66548196D01*
X195395381Y-66452318D01*
X195248699Y-66363485D01*
X195241452Y-66361214D01*
X195241450Y-66361213D01*
X195175164Y-66340440D01*
X195085062Y-66312204D01*
X195011635Y-66305457D01*
X195008737Y-66305457D01*
X194754335Y-66305458D01*
X194498366Y-66305458D01*
X194495508Y-66305721D01*
X194495499Y-66305721D01*
X194461619Y-66308834D01*
X194424938Y-66312204D01*
X194418560Y-66314203D01*
X194418559Y-66314203D01*
X194268550Y-66361213D01*
X194268548Y-66361214D01*
X194261301Y-66363485D01*
X194114619Y-66452318D01*
X193993361Y-66573576D01*
X193904528Y-66720258D01*
X193902257Y-66727505D01*
X193902256Y-66727507D01*
X193895060Y-66750469D01*
X193853247Y-66883895D01*
X193846500Y-66957322D01*
X193846501Y-67620591D01*
X193853247Y-67694019D01*
X193855246Y-67700397D01*
X193855246Y-67700398D01*
X193901426Y-67847756D01*
X193904528Y-67857656D01*
X193993361Y-68004338D01*
X194084595Y-68095572D01*
X194118621Y-68157884D01*
X194121500Y-68184667D01*
X194121500Y-68933247D01*
X194101498Y-69001368D01*
X194084595Y-69022342D01*
X193993361Y-69113576D01*
X193904528Y-69260258D01*
X193853247Y-69423895D01*
X193846500Y-69497322D01*
X193846501Y-70160591D01*
X193846764Y-70163449D01*
X193846764Y-70163458D01*
X193850026Y-70198961D01*
X193853247Y-70234019D01*
X193855246Y-70240397D01*
X193855246Y-70240398D01*
X193901336Y-70387469D01*
X193904528Y-70397656D01*
X193908463Y-70404153D01*
X193932887Y-70444483D01*
X193951065Y-70513113D01*
X193929254Y-70580676D01*
X193914205Y-70598848D01*
X193615964Y-70897089D01*
X193553652Y-70931115D01*
X193482837Y-70926050D01*
X193426001Y-70883503D01*
X193401559Y-70821164D01*
X193383553Y-70649841D01*
X193383553Y-70649839D01*
X193382863Y-70643278D01*
X193323848Y-70461650D01*
X193311185Y-70439716D01*
X193231662Y-70301980D01*
X193228361Y-70296262D01*
X193178066Y-70240403D01*
X193104996Y-70159251D01*
X193104995Y-70159250D01*
X193100574Y-70154340D01*
X193083183Y-70141704D01*
X192947975Y-70043470D01*
X192904621Y-69987248D01*
X192896036Y-69941534D01*
X192896036Y-64816401D01*
X192916038Y-64748280D01*
X192932941Y-64727306D01*
X193725656Y-63934591D01*
X193787968Y-63900565D01*
X193814751Y-63897686D01*
X194250000Y-63897686D01*
X194281986Y-63895398D01*
X194316373Y-63892939D01*
X194316374Y-63892939D01*
X194323111Y-63892457D01*
X194458203Y-63852790D01*
X194493702Y-63847686D01*
X196100000Y-63847686D01*
X196131986Y-63845398D01*
X196166373Y-63842939D01*
X196166374Y-63842939D01*
X196173111Y-63842457D01*
X196313411Y-63801261D01*
X196313842Y-63802729D01*
X196374288Y-63794037D01*
X196431924Y-63817930D01*
X196446351Y-63828743D01*
X196461946Y-63837281D01*
X196582394Y-63882435D01*
X196597649Y-63886062D01*
X196648514Y-63891588D01*
X196655328Y-63891957D01*
X196896885Y-63891957D01*
X196912124Y-63887482D01*
X196913329Y-63886092D01*
X196915000Y-63878409D01*
X196915000Y-62068457D01*
X196935002Y-62000336D01*
X196988658Y-61953843D01*
X197041000Y-61942457D01*
X197095011Y-61942457D01*
X197163132Y-61962459D01*
G37*
%TD.AperFunction*%
%TA.AperFunction,Conductor*%
G36*
X186994532Y-28749691D02*
G01*
X187051368Y-28792238D01*
X187076179Y-28858758D01*
X187076500Y-28867747D01*
X187076500Y-30288827D01*
X187074949Y-30308536D01*
X187072748Y-30322434D01*
X187073093Y-30329021D01*
X187073093Y-30329026D01*
X187076327Y-30390724D01*
X187076500Y-30397318D01*
X187076500Y-30417854D01*
X187076844Y-30421126D01*
X187076844Y-30421128D01*
X187078647Y-30438286D01*
X187079164Y-30444860D01*
X187080498Y-30470302D01*
X187082743Y-30513147D01*
X187084453Y-30519528D01*
X187084453Y-30519530D01*
X187086383Y-30526735D01*
X187089985Y-30546169D01*
X187090766Y-30553598D01*
X187090768Y-30553607D01*
X187091458Y-30560172D01*
X187112600Y-30625241D01*
X187114467Y-30631543D01*
X187132171Y-30697614D01*
X187138559Y-30710151D01*
X187146125Y-30728418D01*
X187147759Y-30733446D01*
X187150473Y-30741800D01*
X187153776Y-30747522D01*
X187153777Y-30747523D01*
X187184667Y-30801026D01*
X187187814Y-30806821D01*
X187218871Y-30867774D01*
X187223024Y-30872902D01*
X187223025Y-30872904D01*
X187227727Y-30878710D01*
X187238927Y-30895007D01*
X187242657Y-30901468D01*
X187242660Y-30901472D01*
X187245960Y-30907188D01*
X187250377Y-30912094D01*
X187250381Y-30912099D01*
X187291722Y-30958013D01*
X187296006Y-30963028D01*
X187308928Y-30978985D01*
X187323443Y-30993500D01*
X187327984Y-30998285D01*
X187373747Y-31049110D01*
X187379086Y-31052989D01*
X187379087Y-31052990D01*
X187385135Y-31057384D01*
X187400168Y-31070225D01*
X188189595Y-31859652D01*
X188223621Y-31921964D01*
X188226500Y-31948747D01*
X188226500Y-33668378D01*
X188233255Y-33730560D01*
X188284385Y-33866949D01*
X188371739Y-33983505D01*
X188488295Y-34070859D01*
X188624684Y-34121989D01*
X188686866Y-34128744D01*
X188950500Y-34128744D01*
X189018621Y-34148746D01*
X189065114Y-34202402D01*
X189076500Y-34254744D01*
X189076500Y-36746510D01*
X189056498Y-36814631D01*
X189002842Y-36861124D01*
X188932568Y-36871228D01*
X188886551Y-36855076D01*
X188883853Y-36853487D01*
X188880009Y-36850820D01*
X188875815Y-36848752D01*
X188875812Y-36848750D01*
X188649781Y-36737284D01*
X188649778Y-36737283D01*
X188645593Y-36735219D01*
X188637190Y-36732529D01*
X188401123Y-36656964D01*
X188396665Y-36655537D01*
X188138693Y-36613523D01*
X188024942Y-36612034D01*
X187882022Y-36610163D01*
X187882019Y-36610163D01*
X187877345Y-36610102D01*
X187618362Y-36645348D01*
X187367433Y-36718487D01*
X187363180Y-36720447D01*
X187363179Y-36720448D01*
X187326659Y-36737284D01*
X187130072Y-36827912D01*
X187091067Y-36853485D01*
X186915404Y-36968654D01*
X186915399Y-36968658D01*
X186911491Y-36971220D01*
X186716494Y-37145262D01*
X186549363Y-37346214D01*
X186546934Y-37350217D01*
X186418585Y-37561730D01*
X186413771Y-37569663D01*
X186312697Y-37810699D01*
X186248359Y-38064027D01*
X186222173Y-38324083D01*
X186234713Y-38585152D01*
X186285704Y-38841500D01*
X186374026Y-39087496D01*
X186376242Y-39091620D01*
X186440753Y-39211681D01*
X186497737Y-39317735D01*
X186500532Y-39321478D01*
X186500534Y-39321481D01*
X186651330Y-39523421D01*
X186651335Y-39523427D01*
X186654122Y-39527159D01*
X186657431Y-39530439D01*
X186657436Y-39530445D01*
X186789111Y-39660975D01*
X186839743Y-39711167D01*
X186843505Y-39713925D01*
X186843508Y-39713928D01*
X187040793Y-39858583D01*
X187050524Y-39865718D01*
X187054667Y-39867898D01*
X187054669Y-39867899D01*
X187277684Y-39985233D01*
X187277689Y-39985235D01*
X187281834Y-39987416D01*
X187528590Y-40073588D01*
X187533183Y-40074460D01*
X187780785Y-40121468D01*
X187780788Y-40121468D01*
X187785374Y-40122339D01*
X187915958Y-40127470D01*
X188041875Y-40132418D01*
X188041881Y-40132418D01*
X188046543Y-40132601D01*
X188130976Y-40123354D01*
X188301707Y-40104656D01*
X188301712Y-40104655D01*
X188306360Y-40104146D01*
X188419116Y-40074460D01*
X188554594Y-40038792D01*
X188554596Y-40038791D01*
X188559117Y-40037601D01*
X188799262Y-39934426D01*
X188856863Y-39898782D01*
X189017547Y-39799348D01*
X189017548Y-39799348D01*
X189021519Y-39796890D01*
X189025082Y-39793873D01*
X189025087Y-39793870D01*
X189217439Y-39631031D01*
X189217440Y-39631030D01*
X189221005Y-39628012D01*
X189255797Y-39588339D01*
X189390257Y-39435018D01*
X189390261Y-39435013D01*
X189393339Y-39431503D01*
X189398493Y-39423491D01*
X189532205Y-39215611D01*
X189534733Y-39211681D01*
X189642083Y-38973373D01*
X189713030Y-38721816D01*
X189729832Y-38589740D01*
X189745616Y-38465665D01*
X189745616Y-38465661D01*
X189746014Y-38462535D01*
X189748431Y-38370244D01*
X189744655Y-38319429D01*
X189742525Y-38290763D01*
X189757424Y-38221347D01*
X189807487Y-38171006D01*
X189876819Y-38155723D01*
X189943408Y-38180349D01*
X189957274Y-38192331D01*
X191290970Y-39526027D01*
X191324996Y-39588339D01*
X191319931Y-39659154D01*
X191290970Y-39704217D01*
X188457983Y-42537204D01*
X188395671Y-42571230D01*
X188348636Y-42572471D01*
X188138693Y-42538279D01*
X188024942Y-42536790D01*
X187882022Y-42534919D01*
X187882019Y-42534919D01*
X187877345Y-42534858D01*
X187618362Y-42570104D01*
X187613876Y-42571412D01*
X187613874Y-42571412D01*
X187585988Y-42579540D01*
X187367433Y-42643243D01*
X187363180Y-42645203D01*
X187363179Y-42645204D01*
X187330776Y-42660142D01*
X187130072Y-42752668D01*
X187091067Y-42778241D01*
X186915404Y-42893410D01*
X186915399Y-42893414D01*
X186911491Y-42895976D01*
X186716494Y-43070018D01*
X186549363Y-43270970D01*
X186546934Y-43274973D01*
X186416281Y-43490283D01*
X186413771Y-43494419D01*
X186312697Y-43735455D01*
X186248359Y-43988783D01*
X186222173Y-44248839D01*
X186222397Y-44253505D01*
X186222397Y-44253511D01*
X186227380Y-44357250D01*
X186234713Y-44509908D01*
X186285704Y-44766256D01*
X186374026Y-45012252D01*
X186376242Y-45016376D01*
X186440753Y-45136437D01*
X186497737Y-45242491D01*
X186500532Y-45246234D01*
X186500534Y-45246237D01*
X186651330Y-45448177D01*
X186651335Y-45448183D01*
X186654122Y-45451915D01*
X186657431Y-45455195D01*
X186657436Y-45455201D01*
X186836426Y-45632635D01*
X186839743Y-45635923D01*
X186843505Y-45638681D01*
X186843508Y-45638684D01*
X187025005Y-45771763D01*
X187068113Y-45828174D01*
X187076500Y-45873375D01*
X187076500Y-48213583D01*
X187074949Y-48233292D01*
X187072748Y-48247190D01*
X187073093Y-48253777D01*
X187073093Y-48253782D01*
X187076327Y-48315480D01*
X187076500Y-48322074D01*
X187076500Y-48342610D01*
X187076844Y-48345882D01*
X187076844Y-48345884D01*
X187078647Y-48363042D01*
X187079164Y-48369616D01*
X187082743Y-48437903D01*
X187084453Y-48444284D01*
X187084453Y-48444286D01*
X187086383Y-48451491D01*
X187089985Y-48470925D01*
X187090766Y-48478354D01*
X187090768Y-48478363D01*
X187091458Y-48484928D01*
X187112600Y-48549997D01*
X187114467Y-48556299D01*
X187132171Y-48622370D01*
X187138559Y-48634907D01*
X187146125Y-48653173D01*
X187150473Y-48666556D01*
X187153776Y-48672278D01*
X187153777Y-48672279D01*
X187184667Y-48725782D01*
X187187814Y-48731577D01*
X187218871Y-48792530D01*
X187223024Y-48797658D01*
X187223025Y-48797660D01*
X187227727Y-48803466D01*
X187238927Y-48819763D01*
X187242657Y-48826224D01*
X187242660Y-48826228D01*
X187245960Y-48831944D01*
X187250377Y-48836850D01*
X187250381Y-48836855D01*
X187291722Y-48882769D01*
X187296006Y-48887784D01*
X187308928Y-48903741D01*
X187323443Y-48918256D01*
X187327984Y-48923041D01*
X187373747Y-48973866D01*
X187379086Y-48977745D01*
X187379087Y-48977746D01*
X187385135Y-48982140D01*
X187400168Y-48994981D01*
X188189595Y-49784408D01*
X188223621Y-49846720D01*
X188226500Y-49873503D01*
X188226500Y-51593134D01*
X188233255Y-51655316D01*
X188284385Y-51791705D01*
X188371739Y-51908261D01*
X188488295Y-51995615D01*
X188624684Y-52046745D01*
X188686866Y-52053500D01*
X189075914Y-52053500D01*
X189144035Y-52073502D01*
X189188181Y-52122298D01*
X189215872Y-52176646D01*
X189215876Y-52176653D01*
X189218871Y-52182530D01*
X189223024Y-52187658D01*
X189223025Y-52187660D01*
X189227727Y-52193466D01*
X189238927Y-52209763D01*
X189242657Y-52216224D01*
X189242660Y-52216228D01*
X189245960Y-52221944D01*
X189250377Y-52226850D01*
X189250381Y-52226855D01*
X189291722Y-52272769D01*
X189296006Y-52277784D01*
X189308928Y-52293741D01*
X189323443Y-52308256D01*
X189327984Y-52313041D01*
X189373747Y-52363866D01*
X189379086Y-52367745D01*
X189379087Y-52367746D01*
X189385135Y-52372140D01*
X189400168Y-52384981D01*
X193171592Y-56156405D01*
X193205618Y-56218717D01*
X193200553Y-56289532D01*
X193158006Y-56346368D01*
X193091486Y-56371179D01*
X193082497Y-56371500D01*
X192166159Y-56371500D01*
X192125782Y-56380082D01*
X192112774Y-56382143D01*
X192093821Y-56384135D01*
X192078281Y-56385768D01*
X192078279Y-56385768D01*
X192071718Y-56386458D01*
X192065444Y-56388497D01*
X192065437Y-56388498D01*
X192032463Y-56399212D01*
X192019726Y-56402625D01*
X191985815Y-56409833D01*
X191985811Y-56409834D01*
X191979358Y-56411206D01*
X191941640Y-56427999D01*
X191929342Y-56432719D01*
X191901693Y-56441703D01*
X191890090Y-56445473D01*
X191861101Y-56462210D01*
X191854356Y-56466104D01*
X191842607Y-56472091D01*
X191804894Y-56488882D01*
X191799555Y-56492761D01*
X191799550Y-56492764D01*
X191771497Y-56513146D01*
X191760444Y-56520325D01*
X191724702Y-56540960D01*
X191719793Y-56545380D01*
X191719789Y-56545383D01*
X191694032Y-56568575D01*
X191683789Y-56576871D01*
X191650393Y-56601134D01*
X191645979Y-56606036D01*
X191645977Y-56606038D01*
X191622775Y-56631806D01*
X191613452Y-56641129D01*
X191587684Y-56664331D01*
X191582780Y-56668747D01*
X191558517Y-56702143D01*
X191550221Y-56712386D01*
X191527029Y-56738143D01*
X191527026Y-56738147D01*
X191522606Y-56743056D01*
X191501971Y-56778798D01*
X191494792Y-56789851D01*
X191474410Y-56817904D01*
X191474407Y-56817909D01*
X191470528Y-56823248D01*
X191467845Y-56829275D01*
X191467844Y-56829276D01*
X191453738Y-56860959D01*
X191447751Y-56872708D01*
X191427119Y-56908444D01*
X191425078Y-56914727D01*
X191425077Y-56914728D01*
X191414365Y-56947696D01*
X191409645Y-56959994D01*
X191392852Y-56997712D01*
X191391480Y-57004165D01*
X191391479Y-57004169D01*
X191384271Y-57038080D01*
X191380858Y-57050817D01*
X191370144Y-57083791D01*
X191370143Y-57083798D01*
X191368104Y-57090072D01*
X191367414Y-57096633D01*
X191367414Y-57096635D01*
X191363790Y-57131122D01*
X191361728Y-57144136D01*
X191353146Y-57184513D01*
X191353146Y-58100454D01*
X191333144Y-58168575D01*
X191316241Y-58189549D01*
X188482198Y-61023592D01*
X188419886Y-61057618D01*
X188372851Y-61058859D01*
X188162908Y-61024667D01*
X188049157Y-61023178D01*
X187906237Y-61021307D01*
X187906234Y-61021307D01*
X187901560Y-61021246D01*
X187642577Y-61056492D01*
X187391648Y-61129631D01*
X187387395Y-61131591D01*
X187387394Y-61131592D01*
X187354284Y-61146856D01*
X187154287Y-61239056D01*
X187115312Y-61264609D01*
X186939619Y-61379798D01*
X186939614Y-61379802D01*
X186935706Y-61382364D01*
X186740709Y-61556406D01*
X186573578Y-61757358D01*
X186552786Y-61791622D01*
X186449120Y-61962459D01*
X186437986Y-61980807D01*
X186336912Y-62221843D01*
X186272574Y-62475171D01*
X186246388Y-62735227D01*
X186258928Y-62996296D01*
X186309919Y-63252644D01*
X186398241Y-63498640D01*
X186400457Y-63502764D01*
X186464968Y-63622825D01*
X186521952Y-63728879D01*
X186524747Y-63732622D01*
X186524749Y-63732625D01*
X186675545Y-63934565D01*
X186675550Y-63934571D01*
X186678337Y-63938303D01*
X186681646Y-63941583D01*
X186681651Y-63941589D01*
X186803421Y-64062300D01*
X186863958Y-64122311D01*
X186867720Y-64125069D01*
X186867723Y-64125072D01*
X187049220Y-64258151D01*
X187092328Y-64314562D01*
X187100715Y-64359763D01*
X187100715Y-66699971D01*
X187099164Y-66719680D01*
X187096963Y-66733578D01*
X187097308Y-66740165D01*
X187097308Y-66740170D01*
X187100542Y-66801868D01*
X187100715Y-66808462D01*
X187100715Y-66828998D01*
X187101059Y-66832270D01*
X187101059Y-66832272D01*
X187102862Y-66849430D01*
X187103379Y-66856004D01*
X187106001Y-66906027D01*
X187106958Y-66924291D01*
X187108668Y-66930672D01*
X187108668Y-66930674D01*
X187110598Y-66937879D01*
X187114200Y-66957313D01*
X187114981Y-66964742D01*
X187114983Y-66964751D01*
X187115673Y-66971316D01*
X187136815Y-67036385D01*
X187138682Y-67042687D01*
X187156386Y-67108758D01*
X187159398Y-67114669D01*
X187162774Y-67121295D01*
X187170340Y-67139562D01*
X187171747Y-67143891D01*
X187174688Y-67152944D01*
X187206845Y-67208641D01*
X187208882Y-67212170D01*
X187212029Y-67217965D01*
X187243086Y-67278918D01*
X187247239Y-67284046D01*
X187247240Y-67284048D01*
X187251942Y-67289854D01*
X187263142Y-67306151D01*
X187266872Y-67312612D01*
X187266875Y-67312616D01*
X187270175Y-67318332D01*
X187274592Y-67323238D01*
X187274596Y-67323243D01*
X187315937Y-67369157D01*
X187320221Y-67374172D01*
X187327103Y-67382670D01*
X187333143Y-67390129D01*
X187347658Y-67404644D01*
X187352199Y-67409429D01*
X187397962Y-67460254D01*
X187403301Y-67464133D01*
X187403302Y-67464134D01*
X187409350Y-67468528D01*
X187424383Y-67481369D01*
X187600807Y-67657793D01*
X187634833Y-67720105D01*
X187629768Y-67790920D01*
X187587221Y-67847756D01*
X187520701Y-67872567D01*
X187511712Y-67872888D01*
X170060029Y-67872888D01*
X170040320Y-67871337D01*
X170026422Y-67869136D01*
X170019835Y-67869481D01*
X170019830Y-67869481D01*
X169958132Y-67872715D01*
X169951538Y-67872888D01*
X169931002Y-67872888D01*
X169927730Y-67873232D01*
X169927728Y-67873232D01*
X169910570Y-67875035D01*
X169903996Y-67875552D01*
X169842308Y-67878785D01*
X169842306Y-67878785D01*
X169835709Y-67879131D01*
X169822116Y-67882773D01*
X169802687Y-67886374D01*
X169788684Y-67887846D01*
X169723637Y-67908981D01*
X169717324Y-67910851D01*
X169696686Y-67916381D01*
X169657615Y-67926850D01*
X169657612Y-67926851D01*
X169651242Y-67928558D01*
X169638697Y-67934950D01*
X169620438Y-67942513D01*
X169607056Y-67946861D01*
X169601335Y-67950164D01*
X169547835Y-67981052D01*
X169542038Y-67984200D01*
X169486963Y-68012262D01*
X169486960Y-68012264D01*
X169481082Y-68015259D01*
X169475954Y-68019412D01*
X169475952Y-68019413D01*
X169470146Y-68024115D01*
X169453849Y-68035315D01*
X169447388Y-68039045D01*
X169447384Y-68039048D01*
X169441668Y-68042348D01*
X169436762Y-68046765D01*
X169436757Y-68046769D01*
X169390843Y-68088110D01*
X169385828Y-68092394D01*
X169381904Y-68095572D01*
X169369871Y-68105316D01*
X169355356Y-68119831D01*
X169350571Y-68124372D01*
X169299746Y-68170135D01*
X169295867Y-68175474D01*
X169295866Y-68175475D01*
X169291472Y-68181523D01*
X169278631Y-68196556D01*
X169168703Y-68306484D01*
X169106391Y-68340510D01*
X169035576Y-68335445D01*
X168978740Y-68292898D01*
X168957404Y-68248085D01*
X168948152Y-68211254D01*
X168930431Y-68140702D01*
X168841354Y-67935840D01*
X168794978Y-67864153D01*
X168722822Y-67752617D01*
X168722820Y-67752614D01*
X168720014Y-67748277D01*
X168569670Y-67583051D01*
X168565619Y-67579852D01*
X168565615Y-67579848D01*
X168398414Y-67447800D01*
X168398410Y-67447798D01*
X168394359Y-67444598D01*
X168352569Y-67421529D01*
X168302598Y-67371097D01*
X168287826Y-67301654D01*
X168312942Y-67235248D01*
X168340294Y-67208641D01*
X168515328Y-67083792D01*
X168523200Y-67077139D01*
X168674052Y-66926812D01*
X168680730Y-66918965D01*
X168805003Y-66746020D01*
X168810313Y-66737183D01*
X168904670Y-66546267D01*
X168908469Y-66536672D01*
X168970377Y-66332910D01*
X168972555Y-66322837D01*
X168973986Y-66311962D01*
X168971775Y-66297778D01*
X168958617Y-66294000D01*
X167512000Y-66294000D01*
X167443879Y-66273998D01*
X167397386Y-66220342D01*
X167386000Y-66168000D01*
X167386000Y-65767885D01*
X167894000Y-65767885D01*
X167898475Y-65783124D01*
X167899865Y-65784329D01*
X167907548Y-65786000D01*
X168958344Y-65786000D01*
X168971875Y-65782027D01*
X168973180Y-65772947D01*
X168931214Y-65605875D01*
X168927894Y-65596124D01*
X168842972Y-65400814D01*
X168838105Y-65391739D01*
X168722426Y-65212926D01*
X168716136Y-65204757D01*
X168572806Y-65047240D01*
X168565273Y-65040215D01*
X168398139Y-64908222D01*
X168389552Y-64902517D01*
X168203117Y-64799599D01*
X168193705Y-64795369D01*
X167992959Y-64724280D01*
X167982988Y-64721646D01*
X167911837Y-64708972D01*
X167898540Y-64710432D01*
X167894000Y-64724989D01*
X167894000Y-65767885D01*
X167386000Y-65767885D01*
X167386000Y-64723102D01*
X167382082Y-64709758D01*
X167367806Y-64707771D01*
X167329324Y-64713660D01*
X167319288Y-64716051D01*
X167116868Y-64782212D01*
X167107359Y-64786209D01*
X166918463Y-64884542D01*
X166909738Y-64890036D01*
X166739433Y-65017905D01*
X166731726Y-65024748D01*
X166654478Y-65105584D01*
X166592954Y-65141014D01*
X166522042Y-65137557D01*
X166464255Y-65096311D01*
X166445402Y-65062763D01*
X166403767Y-64951703D01*
X166400615Y-64943295D01*
X166313261Y-64826739D01*
X166196705Y-64739385D01*
X166060316Y-64688255D01*
X165998134Y-64681500D01*
X164201866Y-64681500D01*
X164139684Y-64688255D01*
X164003295Y-64739385D01*
X163886739Y-64826739D01*
X163799385Y-64943295D01*
X163748255Y-65079684D01*
X163741500Y-65141866D01*
X163741500Y-66938134D01*
X163748255Y-67000316D01*
X163799385Y-67136705D01*
X163886739Y-67253261D01*
X164003295Y-67340615D01*
X164011704Y-67343767D01*
X164011705Y-67343768D01*
X164120451Y-67384535D01*
X164177216Y-67427176D01*
X164201916Y-67493738D01*
X164186709Y-67563087D01*
X164167316Y-67589568D01*
X164040629Y-67722138D01*
X163914743Y-67906680D01*
X163880221Y-67981052D01*
X163827063Y-68095572D01*
X163820688Y-68109305D01*
X163760989Y-68324570D01*
X163737251Y-68546695D01*
X163737548Y-68551853D01*
X163737422Y-68557024D01*
X163735914Y-68556987D01*
X163721410Y-68619485D01*
X163670518Y-68668988D01*
X163600942Y-68683118D01*
X163534771Y-68657389D01*
X163522574Y-68646670D01*
X162666825Y-67790920D01*
X161626374Y-66750469D01*
X161592348Y-66688157D01*
X161589469Y-66661374D01*
X161589469Y-61519906D01*
X161949839Y-61519906D01*
X161958553Y-61531427D01*
X162065452Y-61609809D01*
X162073351Y-61614745D01*
X162302905Y-61735519D01*
X162311454Y-61739236D01*
X162556327Y-61824749D01*
X162565336Y-61827163D01*
X162820166Y-61875544D01*
X162829423Y-61876598D01*
X163088607Y-61886783D01*
X163097921Y-61886457D01*
X163355753Y-61858220D01*
X163364930Y-61856519D01*
X163615758Y-61790481D01*
X163624574Y-61787445D01*
X163862880Y-61685062D01*
X163871167Y-61680748D01*
X164091718Y-61544266D01*
X164099268Y-61538780D01*
X164104559Y-61534301D01*
X164112997Y-61521497D01*
X164106935Y-61511145D01*
X163042812Y-60447022D01*
X163028868Y-60439408D01*
X163027035Y-60439539D01*
X163020420Y-60443790D01*
X161956497Y-61507713D01*
X161949839Y-61519906D01*
X161589469Y-61519906D01*
X161589469Y-61208511D01*
X161609471Y-61140390D01*
X161626374Y-61119416D01*
X162657978Y-60087812D01*
X162664356Y-60076132D01*
X163394408Y-60076132D01*
X163394539Y-60077965D01*
X163398790Y-60084580D01*
X164466094Y-61151884D01*
X164478474Y-61158644D01*
X164486815Y-61152400D01*
X164620832Y-60944048D01*
X164625275Y-60935864D01*
X164731807Y-60699370D01*
X164734997Y-60690605D01*
X164805402Y-60440972D01*
X164807262Y-60431830D01*
X164840187Y-60173019D01*
X164840668Y-60166733D01*
X164842987Y-60078160D01*
X164842836Y-60071851D01*
X164823501Y-59811663D01*
X164822125Y-59802457D01*
X164764878Y-59549467D01*
X164762154Y-59540556D01*
X164668143Y-59298806D01*
X164664132Y-59290397D01*
X164535422Y-59065202D01*
X164530211Y-59057476D01*
X164486996Y-59002658D01*
X164475071Y-58994187D01*
X164463537Y-59000673D01*
X163402022Y-60062188D01*
X163394408Y-60076132D01*
X162664356Y-60076132D01*
X162665592Y-60073868D01*
X162665461Y-60072035D01*
X162661210Y-60065420D01*
X161626374Y-59030584D01*
X161592348Y-58968272D01*
X161589469Y-58941489D01*
X161589469Y-58627689D01*
X161947102Y-58627689D01*
X161951675Y-58637465D01*
X163017188Y-59702978D01*
X163031132Y-59710592D01*
X163032965Y-59710461D01*
X163039580Y-59706210D01*
X164104349Y-58641441D01*
X164110733Y-58629751D01*
X164101321Y-58617641D01*
X163954045Y-58515471D01*
X163946010Y-58510738D01*
X163713376Y-58396016D01*
X163704743Y-58392528D01*
X163457703Y-58313450D01*
X163448643Y-58311274D01*
X163192630Y-58269580D01*
X163183343Y-58268768D01*
X162923992Y-58265373D01*
X162914681Y-58265943D01*
X162657682Y-58300919D01*
X162648546Y-58302860D01*
X162399543Y-58375439D01*
X162390800Y-58378707D01*
X162155252Y-58487296D01*
X162147097Y-58491816D01*
X161956240Y-58616947D01*
X161947102Y-58627689D01*
X161589469Y-58627689D01*
X161589469Y-56415945D01*
X161609471Y-56347824D01*
X161663127Y-56301331D01*
X161733401Y-56291227D01*
X161797981Y-56320721D01*
X161804172Y-56326459D01*
X161852180Y-56374050D01*
X161855942Y-56376808D01*
X161855945Y-56376811D01*
X162047174Y-56517025D01*
X162068954Y-56532995D01*
X162073089Y-56535171D01*
X162073093Y-56535173D01*
X162274481Y-56641129D01*
X162306840Y-56658154D01*
X162337174Y-56668747D01*
X162535895Y-56738143D01*
X162560613Y-56746775D01*
X162565206Y-56747647D01*
X162820109Y-56796042D01*
X162820112Y-56796042D01*
X162824698Y-56796913D01*
X162952370Y-56801929D01*
X163088625Y-56807283D01*
X163088630Y-56807283D01*
X163093293Y-56807466D01*
X163197607Y-56796042D01*
X163355844Y-56778713D01*
X163355850Y-56778712D01*
X163360497Y-56778203D01*
X163365021Y-56777012D01*
X163615918Y-56710956D01*
X163615920Y-56710955D01*
X163620441Y-56709765D01*
X163624738Y-56707919D01*
X163863120Y-56605502D01*
X163863122Y-56605501D01*
X163867414Y-56603657D01*
X163986071Y-56530230D01*
X164092017Y-56464669D01*
X164092021Y-56464666D01*
X164095990Y-56462210D01*
X164301149Y-56288530D01*
X164478382Y-56086434D01*
X164623797Y-55860361D01*
X164694796Y-55702749D01*
X164741012Y-55648855D01*
X164809678Y-55628500D01*
X167708233Y-55628500D01*
X167776354Y-55648502D01*
X167797328Y-55665405D01*
X174141167Y-62009244D01*
X174175193Y-62071556D01*
X174168270Y-62147062D01*
X174136912Y-62221843D01*
X174072574Y-62475171D01*
X174046388Y-62735227D01*
X174058928Y-62996296D01*
X174109919Y-63252644D01*
X174198241Y-63498640D01*
X174200457Y-63502764D01*
X174264968Y-63622825D01*
X174321952Y-63728879D01*
X174324747Y-63732622D01*
X174324749Y-63732625D01*
X174475545Y-63934565D01*
X174475550Y-63934571D01*
X174478337Y-63938303D01*
X174481646Y-63941583D01*
X174481651Y-63941589D01*
X174603421Y-64062300D01*
X174663958Y-64122311D01*
X174667720Y-64125069D01*
X174667723Y-64125072D01*
X174860944Y-64266747D01*
X174874739Y-64276862D01*
X174878882Y-64279042D01*
X174878884Y-64279043D01*
X175101899Y-64396377D01*
X175101904Y-64396379D01*
X175106049Y-64398560D01*
X175352805Y-64484732D01*
X175357398Y-64485604D01*
X175605000Y-64532612D01*
X175605003Y-64532612D01*
X175609589Y-64533483D01*
X175740173Y-64538614D01*
X175866090Y-64543562D01*
X175866096Y-64543562D01*
X175870758Y-64543745D01*
X175950192Y-64535045D01*
X176125922Y-64515800D01*
X176125927Y-64515799D01*
X176130575Y-64515290D01*
X176135099Y-64514099D01*
X176378809Y-64449936D01*
X176378811Y-64449935D01*
X176383332Y-64448745D01*
X176446102Y-64421777D01*
X176619187Y-64347413D01*
X176623477Y-64345570D01*
X176670637Y-64316387D01*
X176841762Y-64210492D01*
X176841763Y-64210492D01*
X176845734Y-64208034D01*
X176849297Y-64205017D01*
X176849302Y-64205014D01*
X177041654Y-64042175D01*
X177041655Y-64042174D01*
X177045220Y-64039156D01*
X177136944Y-63934565D01*
X177214472Y-63846162D01*
X177214476Y-63846157D01*
X177217554Y-63842647D01*
X177226498Y-63828743D01*
X177356420Y-63626755D01*
X177358948Y-63622825D01*
X177466298Y-63384517D01*
X177537245Y-63132960D01*
X177554047Y-63000884D01*
X177569831Y-62876809D01*
X177569831Y-62876805D01*
X177570229Y-62873679D01*
X177572646Y-62781388D01*
X177553276Y-62520736D01*
X177541940Y-62470636D01*
X177496623Y-62270368D01*
X177495592Y-62265811D01*
X177461040Y-62176960D01*
X177402555Y-62026564D01*
X177402554Y-62026561D01*
X177400862Y-62022211D01*
X177388360Y-62000336D01*
X177352841Y-61938192D01*
X177271166Y-61795290D01*
X177109353Y-61590031D01*
X176918978Y-61410945D01*
X176759775Y-61300501D01*
X176708066Y-61264629D01*
X176708063Y-61264627D01*
X176704224Y-61261964D01*
X176700031Y-61259896D01*
X176473996Y-61148428D01*
X176473993Y-61148427D01*
X176469808Y-61146363D01*
X176457119Y-61142301D01*
X176225338Y-61068108D01*
X176220880Y-61066681D01*
X175962908Y-61024667D01*
X175849157Y-61023178D01*
X175706237Y-61021307D01*
X175706234Y-61021307D01*
X175701560Y-61021246D01*
X175442577Y-61056492D01*
X175191648Y-61129631D01*
X175176750Y-61136499D01*
X175106513Y-61146856D01*
X175041827Y-61117596D01*
X175034901Y-61111170D01*
X171784757Y-57861025D01*
X170172571Y-56248839D01*
X174022173Y-56248839D01*
X174022397Y-56253505D01*
X174022397Y-56253511D01*
X174028029Y-56370762D01*
X174034713Y-56509908D01*
X174085704Y-56766256D01*
X174174026Y-57012252D01*
X174176242Y-57016376D01*
X174266585Y-57184513D01*
X174297737Y-57242491D01*
X174300532Y-57246234D01*
X174300534Y-57246237D01*
X174451330Y-57448177D01*
X174451335Y-57448183D01*
X174454122Y-57451915D01*
X174457431Y-57455195D01*
X174457436Y-57455201D01*
X174636426Y-57632635D01*
X174639743Y-57635923D01*
X174643505Y-57638681D01*
X174643508Y-57638684D01*
X174846750Y-57787707D01*
X174850524Y-57790474D01*
X174854667Y-57792654D01*
X174854669Y-57792655D01*
X175077684Y-57909989D01*
X175077689Y-57909991D01*
X175081834Y-57912172D01*
X175220254Y-57960511D01*
X175305602Y-57990316D01*
X175328590Y-57998344D01*
X175333183Y-57999216D01*
X175580785Y-58046224D01*
X175580788Y-58046224D01*
X175585374Y-58047095D01*
X175715958Y-58052226D01*
X175841875Y-58057174D01*
X175841881Y-58057174D01*
X175846543Y-58057357D01*
X175925977Y-58048657D01*
X176101707Y-58029412D01*
X176101712Y-58029411D01*
X176106360Y-58028902D01*
X176219116Y-57999216D01*
X176354594Y-57963548D01*
X176354596Y-57963547D01*
X176359117Y-57962357D01*
X176599262Y-57859182D01*
X176821519Y-57721646D01*
X176825082Y-57718629D01*
X176825087Y-57718626D01*
X177017439Y-57555787D01*
X177017440Y-57555786D01*
X177021005Y-57552768D01*
X177112729Y-57448177D01*
X177190257Y-57359774D01*
X177190261Y-57359769D01*
X177193339Y-57356259D01*
X177334733Y-57136437D01*
X177442083Y-56898129D01*
X177467653Y-56807466D01*
X177511760Y-56651076D01*
X177511761Y-56651073D01*
X177513030Y-56646572D01*
X177526885Y-56537660D01*
X177545616Y-56390421D01*
X177545616Y-56390417D01*
X177546014Y-56387291D01*
X177546289Y-56376811D01*
X177547862Y-56316739D01*
X177548431Y-56295000D01*
X177545001Y-56248839D01*
X186222173Y-56248839D01*
X186222397Y-56253505D01*
X186222397Y-56253511D01*
X186228029Y-56370762D01*
X186234713Y-56509908D01*
X186285704Y-56766256D01*
X186374026Y-57012252D01*
X186376242Y-57016376D01*
X186466585Y-57184513D01*
X186497737Y-57242491D01*
X186500532Y-57246234D01*
X186500534Y-57246237D01*
X186651330Y-57448177D01*
X186651335Y-57448183D01*
X186654122Y-57451915D01*
X186657431Y-57455195D01*
X186657436Y-57455201D01*
X186836426Y-57632635D01*
X186839743Y-57635923D01*
X186843505Y-57638681D01*
X186843508Y-57638684D01*
X187046750Y-57787707D01*
X187050524Y-57790474D01*
X187054667Y-57792654D01*
X187054669Y-57792655D01*
X187277684Y-57909989D01*
X187277689Y-57909991D01*
X187281834Y-57912172D01*
X187420254Y-57960511D01*
X187505602Y-57990316D01*
X187528590Y-57998344D01*
X187533183Y-57999216D01*
X187780785Y-58046224D01*
X187780788Y-58046224D01*
X187785374Y-58047095D01*
X187915958Y-58052226D01*
X188041875Y-58057174D01*
X188041881Y-58057174D01*
X188046543Y-58057357D01*
X188125977Y-58048657D01*
X188301707Y-58029412D01*
X188301712Y-58029411D01*
X188306360Y-58028902D01*
X188419116Y-57999216D01*
X188554594Y-57963548D01*
X188554596Y-57963547D01*
X188559117Y-57962357D01*
X188799262Y-57859182D01*
X189021519Y-57721646D01*
X189025082Y-57718629D01*
X189025087Y-57718626D01*
X189217439Y-57555787D01*
X189217440Y-57555786D01*
X189221005Y-57552768D01*
X189312729Y-57448177D01*
X189390257Y-57359774D01*
X189390261Y-57359769D01*
X189393339Y-57356259D01*
X189534733Y-57136437D01*
X189642083Y-56898129D01*
X189667653Y-56807466D01*
X189711760Y-56651076D01*
X189711761Y-56651073D01*
X189713030Y-56646572D01*
X189726885Y-56537660D01*
X189745616Y-56390421D01*
X189745616Y-56390417D01*
X189746014Y-56387291D01*
X189746289Y-56376811D01*
X189747862Y-56316739D01*
X189748431Y-56295000D01*
X189742762Y-56218717D01*
X189729407Y-56039000D01*
X189729406Y-56038996D01*
X189729061Y-56034348D01*
X189717725Y-55984248D01*
X189685853Y-55843399D01*
X189671377Y-55779423D01*
X189652603Y-55731146D01*
X189578340Y-55540176D01*
X189578339Y-55540173D01*
X189576647Y-55535823D01*
X189573671Y-55530615D01*
X189457126Y-55326705D01*
X189446951Y-55308902D01*
X189285138Y-55103643D01*
X189094763Y-54924557D01*
X188880009Y-54775576D01*
X188875816Y-54773508D01*
X188649781Y-54662040D01*
X188649778Y-54662039D01*
X188645593Y-54659975D01*
X188599449Y-54645204D01*
X188401123Y-54581720D01*
X188396665Y-54580293D01*
X188138693Y-54538279D01*
X188024942Y-54536790D01*
X187882022Y-54534919D01*
X187882019Y-54534919D01*
X187877345Y-54534858D01*
X187618362Y-54570104D01*
X187613876Y-54571412D01*
X187613874Y-54571412D01*
X187557025Y-54587982D01*
X187367433Y-54643243D01*
X187363180Y-54645203D01*
X187363179Y-54645204D01*
X187326659Y-54662040D01*
X187130072Y-54752668D01*
X187091067Y-54778241D01*
X186915404Y-54893410D01*
X186915399Y-54893414D01*
X186911491Y-54895976D01*
X186716494Y-55070018D01*
X186549363Y-55270970D01*
X186413771Y-55494419D01*
X186312697Y-55735455D01*
X186248359Y-55988783D01*
X186222173Y-56248839D01*
X177545001Y-56248839D01*
X177542762Y-56218717D01*
X177529407Y-56039000D01*
X177529406Y-56038996D01*
X177529061Y-56034348D01*
X177517725Y-55984248D01*
X177485853Y-55843399D01*
X177471377Y-55779423D01*
X177452603Y-55731146D01*
X177378340Y-55540176D01*
X177378339Y-55540173D01*
X177376647Y-55535823D01*
X177373671Y-55530615D01*
X177257126Y-55326705D01*
X177246951Y-55308902D01*
X177085138Y-55103643D01*
X176894763Y-54924557D01*
X176680009Y-54775576D01*
X176675816Y-54773508D01*
X176449781Y-54662040D01*
X176449778Y-54662039D01*
X176445593Y-54659975D01*
X176399449Y-54645204D01*
X176201123Y-54581720D01*
X176196665Y-54580293D01*
X175938693Y-54538279D01*
X175824942Y-54536790D01*
X175682022Y-54534919D01*
X175682019Y-54534919D01*
X175677345Y-54534858D01*
X175418362Y-54570104D01*
X175413876Y-54571412D01*
X175413874Y-54571412D01*
X175357025Y-54587982D01*
X175167433Y-54643243D01*
X175163180Y-54645203D01*
X175163179Y-54645204D01*
X175126659Y-54662040D01*
X174930072Y-54752668D01*
X174891067Y-54778241D01*
X174715404Y-54893410D01*
X174715399Y-54893414D01*
X174711491Y-54895976D01*
X174516494Y-55070018D01*
X174349363Y-55270970D01*
X174213771Y-55494419D01*
X174112697Y-55735455D01*
X174048359Y-55988783D01*
X174022173Y-56248839D01*
X170172571Y-56248839D01*
X168526479Y-54602747D01*
X168518939Y-54594461D01*
X168514827Y-54587982D01*
X168465175Y-54541356D01*
X168462334Y-54538602D01*
X168442597Y-54518865D01*
X168439400Y-54516385D01*
X168430378Y-54508680D01*
X168403927Y-54483841D01*
X168398148Y-54478414D01*
X168391202Y-54474595D01*
X168391199Y-54474593D01*
X168380393Y-54468652D01*
X168363874Y-54457801D01*
X168363410Y-54457441D01*
X168347868Y-54445386D01*
X168340599Y-54442241D01*
X168340595Y-54442238D01*
X168307290Y-54427826D01*
X168296640Y-54422609D01*
X168257887Y-54401305D01*
X168238264Y-54396267D01*
X168219561Y-54389863D01*
X168208247Y-54384967D01*
X168208246Y-54384967D01*
X168200972Y-54381819D01*
X168193149Y-54380580D01*
X168193139Y-54380577D01*
X168157303Y-54374901D01*
X168145683Y-54372495D01*
X168110538Y-54363472D01*
X168110537Y-54363472D01*
X168102857Y-54361500D01*
X168082603Y-54361500D01*
X168062892Y-54359949D01*
X168050713Y-54358020D01*
X168042884Y-54356780D01*
X168034992Y-54357526D01*
X167998866Y-54360941D01*
X167987008Y-54361500D01*
X164810363Y-54361500D01*
X164742242Y-54341498D01*
X164695749Y-54287842D01*
X164692930Y-54281168D01*
X164668595Y-54218592D01*
X164666902Y-54214238D01*
X164533518Y-53980864D01*
X164367105Y-53769769D01*
X164171317Y-53585591D01*
X163950457Y-53432374D01*
X163944396Y-53429385D01*
X163713564Y-53315551D01*
X163713561Y-53315550D01*
X163709376Y-53313486D01*
X163661745Y-53298239D01*
X163550208Y-53262536D01*
X163453370Y-53231538D01*
X163448763Y-53230788D01*
X163448760Y-53230787D01*
X163192674Y-53189081D01*
X163192675Y-53189081D01*
X163188063Y-53188330D01*
X163057719Y-53186624D01*
X162923961Y-53184873D01*
X162923958Y-53184873D01*
X162919284Y-53184812D01*
X162652937Y-53221060D01*
X162394874Y-53296278D01*
X162150763Y-53408815D01*
X162146854Y-53411378D01*
X161929881Y-53553631D01*
X161929876Y-53553635D01*
X161925968Y-53556197D01*
X161922476Y-53559314D01*
X161799370Y-53669190D01*
X161735229Y-53699628D01*
X161664814Y-53690556D01*
X161610482Y-53644856D01*
X161589469Y-53575187D01*
X161589469Y-51335945D01*
X161609471Y-51267824D01*
X161663127Y-51221331D01*
X161733401Y-51211227D01*
X161797981Y-51240721D01*
X161804172Y-51246459D01*
X161852180Y-51294050D01*
X161855942Y-51296808D01*
X161855945Y-51296811D01*
X161962849Y-51375196D01*
X162068954Y-51452995D01*
X162073089Y-51455171D01*
X162073093Y-51455173D01*
X162230682Y-51538085D01*
X162306840Y-51578154D01*
X162560613Y-51666775D01*
X162565206Y-51667647D01*
X162820109Y-51716042D01*
X162820112Y-51716042D01*
X162824698Y-51716913D01*
X162952370Y-51721929D01*
X163088625Y-51727283D01*
X163088630Y-51727283D01*
X163093293Y-51727466D01*
X163197607Y-51716042D01*
X163355844Y-51698713D01*
X163355850Y-51698712D01*
X163360497Y-51698203D01*
X163365021Y-51697012D01*
X163615918Y-51630956D01*
X163615920Y-51630955D01*
X163620441Y-51629765D01*
X163624738Y-51627919D01*
X163863120Y-51525502D01*
X163863122Y-51525501D01*
X163867414Y-51523657D01*
X163998280Y-51442675D01*
X164092017Y-51384669D01*
X164092021Y-51384666D01*
X164095990Y-51382210D01*
X164301149Y-51208530D01*
X164478382Y-51006434D01*
X164493221Y-50983365D01*
X164611165Y-50800000D01*
X164623797Y-50780361D01*
X164734199Y-50535278D01*
X164752253Y-50471263D01*
X164805893Y-50281072D01*
X164805894Y-50281069D01*
X164807163Y-50276568D01*
X164841086Y-50009915D01*
X164841184Y-50006197D01*
X164843147Y-49931206D01*
X164843571Y-49915000D01*
X164840487Y-49873503D01*
X164823996Y-49651592D01*
X164823996Y-49651591D01*
X164823650Y-49646937D01*
X164764327Y-49384763D01*
X164755273Y-49361481D01*
X164707835Y-49239493D01*
X164701788Y-49168755D01*
X164736173Y-49104731D01*
X168875499Y-44965405D01*
X168937811Y-44931379D01*
X168964594Y-44928500D01*
X174055320Y-44928500D01*
X174123441Y-44948502D01*
X174169934Y-45002158D01*
X174170517Y-45003592D01*
X174170545Y-45003580D01*
X174172443Y-45007843D01*
X174174026Y-45012252D01*
X174176242Y-45016376D01*
X174176243Y-45016378D01*
X174240753Y-45136437D01*
X174297737Y-45242491D01*
X174300532Y-45246234D01*
X174300534Y-45246237D01*
X174451330Y-45448177D01*
X174451335Y-45448183D01*
X174454122Y-45451915D01*
X174457431Y-45455195D01*
X174457436Y-45455201D01*
X174636426Y-45632635D01*
X174639743Y-45635923D01*
X174643505Y-45638681D01*
X174643508Y-45638684D01*
X174760016Y-45724111D01*
X174850524Y-45790474D01*
X174854667Y-45792654D01*
X174854669Y-45792655D01*
X175077684Y-45909989D01*
X175077689Y-45909991D01*
X175081834Y-45912172D01*
X175328590Y-45998344D01*
X175333183Y-45999216D01*
X175580785Y-46046224D01*
X175580788Y-46046224D01*
X175585374Y-46047095D01*
X175715959Y-46052226D01*
X175841875Y-46057174D01*
X175841881Y-46057174D01*
X175846543Y-46057357D01*
X175925977Y-46048657D01*
X176101707Y-46029412D01*
X176101712Y-46029411D01*
X176106360Y-46028902D01*
X176219116Y-45999216D01*
X176354594Y-45963548D01*
X176354596Y-45963547D01*
X176359117Y-45962357D01*
X176599262Y-45859182D01*
X176821519Y-45721646D01*
X176825082Y-45718629D01*
X176825087Y-45718626D01*
X177017439Y-45555787D01*
X177017440Y-45555786D01*
X177021005Y-45552768D01*
X177112729Y-45448177D01*
X177190257Y-45359774D01*
X177190261Y-45359769D01*
X177193339Y-45356259D01*
X177334733Y-45136437D01*
X177442083Y-44898129D01*
X177451714Y-44863982D01*
X177511760Y-44651076D01*
X177511761Y-44651073D01*
X177513030Y-44646572D01*
X177529832Y-44514496D01*
X177545616Y-44390421D01*
X177545616Y-44390417D01*
X177546014Y-44387291D01*
X177546386Y-44373115D01*
X177548348Y-44298160D01*
X177548431Y-44295000D01*
X177529061Y-44034348D01*
X177524055Y-44012222D01*
X177472408Y-43783980D01*
X177471377Y-43779423D01*
X177464379Y-43761427D01*
X177378340Y-43540176D01*
X177378339Y-43540173D01*
X177376647Y-43535823D01*
X177360730Y-43507973D01*
X177313126Y-43424684D01*
X177246951Y-43308902D01*
X177085138Y-43103643D01*
X176894763Y-42924557D01*
X176680009Y-42775576D01*
X176675816Y-42773508D01*
X176449781Y-42662040D01*
X176449778Y-42662039D01*
X176445593Y-42659975D01*
X176399449Y-42645204D01*
X176201123Y-42581720D01*
X176196665Y-42580293D01*
X175938693Y-42538279D01*
X175824942Y-42536790D01*
X175682022Y-42534919D01*
X175682019Y-42534919D01*
X175677345Y-42534858D01*
X175418362Y-42570104D01*
X175413876Y-42571412D01*
X175413874Y-42571412D01*
X175385988Y-42579540D01*
X175167433Y-42643243D01*
X175163180Y-42645203D01*
X175163179Y-42645204D01*
X175130776Y-42660142D01*
X174930072Y-42752668D01*
X174891067Y-42778241D01*
X174715404Y-42893410D01*
X174715399Y-42893414D01*
X174711491Y-42895976D01*
X174516494Y-43070018D01*
X174349363Y-43270970D01*
X174346934Y-43274973D01*
X174220416Y-43483469D01*
X174213771Y-43494419D01*
X174180401Y-43574000D01*
X174176113Y-43584225D01*
X174131324Y-43639311D01*
X174059915Y-43661500D01*
X168728767Y-43661500D01*
X168717584Y-43660973D01*
X168710091Y-43659298D01*
X168702165Y-43659547D01*
X168702164Y-43659547D01*
X168642014Y-43661438D01*
X168638055Y-43661500D01*
X168610144Y-43661500D01*
X168606210Y-43661997D01*
X168606209Y-43661997D01*
X168606144Y-43662005D01*
X168594307Y-43662938D01*
X168562490Y-43663938D01*
X168558029Y-43664078D01*
X168550110Y-43664327D01*
X168538696Y-43667643D01*
X168530658Y-43669978D01*
X168511306Y-43673986D01*
X168504235Y-43674880D01*
X168491203Y-43676526D01*
X168483834Y-43679443D01*
X168483832Y-43679444D01*
X168450097Y-43692800D01*
X168438869Y-43696645D01*
X168396407Y-43708982D01*
X168389585Y-43713016D01*
X168389579Y-43713019D01*
X168378968Y-43719294D01*
X168361218Y-43727990D01*
X168349756Y-43732528D01*
X168349751Y-43732531D01*
X168342383Y-43735448D01*
X168335968Y-43740109D01*
X168306625Y-43761427D01*
X168296707Y-43767943D01*
X168284658Y-43775069D01*
X168258637Y-43790458D01*
X168244313Y-43804782D01*
X168229281Y-43817621D01*
X168212893Y-43829528D01*
X168200480Y-43844533D01*
X168184712Y-43863593D01*
X168176722Y-43872373D01*
X163843744Y-48205351D01*
X163781432Y-48239377D01*
X163709452Y-48233250D01*
X163709376Y-48233486D01*
X163453370Y-48151538D01*
X163448763Y-48150788D01*
X163448760Y-48150787D01*
X163192674Y-48109081D01*
X163192675Y-48109081D01*
X163188063Y-48108330D01*
X163057719Y-48106624D01*
X162923961Y-48104873D01*
X162923958Y-48104873D01*
X162919284Y-48104812D01*
X162652937Y-48141060D01*
X162394874Y-48216278D01*
X162390621Y-48218238D01*
X162390620Y-48218239D01*
X162341953Y-48240675D01*
X162150763Y-48328815D01*
X162099112Y-48362679D01*
X161929881Y-48473631D01*
X161929876Y-48473635D01*
X161925968Y-48476197D01*
X161922476Y-48479314D01*
X161799370Y-48589190D01*
X161735229Y-48619628D01*
X161664814Y-48610556D01*
X161610482Y-48564856D01*
X161589469Y-48495187D01*
X161589469Y-46769500D01*
X161609471Y-46701379D01*
X161663127Y-46654886D01*
X161715469Y-46643500D01*
X164378134Y-46643500D01*
X164440316Y-46636745D01*
X164576705Y-46585615D01*
X164693261Y-46498261D01*
X164780615Y-46381705D01*
X164831745Y-46245316D01*
X164838500Y-46183134D01*
X164838500Y-43486866D01*
X164831745Y-43424684D01*
X164780615Y-43288295D01*
X164693261Y-43171739D01*
X164576705Y-43084385D01*
X164440316Y-43033255D01*
X164378134Y-43026500D01*
X163913594Y-43026500D01*
X163845473Y-43006498D01*
X163798980Y-42952842D01*
X163788876Y-42882568D01*
X163818370Y-42817988D01*
X163824499Y-42811405D01*
X167124175Y-39511730D01*
X168311822Y-38324083D01*
X174022173Y-38324083D01*
X174034713Y-38585152D01*
X174085704Y-38841500D01*
X174174026Y-39087496D01*
X174176242Y-39091620D01*
X174240753Y-39211681D01*
X174297737Y-39317735D01*
X174300532Y-39321478D01*
X174300534Y-39321481D01*
X174451330Y-39523421D01*
X174451335Y-39523427D01*
X174454122Y-39527159D01*
X174457431Y-39530439D01*
X174457436Y-39530445D01*
X174589111Y-39660975D01*
X174639743Y-39711167D01*
X174643505Y-39713925D01*
X174643508Y-39713928D01*
X174840793Y-39858583D01*
X174850524Y-39865718D01*
X174854667Y-39867898D01*
X174854669Y-39867899D01*
X175077684Y-39985233D01*
X175077689Y-39985235D01*
X175081834Y-39987416D01*
X175328590Y-40073588D01*
X175333183Y-40074460D01*
X175580785Y-40121468D01*
X175580788Y-40121468D01*
X175585374Y-40122339D01*
X175715958Y-40127470D01*
X175841875Y-40132418D01*
X175841881Y-40132418D01*
X175846543Y-40132601D01*
X175930976Y-40123354D01*
X176101707Y-40104656D01*
X176101712Y-40104655D01*
X176106360Y-40104146D01*
X176219116Y-40074460D01*
X176354594Y-40038792D01*
X176354596Y-40038791D01*
X176359117Y-40037601D01*
X176599262Y-39934426D01*
X176656863Y-39898782D01*
X176817547Y-39799348D01*
X176817548Y-39799348D01*
X176821519Y-39796890D01*
X176825082Y-39793873D01*
X176825087Y-39793870D01*
X177017439Y-39631031D01*
X177017440Y-39631030D01*
X177021005Y-39628012D01*
X177055797Y-39588339D01*
X177190257Y-39435018D01*
X177190261Y-39435013D01*
X177193339Y-39431503D01*
X177198493Y-39423491D01*
X177332205Y-39215611D01*
X177334733Y-39211681D01*
X177442083Y-38973373D01*
X177513030Y-38721816D01*
X177529832Y-38589740D01*
X177545616Y-38465665D01*
X177545616Y-38465661D01*
X177546014Y-38462535D01*
X177548431Y-38370244D01*
X177542984Y-38296949D01*
X177529407Y-38114244D01*
X177529406Y-38114240D01*
X177529061Y-38109592D01*
X177527293Y-38101775D01*
X177472408Y-37859224D01*
X177471377Y-37854667D01*
X177468455Y-37847152D01*
X177378340Y-37615420D01*
X177378339Y-37615417D01*
X177376647Y-37611067D01*
X177246951Y-37384146D01*
X177085138Y-37178887D01*
X176894763Y-36999801D01*
X176707288Y-36869744D01*
X176683851Y-36853485D01*
X176683848Y-36853483D01*
X176680009Y-36850820D01*
X176675816Y-36848752D01*
X176449781Y-36737284D01*
X176449778Y-36737283D01*
X176445593Y-36735219D01*
X176437190Y-36732529D01*
X176201123Y-36656964D01*
X176196665Y-36655537D01*
X175938693Y-36613523D01*
X175824942Y-36612034D01*
X175682022Y-36610163D01*
X175682019Y-36610163D01*
X175677345Y-36610102D01*
X175418362Y-36645348D01*
X175167433Y-36718487D01*
X175163180Y-36720447D01*
X175163179Y-36720448D01*
X175126659Y-36737284D01*
X174930072Y-36827912D01*
X174891067Y-36853485D01*
X174715404Y-36968654D01*
X174715399Y-36968658D01*
X174711491Y-36971220D01*
X174516494Y-37145262D01*
X174349363Y-37346214D01*
X174346934Y-37350217D01*
X174218585Y-37561730D01*
X174213771Y-37569663D01*
X174112697Y-37810699D01*
X174048359Y-38064027D01*
X174022173Y-38324083D01*
X168311822Y-38324083D01*
X170572253Y-36063652D01*
X170580539Y-36056112D01*
X170587018Y-36052000D01*
X170633644Y-36002348D01*
X170636398Y-35999507D01*
X170656135Y-35979770D01*
X170658615Y-35976573D01*
X170666320Y-35967551D01*
X170691159Y-35941100D01*
X170696586Y-35935321D01*
X170700405Y-35928375D01*
X170700407Y-35928372D01*
X170706348Y-35917566D01*
X170717199Y-35901047D01*
X170724758Y-35891301D01*
X170729614Y-35885041D01*
X170732759Y-35877772D01*
X170732762Y-35877768D01*
X170747174Y-35844463D01*
X170752391Y-35833813D01*
X170773695Y-35795060D01*
X170778733Y-35775437D01*
X170785137Y-35756734D01*
X170790033Y-35745420D01*
X170790033Y-35745419D01*
X170793181Y-35738145D01*
X170794420Y-35730322D01*
X170794423Y-35730312D01*
X170800099Y-35694476D01*
X170802505Y-35682856D01*
X170811528Y-35647711D01*
X170811528Y-35647710D01*
X170813500Y-35640030D01*
X170813500Y-35619776D01*
X170815052Y-35600062D01*
X170816399Y-35591559D01*
X170847211Y-35526962D01*
X170914621Y-35452096D01*
X170914622Y-35452095D01*
X170919040Y-35447188D01*
X171014527Y-35281800D01*
X171073542Y-35100172D01*
X171078654Y-35051539D01*
X171092814Y-34916809D01*
X171093504Y-34910244D01*
X171092814Y-34903679D01*
X171074232Y-34726879D01*
X171074232Y-34726877D01*
X171073542Y-34720316D01*
X171014527Y-34538688D01*
X170919040Y-34373300D01*
X170846881Y-34293159D01*
X170795677Y-34236291D01*
X170795675Y-34236289D01*
X170791253Y-34231378D01*
X170785904Y-34227492D01*
X170782870Y-34224760D01*
X170745630Y-34164314D01*
X170746981Y-34093330D01*
X170778085Y-34042028D01*
X173394708Y-31425405D01*
X173457020Y-31391379D01*
X173483803Y-31388500D01*
X183793827Y-31388500D01*
X183813536Y-31390051D01*
X183827434Y-31392252D01*
X183834021Y-31391907D01*
X183834026Y-31391907D01*
X183895724Y-31388673D01*
X183902318Y-31388500D01*
X183922854Y-31388500D01*
X183926126Y-31388156D01*
X183926128Y-31388156D01*
X183943286Y-31386353D01*
X183949860Y-31385836D01*
X184011552Y-31382603D01*
X184011556Y-31382602D01*
X184018147Y-31382257D01*
X184024528Y-31380547D01*
X184024530Y-31380547D01*
X184031735Y-31378617D01*
X184051169Y-31375015D01*
X184058598Y-31374234D01*
X184058607Y-31374232D01*
X184065172Y-31373542D01*
X184130241Y-31352400D01*
X184136543Y-31350533D01*
X184202614Y-31332829D01*
X184215152Y-31326440D01*
X184233418Y-31318875D01*
X184240516Y-31316569D01*
X184240518Y-31316568D01*
X184246800Y-31314527D01*
X184306029Y-31280331D01*
X184311823Y-31277185D01*
X184372774Y-31246129D01*
X184383711Y-31237273D01*
X184400007Y-31226073D01*
X184406468Y-31222343D01*
X184406472Y-31222340D01*
X184412188Y-31219040D01*
X184417094Y-31214623D01*
X184417099Y-31214619D01*
X184463013Y-31173278D01*
X184468028Y-31168994D01*
X184481421Y-31158148D01*
X184483985Y-31156072D01*
X184498500Y-31141557D01*
X184503285Y-31137016D01*
X184549201Y-31095673D01*
X184554110Y-31091253D01*
X184562384Y-31079865D01*
X184575225Y-31064832D01*
X186861405Y-28778652D01*
X186923717Y-28744626D01*
X186994532Y-28749691D01*
G37*
%TD.AperFunction*%
%TA.AperFunction,Conductor*%
G36*
X197163132Y-27043746D02*
G01*
X197209625Y-27097402D01*
X197221011Y-27149744D01*
X197221011Y-30495524D01*
X197201009Y-30563645D01*
X197147353Y-30610138D01*
X197077079Y-30620242D01*
X197029740Y-30603300D01*
X196904992Y-30527750D01*
X196891243Y-30521542D01*
X196741356Y-30474571D01*
X196728306Y-30471958D01*
X196673414Y-30466914D01*
X196661876Y-30470302D01*
X196660671Y-30471692D01*
X196659000Y-30479375D01*
X196659000Y-32413711D01*
X196663475Y-32428950D01*
X196664865Y-32430155D01*
X196669294Y-32431118D01*
X196728315Y-32425695D01*
X196741351Y-32423084D01*
X196891243Y-32376112D01*
X196904992Y-32369904D01*
X197029740Y-32294354D01*
X197098369Y-32276175D01*
X197165933Y-32297985D01*
X197210979Y-32352861D01*
X197221011Y-32402130D01*
X197221011Y-32578553D01*
X197201009Y-32646674D01*
X197184106Y-32667649D01*
X196529499Y-33322255D01*
X196467187Y-33356280D01*
X196440405Y-33359159D01*
X196366827Y-33359159D01*
X196239020Y-33359160D01*
X196170900Y-33339158D01*
X196124407Y-33285503D01*
X196113020Y-33233160D01*
X196113020Y-32514860D01*
X196133022Y-32446739D01*
X196143796Y-32432347D01*
X196149329Y-32425962D01*
X196151000Y-32418279D01*
X196151000Y-30483943D01*
X196142804Y-30456030D01*
X196118124Y-30417627D01*
X196113020Y-30382129D01*
X196113020Y-29035710D01*
X196133022Y-28967589D01*
X196186678Y-28921096D01*
X196203516Y-28914816D01*
X196313411Y-28882548D01*
X196313842Y-28884016D01*
X196374288Y-28875324D01*
X196431924Y-28899217D01*
X196446351Y-28910030D01*
X196461946Y-28918568D01*
X196582394Y-28963722D01*
X196597649Y-28967349D01*
X196648514Y-28972875D01*
X196655328Y-28973244D01*
X196896885Y-28973244D01*
X196912124Y-28968769D01*
X196913329Y-28967379D01*
X196915000Y-28959696D01*
X196915000Y-27149744D01*
X196935002Y-27081623D01*
X196988658Y-27035130D01*
X197041000Y-27023744D01*
X197095011Y-27023744D01*
X197163132Y-27043746D01*
G37*
%TD.AperFunction*%
%TD*%
M02*
