M48
; DRILL file {KiCad (6.0.4)} date Tue 29 Mar 2022 09:37:12 AM CST
; FORMAT={-:-/ absolute / inch / decimal}
; #@! TF.CreationDate,2022-03-29T09:37:12-06:00
; #@! TF.GenerationSoftware,Kicad,Pcbnew,(6.0.4)
; #@! TF.FileFunction,Plated,1,2,PTH
FMAT,2
INCH
; #@! TA.AperFunction,Plated,PTH,ViaDrill
T1C0.0157
; #@! TA.AperFunction,Plated,PTH,ComponentDrill
T2C0.0256
; #@! TA.AperFunction,Plated,PTH,ComponentDrill
T3C0.0394
; #@! TA.AperFunction,Plated,PTH,ComponentDrill
T4C0.0512
%
G90
G05
T1
X6.3Y-1.6
X6.4Y-1.6
X6.5Y-1.55
X6.6Y-1.45
X6.7Y-1.3744
X7.5Y-1.9
X7.5783Y-2.7887
X7.6Y-2.5492
X7.6Y-2.9492
X7.603Y-2.097
X7.6449Y-1.4744
X7.6675Y-1.3521
X7.7Y-2.85
X7.7604Y-1.8396
X7.761Y-1.2744
X7.7895Y-2.0
X7.8Y-1.8
X7.8Y-1.9
X7.8181Y-2.5492
T2
X6.4754Y-1.275
X6.4754Y-1.325
X6.4754Y-1.375
X6.5254Y-1.275
X6.5254Y-1.325
X6.5254Y-1.375
T3
X6.5Y-2.6
X6.5Y-2.7
X6.5Y-2.8
X6.6Y-2.6
X6.6Y-2.7
X6.6Y-2.8
T4
X6.4185Y-1.7652
X6.4185Y-1.9652
X6.4185Y-2.1652
X6.4185Y-2.3652
X6.9207Y-1.0382
X6.9207Y-1.5106
X6.9207Y-1.7439
X6.9207Y-2.2163
X6.9216Y-2.4717
X6.9216Y-2.9441
X7.401Y-1.0382
X7.401Y-1.5106
X7.401Y-1.7439
X7.401Y-2.2163
X7.4019Y-2.4717
X7.4019Y-2.9441
X7.4797Y-1.2744
X7.4797Y-1.9801
X7.4807Y-2.7079
T0
M30
