%TF.GenerationSoftware,KiCad,Pcbnew,(6.0.4)*%
%TF.CreationDate,2022-03-29T09:37:11-06:00*%
%TF.ProjectId,luces_status,6c756365-735f-4737-9461-7475732e6b69,rev?*%
%TF.SameCoordinates,Original*%
%TF.FileFunction,Paste,Top*%
%TF.FilePolarity,Positive*%
%FSLAX46Y46*%
G04 Gerber Fmt 4.6, Leading zero omitted, Abs format (unit mm)*
G04 Created by KiCad (PCBNEW (6.0.4)) date 2022-03-29 09:37:11*
%MOMM*%
%LPD*%
G01*
G04 APERTURE LIST*
G04 Aperture macros list*
%AMRoundRect*
0 Rectangle with rounded corners*
0 $1 Rounding radius*
0 $2 $3 $4 $5 $6 $7 $8 $9 X,Y pos of 4 corners*
0 Add a 4 corners polygon primitive as box body*
4,1,4,$2,$3,$4,$5,$6,$7,$8,$9,$2,$3,0*
0 Add four circle primitives for the rounded corners*
1,1,$1+$1,$2,$3*
1,1,$1+$1,$4,$5*
1,1,$1+$1,$6,$7*
1,1,$1+$1,$8,$9*
0 Add four rect primitives between the rounded corners*
20,1,$1+$1,$2,$3,$4,$5,0*
20,1,$1+$1,$4,$5,$6,$7,0*
20,1,$1+$1,$6,$7,$8,$9,0*
20,1,$1+$1,$8,$9,$2,$3,0*%
G04 Aperture macros list end*
%ADD10RoundRect,0.200000X-0.200000X-0.275000X0.200000X-0.275000X0.200000X0.275000X-0.200000X0.275000X0*%
%ADD11R,1.200000X1.200000*%
%ADD12R,0.510000X0.635000*%
%ADD13R,0.830000X0.300000*%
%ADD14R,0.750000X0.300000*%
%ADD15RoundRect,0.200000X0.200000X0.275000X-0.200000X0.275000X-0.200000X-0.275000X0.200000X-0.275000X0*%
G04 APERTURE END LIST*
D10*
%TO.C,R4*%
X194755000Y-48260000D03*
X196405000Y-48260000D03*
%TD*%
%TO.C,R5*%
X194755000Y-69828957D03*
X196405000Y-69828957D03*
%TD*%
D11*
%TO.C,D3*%
X195580000Y-54480000D03*
X195580000Y-57280000D03*
%TD*%
D10*
%TO.C,R2*%
X194755000Y-31448827D03*
X196405000Y-31448827D03*
%TD*%
D12*
%TO.C,Q1*%
X195795000Y-26664244D03*
D13*
X197115000Y-26965244D03*
X197115000Y-27615244D03*
X197115000Y-28265244D03*
D12*
X195795000Y-27916244D03*
D13*
X197115000Y-26315244D03*
D12*
X194935000Y-26664244D03*
D14*
X194005000Y-28265244D03*
X194005000Y-26315244D03*
D12*
X194935000Y-27916244D03*
D14*
X194005000Y-27615244D03*
X194005000Y-26965244D03*
%TD*%
D10*
%TO.C,R1*%
X194755000Y-34342659D03*
X196405000Y-34342659D03*
%TD*%
D11*
%TO.C,D5*%
X195580000Y-74908957D03*
X195580000Y-72108957D03*
%TD*%
D12*
%TO.C,Q2*%
X194935000Y-42554000D03*
X195795000Y-42554000D03*
D14*
X194005000Y-43505000D03*
D13*
X197115000Y-42855000D03*
X197115000Y-42205000D03*
D12*
X195795000Y-43806000D03*
D14*
X194005000Y-44155000D03*
X194005000Y-42855000D03*
X194005000Y-42205000D03*
D13*
X197115000Y-43505000D03*
D12*
X194935000Y-43806000D03*
D13*
X197115000Y-44155000D03*
%TD*%
%TO.C,Q3*%
X197115000Y-62533957D03*
X197115000Y-61883957D03*
D12*
X194935000Y-62834957D03*
D13*
X197115000Y-61233957D03*
X197115000Y-63183957D03*
D14*
X194005000Y-63183957D03*
X194005000Y-61233957D03*
X194005000Y-62533957D03*
D12*
X195795000Y-61582957D03*
D14*
X194005000Y-61883957D03*
D12*
X194935000Y-61582957D03*
X195795000Y-62834957D03*
%TD*%
D15*
%TO.C,R6*%
X196405000Y-67288957D03*
X194755000Y-67288957D03*
%TD*%
D11*
%TO.C,D1*%
X194180000Y-37450244D03*
X196980000Y-37450244D03*
%TD*%
D10*
%TO.C,R3*%
X194755000Y-50800000D03*
X196405000Y-50800000D03*
%TD*%
M02*
