%TF.GenerationSoftware,KiCad,Pcbnew,(6.0.4)*%
%TF.CreationDate,2022-03-29T09:37:11-06:00*%
%TF.ProjectId,luces_status,6c756365-735f-4737-9461-7475732e6b69,rev?*%
%TF.SameCoordinates,Original*%
%TF.FileFunction,Legend,Top*%
%TF.FilePolarity,Positive*%
%FSLAX46Y46*%
G04 Gerber Fmt 4.6, Leading zero omitted, Abs format (unit mm)*
G04 Created by KiCad (PCBNEW (6.0.4)) date 2022-03-29 09:37:11*
%MOMM*%
%LPD*%
G01*
G04 APERTURE LIST*
%ADD10C,0.075000*%
%ADD11C,0.150000*%
%ADD12C,0.120000*%
G04 APERTURE END LIST*
D10*
X162840622Y-66399998D02*
X162869193Y-66457141D01*
X162869193Y-66571426D01*
X162840622Y-66628569D01*
X162812050Y-66657141D01*
X162754907Y-66685712D01*
X162583479Y-66685712D01*
X162526336Y-66657141D01*
X162497765Y-66628569D01*
X162469193Y-66571426D01*
X162469193Y-66457141D01*
X162497765Y-66399998D01*
X162469193Y-66228569D02*
X162469193Y-65999998D01*
X162269193Y-66142855D02*
X162783479Y-66142855D01*
X162840622Y-66114284D01*
X162869193Y-66057141D01*
X162869193Y-65999998D01*
X162869193Y-65799998D02*
X162469193Y-65799998D01*
X162583479Y-65799998D02*
X162526336Y-65771426D01*
X162497765Y-65742855D01*
X162469193Y-65685712D01*
X162469193Y-65628569D01*
X162869193Y-65342855D02*
X162840622Y-65399998D01*
X162783479Y-65428569D01*
X162269193Y-65428569D01*
X162926336Y-65257141D02*
X162926336Y-64799998D01*
X162869193Y-64657141D02*
X162469193Y-64657141D01*
X162583479Y-64657141D02*
X162526336Y-64628569D01*
X162497765Y-64599998D01*
X162469193Y-64542855D01*
X162469193Y-64485712D01*
X162802857Y-72583571D02*
X162831428Y-72640714D01*
X162831428Y-72755000D01*
X162802857Y-72812142D01*
X162774285Y-72840714D01*
X162717142Y-72869285D01*
X162545714Y-72869285D01*
X162488571Y-72840714D01*
X162460000Y-72812142D01*
X162431428Y-72755000D01*
X162431428Y-72640714D01*
X162460000Y-72583571D01*
X162431428Y-72412142D02*
X162431428Y-72183571D01*
X162231428Y-72326428D02*
X162745714Y-72326428D01*
X162802857Y-72297857D01*
X162831428Y-72240714D01*
X162831428Y-72183571D01*
X162831428Y-71983571D02*
X162431428Y-71983571D01*
X162545714Y-71983571D02*
X162488571Y-71955000D01*
X162460000Y-71926428D01*
X162431428Y-71869285D01*
X162431428Y-71812142D01*
X162831428Y-71526428D02*
X162802857Y-71583571D01*
X162745714Y-71612142D01*
X162231428Y-71612142D01*
X162888571Y-71440714D02*
X162888571Y-70983571D01*
X162431428Y-70897857D02*
X162831428Y-70755000D01*
X162431428Y-70612142D01*
X164498317Y-36469977D02*
X164955460Y-36469977D01*
X164726888Y-36698548D02*
X164726888Y-36241405D01*
X165555460Y-36698548D02*
X165212602Y-36698548D01*
X165384031Y-36698548D02*
X165384031Y-36098548D01*
X165326888Y-36184262D01*
X165269745Y-36241405D01*
X165212602Y-36269977D01*
X165784031Y-36155691D02*
X165812602Y-36127120D01*
X165869745Y-36098548D01*
X166012602Y-36098548D01*
X166069745Y-36127120D01*
X166098317Y-36155691D01*
X166126888Y-36212834D01*
X166126888Y-36269977D01*
X166098317Y-36355691D01*
X165755460Y-36698548D01*
X166126888Y-36698548D01*
X166298317Y-36098548D02*
X166498317Y-36698548D01*
X166698317Y-36098548D01*
X157383568Y-45469378D02*
X157354997Y-45526521D01*
X157297854Y-45555092D01*
X156783568Y-45555092D01*
X157354997Y-45012235D02*
X157383568Y-45069378D01*
X157383568Y-45183664D01*
X157354997Y-45240807D01*
X157297854Y-45269378D01*
X157069282Y-45269378D01*
X157012140Y-45240807D01*
X156983568Y-45183664D01*
X156983568Y-45069378D01*
X157012140Y-45012235D01*
X157069282Y-44983664D01*
X157126425Y-44983664D01*
X157183568Y-45269378D01*
X157383568Y-44469378D02*
X156783568Y-44469378D01*
X157354997Y-44469378D02*
X157383568Y-44526521D01*
X157383568Y-44640807D01*
X157354997Y-44697950D01*
X157326425Y-44726521D01*
X157269282Y-44755092D01*
X157097854Y-44755092D01*
X157040711Y-44726521D01*
X157012140Y-44697950D01*
X156983568Y-44640807D01*
X156983568Y-44526521D01*
X157012140Y-44469378D01*
X157440711Y-44326521D02*
X157440711Y-43869378D01*
X157383568Y-43726521D02*
X156983568Y-43726521D01*
X157097854Y-43726521D02*
X157040711Y-43697950D01*
X157012140Y-43669378D01*
X156983568Y-43612235D01*
X156983568Y-43555092D01*
X162802857Y-69451428D02*
X162831428Y-69508571D01*
X162831428Y-69622857D01*
X162802857Y-69680000D01*
X162774285Y-69708571D01*
X162717142Y-69737142D01*
X162545714Y-69737142D01*
X162488571Y-69708571D01*
X162460000Y-69680000D01*
X162431428Y-69622857D01*
X162431428Y-69508571D01*
X162460000Y-69451428D01*
X162431428Y-69280000D02*
X162431428Y-69051428D01*
X162231428Y-69194285D02*
X162745714Y-69194285D01*
X162802857Y-69165714D01*
X162831428Y-69108571D01*
X162831428Y-69051428D01*
X162831428Y-68851428D02*
X162431428Y-68851428D01*
X162545714Y-68851428D02*
X162488571Y-68822857D01*
X162460000Y-68794285D01*
X162431428Y-68737142D01*
X162431428Y-68680000D01*
X162831428Y-68394285D02*
X162802857Y-68451428D01*
X162745714Y-68480000D01*
X162231428Y-68480000D01*
X162888571Y-68308571D02*
X162888571Y-67851428D01*
X162431428Y-67708571D02*
X162831428Y-67708571D01*
X162488571Y-67708571D02*
X162460000Y-67680000D01*
X162431428Y-67622857D01*
X162431428Y-67537142D01*
X162460000Y-67480000D01*
X162517142Y-67451428D01*
X162831428Y-67451428D01*
X165784989Y-30577631D02*
X165727846Y-30549059D01*
X165642132Y-30549059D01*
X165556417Y-30577631D01*
X165499274Y-30634773D01*
X165470703Y-30691916D01*
X165442132Y-30806202D01*
X165442132Y-30891916D01*
X165470703Y-31006202D01*
X165499274Y-31063345D01*
X165556417Y-31120488D01*
X165642132Y-31149059D01*
X165699274Y-31149059D01*
X165784989Y-31120488D01*
X165813560Y-31091916D01*
X165813560Y-30891916D01*
X165699274Y-30891916D01*
X166070703Y-31149059D02*
X166070703Y-30549059D01*
X166413560Y-31149059D01*
X166413560Y-30549059D01*
X166699274Y-31149059D02*
X166699274Y-30549059D01*
X166842132Y-30549059D01*
X166927846Y-30577631D01*
X166984989Y-30634773D01*
X167013560Y-30691916D01*
X167042132Y-30806202D01*
X167042132Y-30891916D01*
X167013560Y-31006202D01*
X166984989Y-31063345D01*
X166927846Y-31120488D01*
X166842132Y-31149059D01*
X166699274Y-31149059D01*
X166801623Y-73526351D02*
X167258766Y-73526351D01*
X167030194Y-73754922D02*
X167030194Y-73297779D01*
X167858766Y-73754922D02*
X167515908Y-73754922D01*
X167687337Y-73754922D02*
X167687337Y-73154922D01*
X167630194Y-73240636D01*
X167573051Y-73297779D01*
X167515908Y-73326351D01*
X168087337Y-73212065D02*
X168115908Y-73183494D01*
X168173051Y-73154922D01*
X168315908Y-73154922D01*
X168373051Y-73183494D01*
X168401623Y-73212065D01*
X168430194Y-73269208D01*
X168430194Y-73326351D01*
X168401623Y-73412065D01*
X168058766Y-73754922D01*
X168430194Y-73754922D01*
X168601623Y-73154922D02*
X168801623Y-73754922D01*
X169001623Y-73154922D01*
X162659245Y-37658571D02*
X162687816Y-37715714D01*
X162687816Y-37830000D01*
X162659245Y-37887142D01*
X162630673Y-37915714D01*
X162573530Y-37944285D01*
X162402102Y-37944285D01*
X162344959Y-37915714D01*
X162316388Y-37887142D01*
X162287816Y-37830000D01*
X162287816Y-37715714D01*
X162316388Y-37658571D01*
X162287816Y-37487142D02*
X162287816Y-37258571D01*
X162087816Y-37401428D02*
X162602102Y-37401428D01*
X162659245Y-37372857D01*
X162687816Y-37315714D01*
X162687816Y-37258571D01*
X162687816Y-37058571D02*
X162287816Y-37058571D01*
X162402102Y-37058571D02*
X162344959Y-37030000D01*
X162316388Y-37001428D01*
X162287816Y-36944285D01*
X162287816Y-36887142D01*
X162687816Y-36601428D02*
X162659245Y-36658571D01*
X162602102Y-36687142D01*
X162087816Y-36687142D01*
X162744959Y-36515714D02*
X162744959Y-36058571D01*
X162287816Y-35972857D02*
X162687816Y-35830000D01*
X162287816Y-35687142D01*
X156812140Y-60930092D02*
X156783568Y-60987235D01*
X156783568Y-61072950D01*
X156812140Y-61158664D01*
X156869282Y-61215807D01*
X156926425Y-61244378D01*
X157040711Y-61272950D01*
X157126425Y-61272950D01*
X157240711Y-61244378D01*
X157297854Y-61215807D01*
X157354997Y-61158664D01*
X157383568Y-61072950D01*
X157383568Y-61015807D01*
X157354997Y-60930092D01*
X157326425Y-60901521D01*
X157126425Y-60901521D01*
X157126425Y-61015807D01*
X157383568Y-60644378D02*
X156783568Y-60644378D01*
X157383568Y-60301521D01*
X156783568Y-60301521D01*
X157383568Y-60015807D02*
X156783568Y-60015807D01*
X156783568Y-59872950D01*
X156812140Y-59787235D01*
X156869282Y-59730092D01*
X156926425Y-59701521D01*
X157040711Y-59672950D01*
X157126425Y-59672950D01*
X157240711Y-59701521D01*
X157297854Y-59730092D01*
X157354997Y-59787235D01*
X157383568Y-59872950D01*
X157383568Y-60015807D01*
X162646810Y-34783123D02*
X162675381Y-34840266D01*
X162675381Y-34954552D01*
X162646810Y-35011695D01*
X162618238Y-35040266D01*
X162561095Y-35068837D01*
X162389667Y-35068837D01*
X162332524Y-35040266D01*
X162303953Y-35011695D01*
X162275381Y-34954552D01*
X162275381Y-34840266D01*
X162303953Y-34783123D01*
X162275381Y-34611695D02*
X162275381Y-34383123D01*
X162075381Y-34525980D02*
X162589667Y-34525980D01*
X162646810Y-34497409D01*
X162675381Y-34440266D01*
X162675381Y-34383123D01*
X162675381Y-34183123D02*
X162275381Y-34183123D01*
X162389667Y-34183123D02*
X162332524Y-34154552D01*
X162303953Y-34125980D01*
X162275381Y-34068837D01*
X162275381Y-34011695D01*
X162675381Y-33725980D02*
X162646810Y-33783123D01*
X162589667Y-33811695D01*
X162075381Y-33811695D01*
X162732524Y-33640266D02*
X162732524Y-33183123D01*
X162275381Y-33040266D02*
X162675381Y-33040266D01*
X162332524Y-33040266D02*
X162303953Y-33011695D01*
X162275381Y-32954552D01*
X162275381Y-32868837D01*
X162303953Y-32811695D01*
X162361095Y-32783123D01*
X162675381Y-32783123D01*
X157383568Y-56307235D02*
X157354997Y-56364378D01*
X157297854Y-56392950D01*
X156783568Y-56392950D01*
X157354997Y-55850092D02*
X157383568Y-55907235D01*
X157383568Y-56021521D01*
X157354997Y-56078664D01*
X157297854Y-56107235D01*
X157069282Y-56107235D01*
X157012140Y-56078664D01*
X156983568Y-56021521D01*
X156983568Y-55907235D01*
X157012140Y-55850092D01*
X157069282Y-55821521D01*
X157126425Y-55821521D01*
X157183568Y-56107235D01*
X157383568Y-55307235D02*
X156783568Y-55307235D01*
X157354997Y-55307235D02*
X157383568Y-55364378D01*
X157383568Y-55478664D01*
X157354997Y-55535807D01*
X157326425Y-55564378D01*
X157269282Y-55592950D01*
X157097854Y-55592950D01*
X157040711Y-55564378D01*
X157012140Y-55535807D01*
X156983568Y-55478664D01*
X156983568Y-55364378D01*
X157012140Y-55307235D01*
X157440711Y-55164378D02*
X157440711Y-54707235D01*
X156983568Y-54621521D02*
X157383568Y-54478664D01*
X156983568Y-54335807D01*
X162669236Y-31265714D02*
X162697807Y-31322857D01*
X162697807Y-31437142D01*
X162669236Y-31494285D01*
X162640664Y-31522857D01*
X162583521Y-31551428D01*
X162412093Y-31551428D01*
X162354950Y-31522857D01*
X162326379Y-31494285D01*
X162297807Y-31437142D01*
X162297807Y-31322857D01*
X162326379Y-31265714D01*
X162297807Y-31094285D02*
X162297807Y-30865714D01*
X162097807Y-31008571D02*
X162612093Y-31008571D01*
X162669236Y-30980000D01*
X162697807Y-30922857D01*
X162697807Y-30865714D01*
X162697807Y-30665714D02*
X162297807Y-30665714D01*
X162412093Y-30665714D02*
X162354950Y-30637142D01*
X162326379Y-30608571D01*
X162297807Y-30551428D01*
X162297807Y-30494285D01*
X162697807Y-30208571D02*
X162669236Y-30265714D01*
X162612093Y-30294285D01*
X162097807Y-30294285D01*
X162754950Y-30122857D02*
X162754950Y-29665714D01*
X162697807Y-29522857D02*
X162297807Y-29522857D01*
X162412093Y-29522857D02*
X162354950Y-29494285D01*
X162326379Y-29465714D01*
X162297807Y-29408571D01*
X162297807Y-29351428D01*
X167958933Y-63553186D02*
X167901790Y-63524614D01*
X167816076Y-63524614D01*
X167730361Y-63553186D01*
X167673218Y-63610328D01*
X167644647Y-63667471D01*
X167616076Y-63781757D01*
X167616076Y-63867471D01*
X167644647Y-63981757D01*
X167673218Y-64038900D01*
X167730361Y-64096043D01*
X167816076Y-64124614D01*
X167873218Y-64124614D01*
X167958933Y-64096043D01*
X167987504Y-64067471D01*
X167987504Y-63867471D01*
X167873218Y-63867471D01*
X168244647Y-64124614D02*
X168244647Y-63524614D01*
X168587504Y-64124614D01*
X168587504Y-63524614D01*
X168873218Y-64124614D02*
X168873218Y-63524614D01*
X169016076Y-63524614D01*
X169101790Y-63553186D01*
X169158933Y-63610328D01*
X169187504Y-63667471D01*
X169216076Y-63781757D01*
X169216076Y-63867471D01*
X169187504Y-63981757D01*
X169158933Y-64038900D01*
X169101790Y-64096043D01*
X169016076Y-64124614D01*
X168873218Y-64124614D01*
X157383568Y-51270092D02*
X157354997Y-51327235D01*
X157297854Y-51355807D01*
X156783568Y-51355807D01*
X157354997Y-50812950D02*
X157383568Y-50870092D01*
X157383568Y-50984378D01*
X157354997Y-51041521D01*
X157297854Y-51070092D01*
X157069282Y-51070092D01*
X157012140Y-51041521D01*
X156983568Y-50984378D01*
X156983568Y-50870092D01*
X157012140Y-50812950D01*
X157069282Y-50784378D01*
X157126425Y-50784378D01*
X157183568Y-51070092D01*
X157383568Y-50270092D02*
X156783568Y-50270092D01*
X157354997Y-50270092D02*
X157383568Y-50327235D01*
X157383568Y-50441521D01*
X157354997Y-50498664D01*
X157326425Y-50527235D01*
X157269282Y-50555807D01*
X157097854Y-50555807D01*
X157040711Y-50527235D01*
X157012140Y-50498664D01*
X156983568Y-50441521D01*
X156983568Y-50327235D01*
X157012140Y-50270092D01*
X157440711Y-50127235D02*
X157440711Y-49670092D01*
X156983568Y-49527235D02*
X157383568Y-49527235D01*
X157040711Y-49527235D02*
X157012140Y-49498664D01*
X156983568Y-49441521D01*
X156983568Y-49355807D01*
X157012140Y-49298664D01*
X157069282Y-49270092D01*
X157383568Y-49270092D01*
D11*
%TO.C,R4*%
X195413333Y-47282380D02*
X195080000Y-46806190D01*
X194841904Y-47282380D02*
X194841904Y-46282380D01*
X195222857Y-46282380D01*
X195318095Y-46330000D01*
X195365714Y-46377619D01*
X195413333Y-46472857D01*
X195413333Y-46615714D01*
X195365714Y-46710952D01*
X195318095Y-46758571D01*
X195222857Y-46806190D01*
X194841904Y-46806190D01*
X196270476Y-46615714D02*
X196270476Y-47282380D01*
X196032380Y-46234761D02*
X195794285Y-46949047D01*
X196413333Y-46949047D01*
%TO.C,R5*%
X195413333Y-68851337D02*
X195080000Y-68375147D01*
X194841904Y-68851337D02*
X194841904Y-67851337D01*
X195222857Y-67851337D01*
X195318095Y-67898957D01*
X195365714Y-67946576D01*
X195413333Y-68041814D01*
X195413333Y-68184671D01*
X195365714Y-68279909D01*
X195318095Y-68327528D01*
X195222857Y-68375147D01*
X194841904Y-68375147D01*
X196318095Y-67851337D02*
X195841904Y-67851337D01*
X195794285Y-68327528D01*
X195841904Y-68279909D01*
X195937142Y-68232290D01*
X196175238Y-68232290D01*
X196270476Y-68279909D01*
X196318095Y-68327528D01*
X196365714Y-68422766D01*
X196365714Y-68660861D01*
X196318095Y-68756099D01*
X196270476Y-68803718D01*
X196175238Y-68851337D01*
X195937142Y-68851337D01*
X195841904Y-68803718D01*
X195794285Y-68756099D01*
%TO.C,K1*%
X194237380Y-33108339D02*
X193237380Y-33108339D01*
X194237380Y-32536910D02*
X193665952Y-32965482D01*
X193237380Y-32536910D02*
X193808809Y-33108339D01*
X194237380Y-31584529D02*
X194237380Y-32155958D01*
X194237380Y-31870244D02*
X193237380Y-31870244D01*
X193380238Y-31965482D01*
X193475476Y-32060720D01*
X193523095Y-32155958D01*
%TO.C,K3*%
X194261595Y-69519483D02*
X193261595Y-69519483D01*
X194261595Y-68948054D02*
X193690167Y-69376626D01*
X193261595Y-68948054D02*
X193833024Y-69519483D01*
X193261595Y-68614721D02*
X193261595Y-67995673D01*
X193642548Y-68329007D01*
X193642548Y-68186149D01*
X193690167Y-68090911D01*
X193737786Y-68043292D01*
X193833024Y-67995673D01*
X194071119Y-67995673D01*
X194166357Y-68043292D01*
X194213976Y-68090911D01*
X194261595Y-68186149D01*
X194261595Y-68471864D01*
X194213976Y-68567102D01*
X194166357Y-68614721D01*
%TO.C,D3*%
X197937380Y-59158095D02*
X196937380Y-59158095D01*
X196937380Y-58920000D01*
X196985000Y-58777142D01*
X197080238Y-58681904D01*
X197175476Y-58634285D01*
X197365952Y-58586666D01*
X197508809Y-58586666D01*
X197699285Y-58634285D01*
X197794523Y-58681904D01*
X197889761Y-58777142D01*
X197937380Y-58920000D01*
X197937380Y-59158095D01*
X196937380Y-58253333D02*
X196937380Y-57634285D01*
X197318333Y-57967619D01*
X197318333Y-57824761D01*
X197365952Y-57729523D01*
X197413571Y-57681904D01*
X197508809Y-57634285D01*
X197746904Y-57634285D01*
X197842142Y-57681904D01*
X197889761Y-57729523D01*
X197937380Y-57824761D01*
X197937380Y-58110476D01*
X197889761Y-58205714D01*
X197842142Y-58253333D01*
%TO.C,J3*%
X168742380Y-52788333D02*
X169456666Y-52788333D01*
X169599523Y-52835952D01*
X169694761Y-52931190D01*
X169742380Y-53074047D01*
X169742380Y-53169285D01*
X168742380Y-52407380D02*
X168742380Y-51788333D01*
X169123333Y-52121666D01*
X169123333Y-51978809D01*
X169170952Y-51883571D01*
X169218571Y-51835952D01*
X169313809Y-51788333D01*
X169551904Y-51788333D01*
X169647142Y-51835952D01*
X169694761Y-51883571D01*
X169742380Y-51978809D01*
X169742380Y-52264523D01*
X169694761Y-52359761D01*
X169647142Y-52407380D01*
%TO.C,R2*%
X195413333Y-30471207D02*
X195080000Y-29995017D01*
X194841904Y-30471207D02*
X194841904Y-29471207D01*
X195222857Y-29471207D01*
X195318095Y-29518827D01*
X195365714Y-29566446D01*
X195413333Y-29661684D01*
X195413333Y-29804541D01*
X195365714Y-29899779D01*
X195318095Y-29947398D01*
X195222857Y-29995017D01*
X194841904Y-29995017D01*
X195794285Y-29566446D02*
X195841904Y-29518827D01*
X195937142Y-29471207D01*
X196175238Y-29471207D01*
X196270476Y-29518827D01*
X196318095Y-29566446D01*
X196365714Y-29661684D01*
X196365714Y-29756922D01*
X196318095Y-29899779D01*
X195746666Y-30471207D01*
X196365714Y-30471207D01*
%TO.C,J2*%
X164766666Y-62952380D02*
X164766666Y-63666666D01*
X164719047Y-63809523D01*
X164623809Y-63904761D01*
X164480952Y-63952380D01*
X164385714Y-63952380D01*
X165195238Y-63047619D02*
X165242857Y-63000000D01*
X165338095Y-62952380D01*
X165576190Y-62952380D01*
X165671428Y-63000000D01*
X165719047Y-63047619D01*
X165766666Y-63142857D01*
X165766666Y-63238095D01*
X165719047Y-63380952D01*
X165147619Y-63952380D01*
X165766666Y-63952380D01*
%TO.C,Q1*%
X195484761Y-30387863D02*
X195389523Y-30340244D01*
X195294285Y-30245005D01*
X195151428Y-30102148D01*
X195056190Y-30054529D01*
X194960952Y-30054529D01*
X195008571Y-30292624D02*
X194913333Y-30245005D01*
X194818095Y-30149767D01*
X194770476Y-29959291D01*
X194770476Y-29625958D01*
X194818095Y-29435482D01*
X194913333Y-29340244D01*
X195008571Y-29292624D01*
X195199047Y-29292624D01*
X195294285Y-29340244D01*
X195389523Y-29435482D01*
X195437142Y-29625958D01*
X195437142Y-29959291D01*
X195389523Y-30149767D01*
X195294285Y-30245005D01*
X195199047Y-30292624D01*
X195008571Y-30292624D01*
X196389523Y-30292624D02*
X195818095Y-30292624D01*
X196103809Y-30292624D02*
X196103809Y-29292624D01*
X196008571Y-29435482D01*
X195913333Y-29530720D01*
X195818095Y-29578339D01*
%TO.C,R1*%
X195413333Y-33365039D02*
X195080000Y-32888849D01*
X194841904Y-33365039D02*
X194841904Y-32365039D01*
X195222857Y-32365039D01*
X195318095Y-32412659D01*
X195365714Y-32460278D01*
X195413333Y-32555516D01*
X195413333Y-32698373D01*
X195365714Y-32793611D01*
X195318095Y-32841230D01*
X195222857Y-32888849D01*
X194841904Y-32888849D01*
X196365714Y-33365039D02*
X195794285Y-33365039D01*
X196080000Y-33365039D02*
X196080000Y-32365039D01*
X195984761Y-32507897D01*
X195889523Y-32603135D01*
X195794285Y-32650754D01*
%TO.C,D5*%
X194032380Y-74247052D02*
X193032380Y-74247052D01*
X193032380Y-74008957D01*
X193080000Y-73866099D01*
X193175238Y-73770861D01*
X193270476Y-73723242D01*
X193460952Y-73675623D01*
X193603809Y-73675623D01*
X193794285Y-73723242D01*
X193889523Y-73770861D01*
X193984761Y-73866099D01*
X194032380Y-74008957D01*
X194032380Y-74247052D01*
X193032380Y-72770861D02*
X193032380Y-73247052D01*
X193508571Y-73294671D01*
X193460952Y-73247052D01*
X193413333Y-73151814D01*
X193413333Y-72913718D01*
X193460952Y-72818480D01*
X193508571Y-72770861D01*
X193603809Y-72723242D01*
X193841904Y-72723242D01*
X193937142Y-72770861D01*
X193984761Y-72818480D01*
X194032380Y-72913718D01*
X194032380Y-73151814D01*
X193984761Y-73247052D01*
X193937142Y-73294671D01*
%TO.C,Q2*%
X195484761Y-46277619D02*
X195389523Y-46230000D01*
X195294285Y-46134761D01*
X195151428Y-45991904D01*
X195056190Y-45944285D01*
X194960952Y-45944285D01*
X195008571Y-46182380D02*
X194913333Y-46134761D01*
X194818095Y-46039523D01*
X194770476Y-45849047D01*
X194770476Y-45515714D01*
X194818095Y-45325238D01*
X194913333Y-45230000D01*
X195008571Y-45182380D01*
X195199047Y-45182380D01*
X195294285Y-45230000D01*
X195389523Y-45325238D01*
X195437142Y-45515714D01*
X195437142Y-45849047D01*
X195389523Y-46039523D01*
X195294285Y-46134761D01*
X195199047Y-46182380D01*
X195008571Y-46182380D01*
X195818095Y-45277619D02*
X195865714Y-45230000D01*
X195960952Y-45182380D01*
X196199047Y-45182380D01*
X196294285Y-45230000D01*
X196341904Y-45277619D01*
X196389523Y-45372857D01*
X196389523Y-45468095D01*
X196341904Y-45610952D01*
X195770476Y-46182380D01*
X196389523Y-46182380D01*
%TO.C,Q3*%
X195484761Y-65306576D02*
X195389523Y-65258957D01*
X195294285Y-65163718D01*
X195151428Y-65020861D01*
X195056190Y-64973242D01*
X194960952Y-64973242D01*
X195008571Y-65211337D02*
X194913333Y-65163718D01*
X194818095Y-65068480D01*
X194770476Y-64878004D01*
X194770476Y-64544671D01*
X194818095Y-64354195D01*
X194913333Y-64258957D01*
X195008571Y-64211337D01*
X195199047Y-64211337D01*
X195294285Y-64258957D01*
X195389523Y-64354195D01*
X195437142Y-64544671D01*
X195437142Y-64878004D01*
X195389523Y-65068480D01*
X195294285Y-65163718D01*
X195199047Y-65211337D01*
X195008571Y-65211337D01*
X195770476Y-64211337D02*
X196389523Y-64211337D01*
X196056190Y-64592290D01*
X196199047Y-64592290D01*
X196294285Y-64639909D01*
X196341904Y-64687528D01*
X196389523Y-64782766D01*
X196389523Y-65020861D01*
X196341904Y-65116099D01*
X196294285Y-65163718D01*
X196199047Y-65211337D01*
X195913333Y-65211337D01*
X195818095Y-65163718D01*
X195770476Y-65116099D01*
%TO.C,R6*%
X195413333Y-69171337D02*
X195080000Y-68695147D01*
X194841904Y-69171337D02*
X194841904Y-68171337D01*
X195222857Y-68171337D01*
X195318095Y-68218957D01*
X195365714Y-68266576D01*
X195413333Y-68361814D01*
X195413333Y-68504671D01*
X195365714Y-68599909D01*
X195318095Y-68647528D01*
X195222857Y-68695147D01*
X194841904Y-68695147D01*
X196270476Y-68171337D02*
X196080000Y-68171337D01*
X195984761Y-68218957D01*
X195937142Y-68266576D01*
X195841904Y-68409433D01*
X195794285Y-68599909D01*
X195794285Y-68980861D01*
X195841904Y-69076099D01*
X195889523Y-69123718D01*
X195984761Y-69171337D01*
X196175238Y-69171337D01*
X196270476Y-69123718D01*
X196318095Y-69076099D01*
X196365714Y-68980861D01*
X196365714Y-68742766D01*
X196318095Y-68647528D01*
X196270476Y-68599909D01*
X196175238Y-68552290D01*
X195984761Y-68552290D01*
X195889523Y-68599909D01*
X195841904Y-68647528D01*
X195794285Y-68742766D01*
%TO.C,D1*%
X194841904Y-35902624D02*
X194841904Y-34902624D01*
X195080000Y-34902624D01*
X195222857Y-34950244D01*
X195318095Y-35045482D01*
X195365714Y-35140720D01*
X195413333Y-35331196D01*
X195413333Y-35474053D01*
X195365714Y-35664529D01*
X195318095Y-35759767D01*
X195222857Y-35855005D01*
X195080000Y-35902624D01*
X194841904Y-35902624D01*
X196365714Y-35902624D02*
X195794285Y-35902624D01*
X196080000Y-35902624D02*
X196080000Y-34902624D01*
X195984761Y-35045482D01*
X195889523Y-35140720D01*
X195794285Y-35188339D01*
%TO.C,J1*%
X164131666Y-29297380D02*
X164131666Y-30011666D01*
X164084047Y-30154523D01*
X163988809Y-30249761D01*
X163845952Y-30297380D01*
X163750714Y-30297380D01*
X165131666Y-30297380D02*
X164560238Y-30297380D01*
X164845952Y-30297380D02*
X164845952Y-29297380D01*
X164750714Y-29440238D01*
X164655476Y-29535476D01*
X164560238Y-29583095D01*
%TO.C,K2*%
X194237380Y-51033095D02*
X193237380Y-51033095D01*
X194237380Y-50461666D02*
X193665952Y-50890238D01*
X193237380Y-50461666D02*
X193808809Y-51033095D01*
X193332619Y-50080714D02*
X193285000Y-50033095D01*
X193237380Y-49937857D01*
X193237380Y-49699761D01*
X193285000Y-49604523D01*
X193332619Y-49556904D01*
X193427857Y-49509285D01*
X193523095Y-49509285D01*
X193665952Y-49556904D01*
X194237380Y-50128333D01*
X194237380Y-49509285D01*
%TO.C,R3*%
X195413333Y-49822380D02*
X195080000Y-49346190D01*
X194841904Y-49822380D02*
X194841904Y-48822380D01*
X195222857Y-48822380D01*
X195318095Y-48870000D01*
X195365714Y-48917619D01*
X195413333Y-49012857D01*
X195413333Y-49155714D01*
X195365714Y-49250952D01*
X195318095Y-49298571D01*
X195222857Y-49346190D01*
X194841904Y-49346190D01*
X195746666Y-48822380D02*
X196365714Y-48822380D01*
X196032380Y-49203333D01*
X196175238Y-49203333D01*
X196270476Y-49250952D01*
X196318095Y-49298571D01*
X196365714Y-49393809D01*
X196365714Y-49631904D01*
X196318095Y-49727142D01*
X196270476Y-49774761D01*
X196175238Y-49822380D01*
X195889523Y-49822380D01*
X195794285Y-49774761D01*
X195746666Y-49727142D01*
D12*
%TO.C,R4*%
X195342742Y-48782500D02*
X195817258Y-48782500D01*
X195342742Y-47737500D02*
X195817258Y-47737500D01*
%TO.C,R5*%
X195342742Y-69306457D02*
X195817258Y-69306457D01*
X195342742Y-70351457D02*
X195817258Y-70351457D01*
%TO.C,K1*%
X187785000Y-27870244D02*
X187785000Y-31020244D01*
X192895000Y-31370244D02*
X192895000Y-33370244D01*
X192635000Y-24020244D02*
X169935000Y-24020244D01*
X187185000Y-32720244D02*
X188385000Y-32720244D01*
X192635000Y-40720244D02*
X192635000Y-24020244D01*
X169935000Y-40720244D02*
X192635000Y-40720244D01*
X187785000Y-33720244D02*
X187785000Y-36870244D01*
X187585000Y-32020244D02*
X187985000Y-32720244D01*
X169935000Y-24020244D02*
X169935000Y-40720244D01*
X187185000Y-32020244D02*
X187185000Y-32720244D01*
X188385000Y-32020244D02*
X187185000Y-32020244D01*
X188385000Y-32720244D02*
X188385000Y-32020244D01*
%TO.C,K3*%
X187809215Y-64281388D02*
X187809215Y-67431388D01*
X187209215Y-69131388D02*
X188409215Y-69131388D01*
X169959215Y-60431388D02*
X169959215Y-77131388D01*
X192919215Y-67781388D02*
X192919215Y-69781388D01*
X169959215Y-77131388D02*
X192659215Y-77131388D01*
X187609215Y-68431388D02*
X188009215Y-69131388D01*
X188409215Y-68431388D02*
X187209215Y-68431388D01*
X187209215Y-68431388D02*
X187209215Y-69131388D01*
X188409215Y-69131388D02*
X188409215Y-68431388D01*
X187809215Y-70131388D02*
X187809215Y-73281388D01*
X192659215Y-60431388D02*
X169959215Y-60431388D01*
X192659215Y-77131388D02*
X192659215Y-60431388D01*
%TO.C,D3*%
X196530000Y-53620000D02*
X196530000Y-57280000D01*
X194630000Y-53620000D02*
X194630000Y-57280000D01*
X196530000Y-53620000D02*
X194630000Y-53620000D01*
%TO.C,J3*%
X164099000Y-61350000D02*
X164053000Y-61303000D01*
X164305000Y-61145000D02*
X164269000Y-61110000D01*
X164305000Y-56065000D02*
X164269000Y-56030000D01*
X162007000Y-48688000D02*
X161961000Y-48641000D01*
X161791000Y-53961000D02*
X161756000Y-53926000D01*
X168291000Y-42235000D02*
X158370000Y-42235000D01*
X160430000Y-42235000D02*
X160430000Y-62675000D01*
X161791000Y-59041000D02*
X161756000Y-59006000D01*
X168291000Y-42235000D02*
X168291000Y-62675000D01*
X162007000Y-53768000D02*
X161961000Y-53721000D01*
X164099000Y-51190000D02*
X164053000Y-51143000D01*
X165331000Y-42235000D02*
X165331000Y-62675000D01*
X158930000Y-42235000D02*
X158930000Y-62675000D01*
X164305000Y-50985000D02*
X164269000Y-50950000D01*
X161791000Y-48881000D02*
X161756000Y-48846000D01*
X158370000Y-42235000D02*
X158370000Y-62675000D01*
X168291000Y-62675000D02*
X158370000Y-62675000D01*
X162007000Y-58848000D02*
X161961000Y-58801000D01*
X164099000Y-56270000D02*
X164053000Y-56223000D01*
X158870000Y-41995000D02*
X158130000Y-41995000D01*
X158130000Y-41995000D02*
X158130000Y-42495000D01*
X163714000Y-43300000D02*
G75*
G03*
X162346958Y-43299573I-684001J-1534993D01*
G01*
X161495000Y-44151000D02*
G75*
G03*
X161349747Y-44863805I1535001J-683999D01*
G01*
X164565000Y-45519000D02*
G75*
G03*
X164565427Y-44151958I-1534993J684001D01*
G01*
X162346000Y-46370001D02*
G75*
G03*
X163713042Y-46370427I684000J1535001D01*
G01*
X161350000Y-44835000D02*
G75*
G03*
X161495244Y-45518318I1680000J0D01*
G01*
X164710000Y-54995000D02*
G75*
G03*
X164710000Y-54995000I-1680000J0D01*
G01*
X164710000Y-49915000D02*
G75*
G03*
X164710000Y-49915000I-1680000J0D01*
G01*
X164710000Y-60075000D02*
G75*
G03*
X164710000Y-60075000I-1680000J0D01*
G01*
%TO.C,R2*%
X195342742Y-31971327D02*
X195817258Y-31971327D01*
X195342742Y-30926327D02*
X195817258Y-30926327D01*
%TO.C,J2*%
X163770000Y-64710000D02*
X165100000Y-64710000D01*
X166370000Y-64710000D02*
X168970000Y-64710000D01*
X163770000Y-72450000D02*
X168970000Y-72450000D01*
X163770000Y-67310000D02*
X166370000Y-67310000D01*
X168970000Y-64710000D02*
X168970000Y-72450000D01*
X163770000Y-66040000D02*
X163770000Y-64710000D01*
X163770000Y-67310000D02*
X163770000Y-72450000D01*
X166370000Y-67310000D02*
X166370000Y-64710000D01*
%TO.C,Q1*%
X196800000Y-29060244D02*
X196800000Y-28765244D01*
X193960000Y-29060244D02*
X196800000Y-29060244D01*
X193960000Y-28765244D02*
X193960000Y-29060244D01*
X193960000Y-25520244D02*
X193960000Y-25815244D01*
X197530000Y-28765244D02*
X196800000Y-28765244D01*
X196800000Y-25815244D02*
X196800000Y-25520244D01*
X196800000Y-25520244D02*
X193960000Y-25520244D01*
%TO.C,R1*%
X195342742Y-34865159D02*
X195817258Y-34865159D01*
X195342742Y-33820159D02*
X195817258Y-33820159D01*
%TO.C,G\u002A\u002A\u002A*%
G36*
X200022959Y-63155629D02*
G01*
X200039224Y-63160547D01*
X200081689Y-63174350D01*
X200147620Y-63196126D01*
X200234283Y-63224963D01*
X200338946Y-63259947D01*
X200458875Y-63300165D01*
X200591335Y-63344707D01*
X200733594Y-63392658D01*
X200790457Y-63411855D01*
X201546501Y-63667211D01*
X201555441Y-63886151D01*
X201436419Y-63923613D01*
X201396236Y-63936148D01*
X201330606Y-63956481D01*
X201243286Y-63983456D01*
X201138032Y-64015914D01*
X201018603Y-64052697D01*
X200888755Y-64092646D01*
X200752245Y-64134604D01*
X200683542Y-64155705D01*
X200549797Y-64196801D01*
X200424788Y-64235269D01*
X200311602Y-64270154D01*
X200213328Y-64300501D01*
X200133053Y-64325358D01*
X200073864Y-64343769D01*
X200038850Y-64354780D01*
X200030596Y-64357488D01*
X200020050Y-64352852D01*
X200013964Y-64326592D01*
X200011600Y-64274815D01*
X200011504Y-64256739D01*
X200011504Y-64148836D01*
X200122237Y-64116186D01*
X200167844Y-64102686D01*
X200237236Y-64082075D01*
X200324931Y-64055986D01*
X200425446Y-64026051D01*
X200533297Y-63993902D01*
X200613535Y-63969965D01*
X200727626Y-63936187D01*
X200842441Y-63902681D01*
X200951507Y-63871300D01*
X201048351Y-63843899D01*
X201126498Y-63822330D01*
X201163125Y-63812595D01*
X201332151Y-63768796D01*
X201263679Y-63751212D01*
X201198034Y-63733756D01*
X201123035Y-63712602D01*
X201035476Y-63686770D01*
X200932151Y-63655283D01*
X200809854Y-63617160D01*
X200665380Y-63571424D01*
X200495521Y-63517097D01*
X200473530Y-63510034D01*
X200011504Y-63361589D01*
X200011504Y-63258174D01*
X200013047Y-63206605D01*
X200017100Y-63169834D01*
X200022793Y-63155627D01*
X200022959Y-63155629D01*
G37*
G36*
X202263236Y-53133119D02*
G01*
X202300142Y-53223224D01*
X202331813Y-53337245D01*
X202357612Y-53468900D01*
X202376899Y-53611907D01*
X202389037Y-53759983D01*
X202393386Y-53906845D01*
X202389310Y-54046210D01*
X202376168Y-54171796D01*
X202371570Y-54199324D01*
X202319984Y-54406076D01*
X202244043Y-54595018D01*
X202144712Y-54765431D01*
X202022958Y-54916591D01*
X201879746Y-55047779D01*
X201716043Y-55158273D01*
X201532813Y-55247350D01*
X201331023Y-55314290D01*
X201111639Y-55358371D01*
X200875626Y-55378872D01*
X200790457Y-55380344D01*
X200550520Y-55367653D01*
X200323925Y-55329927D01*
X200112104Y-55267800D01*
X199916485Y-55181902D01*
X199738498Y-55072867D01*
X199579574Y-54941325D01*
X199441142Y-54787909D01*
X199436474Y-54781875D01*
X199374371Y-54691612D01*
X199312284Y-54584747D01*
X199256496Y-54473176D01*
X199213290Y-54368797D01*
X199204112Y-54341890D01*
X199160649Y-54167988D01*
X199134719Y-53977164D01*
X199126334Y-53777519D01*
X199135505Y-53577152D01*
X199162241Y-53384164D01*
X199202612Y-53219280D01*
X199219997Y-53165555D01*
X199235222Y-53123694D01*
X199245243Y-53102006D01*
X199245848Y-53101260D01*
X199262951Y-53101209D01*
X199302162Y-53107568D01*
X199356146Y-53118604D01*
X199417571Y-53132580D01*
X199479101Y-53147762D01*
X199533403Y-53162415D01*
X199573144Y-53174803D01*
X199590682Y-53182844D01*
X199589168Y-53199415D01*
X199579187Y-53237836D01*
X199562630Y-53291219D01*
X199553248Y-53319131D01*
X199513481Y-53453453D01*
X199489414Y-53584133D01*
X199479586Y-53722215D01*
X199481655Y-53860772D01*
X199490568Y-53985147D01*
X199506421Y-54090117D01*
X199531846Y-54186522D01*
X199569477Y-54285198D01*
X199602026Y-54356306D01*
X199676097Y-54480108D01*
X199773954Y-54597333D01*
X199888837Y-54701120D01*
X200013987Y-54784607D01*
X200035168Y-54795962D01*
X200208096Y-54870416D01*
X200393835Y-54923242D01*
X200587642Y-54954572D01*
X200784775Y-54964535D01*
X200980492Y-54953263D01*
X201170052Y-54920886D01*
X201348711Y-54867535D01*
X201511729Y-54793340D01*
X201578378Y-54753411D01*
X201702123Y-54655692D01*
X201812239Y-54534734D01*
X201904621Y-54396323D01*
X201975164Y-54246244D01*
X202005842Y-54150970D01*
X202021428Y-54070872D01*
X202032560Y-53970142D01*
X202038856Y-53858426D01*
X202039936Y-53745366D01*
X202035418Y-53640605D01*
X202028553Y-53576203D01*
X202014267Y-53498622D01*
X201993187Y-53409601D01*
X201969433Y-53326232D01*
X201965016Y-53312615D01*
X201945886Y-53253511D01*
X201931728Y-53206692D01*
X201924462Y-53178676D01*
X201924102Y-53173639D01*
X201939741Y-53168886D01*
X201978727Y-53158536D01*
X202034732Y-53144239D01*
X202085362Y-53131605D01*
X202242384Y-53092779D01*
X202263236Y-53133119D01*
G37*
G36*
X199522748Y-58633772D02*
G01*
X202348365Y-58633772D01*
X202348365Y-59030886D01*
X199522748Y-59030886D01*
X199522748Y-59947302D01*
X199171456Y-59947302D01*
X199171456Y-57717356D01*
X199522748Y-57717356D01*
X199522748Y-58633772D01*
G37*
G36*
X200724643Y-62981373D02*
G01*
X200597201Y-62940650D01*
X200474443Y-62901474D01*
X200359683Y-62864906D01*
X200256233Y-62832004D01*
X200167407Y-62803828D01*
X200096517Y-62781439D01*
X200046876Y-62765894D01*
X200021798Y-62758255D01*
X200019415Y-62757645D01*
X200015724Y-62743584D01*
X200012952Y-62706244D01*
X200011575Y-62652892D01*
X200011521Y-62640609D01*
X200228847Y-62640609D01*
X200248174Y-62649545D01*
X200291348Y-62662727D01*
X200339659Y-62675985D01*
X200407527Y-62695102D01*
X200493821Y-62720628D01*
X200587966Y-62749376D01*
X200679386Y-62778161D01*
X200688593Y-62781119D01*
X200763903Y-62805239D01*
X200828271Y-62825610D01*
X200876400Y-62840574D01*
X200902994Y-62848474D01*
X200906470Y-62849286D01*
X200908700Y-62834929D01*
X200910573Y-62795518D01*
X200911926Y-62736549D01*
X200912600Y-62663514D01*
X200912646Y-62637694D01*
X200912646Y-62426102D01*
X200603356Y-62522006D01*
X200508362Y-62551293D01*
X200420716Y-62577997D01*
X200345534Y-62600586D01*
X200287929Y-62617526D01*
X200253018Y-62627283D01*
X200248245Y-62628465D01*
X200229994Y-62634166D01*
X200228847Y-62640609D01*
X200011521Y-62640609D01*
X200011504Y-62636701D01*
X200011504Y-62515758D01*
X200106964Y-62484848D01*
X200241442Y-62441358D01*
X200382654Y-62395788D01*
X200527675Y-62349073D01*
X200673583Y-62302149D01*
X200817453Y-62255951D01*
X200956362Y-62211416D01*
X201087386Y-62169478D01*
X201207602Y-62131074D01*
X201314086Y-62097138D01*
X201403914Y-62068607D01*
X201474163Y-62046416D01*
X201521908Y-62031500D01*
X201544228Y-62024795D01*
X201545487Y-62024512D01*
X201549812Y-62038474D01*
X201552914Y-62075126D01*
X201554137Y-62126615D01*
X201554137Y-62231564D01*
X201073019Y-62383964D01*
X201064663Y-62890792D01*
X201221577Y-62939657D01*
X201297307Y-62963328D01*
X201372349Y-62986933D01*
X201435648Y-63006989D01*
X201462496Y-63015581D01*
X201546501Y-63042641D01*
X201551061Y-63146439D01*
X201552228Y-63202892D01*
X201549011Y-63233696D01*
X201540667Y-63243530D01*
X201535787Y-63242663D01*
X201515267Y-63235699D01*
X201469615Y-63220746D01*
X201402144Y-63198862D01*
X201316167Y-63171109D01*
X201214997Y-63138544D01*
X201101946Y-63102229D01*
X200980328Y-63063222D01*
X200906470Y-63039564D01*
X200853456Y-63022583D01*
X200724643Y-62981373D01*
G37*
G36*
X202348365Y-57396610D02*
G01*
X199171456Y-57396610D01*
X199171456Y-55762335D01*
X199522748Y-55762335D01*
X199522748Y-56999497D01*
X200515533Y-56999497D01*
X200515533Y-55838703D01*
X200851552Y-55838703D01*
X200851552Y-56999497D01*
X201997072Y-56999497D01*
X201997072Y-55701241D01*
X202348365Y-55701241D01*
X202348365Y-57396610D01*
G37*
G36*
X200179513Y-59901481D02*
G01*
X201554137Y-59901481D01*
X201554137Y-60100038D01*
X200179513Y-60100038D01*
X200179513Y-60542972D01*
X200011504Y-60542972D01*
X200011504Y-59458547D01*
X200179513Y-59458547D01*
X200179513Y-59901481D01*
G37*
G36*
X199415754Y-50279119D02*
G01*
X199455247Y-50298091D01*
X199518127Y-50329306D01*
X199602554Y-50371808D01*
X199706686Y-50424645D01*
X199828682Y-50486859D01*
X199966699Y-50557497D01*
X200118897Y-50635603D01*
X200283435Y-50720223D01*
X200458470Y-50810401D01*
X200642161Y-50905183D01*
X200832667Y-51003614D01*
X201028146Y-51104738D01*
X201226757Y-51207602D01*
X201426659Y-51311249D01*
X201626009Y-51414725D01*
X201822968Y-51517076D01*
X202015692Y-51617346D01*
X202202341Y-51714579D01*
X202381073Y-51807823D01*
X202550046Y-51896120D01*
X202707420Y-51978517D01*
X202851353Y-52054059D01*
X202980003Y-52121790D01*
X203091529Y-52180756D01*
X203184090Y-52230002D01*
X203255843Y-52268572D01*
X203304948Y-52295513D01*
X203329563Y-52309868D01*
X203331826Y-52311511D01*
X203336965Y-52326722D01*
X203350177Y-52369474D01*
X203370938Y-52437994D01*
X203398727Y-52530509D01*
X203433021Y-52645247D01*
X203473299Y-52780435D01*
X203519037Y-52934301D01*
X203569714Y-53105071D01*
X203624807Y-53290974D01*
X203683795Y-53490237D01*
X203746155Y-53701086D01*
X203811365Y-53921750D01*
X203878903Y-54150455D01*
X203948247Y-54385430D01*
X204018873Y-54624901D01*
X204090262Y-54867096D01*
X204161889Y-55110242D01*
X204233233Y-55352566D01*
X204303772Y-55592297D01*
X204372983Y-55827660D01*
X204440344Y-56056884D01*
X204505334Y-56278196D01*
X204567429Y-56489824D01*
X204626109Y-56689994D01*
X204680849Y-56876934D01*
X204731129Y-57048872D01*
X204776427Y-57204034D01*
X204816219Y-57340648D01*
X204849984Y-57456942D01*
X204877199Y-57551143D01*
X204897343Y-57621478D01*
X204909893Y-57666174D01*
X204914328Y-57683460D01*
X204914330Y-57683522D01*
X204903867Y-57681870D01*
X204895238Y-57677319D01*
X204839620Y-57642810D01*
X204763423Y-57593193D01*
X204670767Y-57531335D01*
X204565771Y-57460105D01*
X204452553Y-57382371D01*
X204335234Y-57301001D01*
X204217931Y-57218862D01*
X204104764Y-57138824D01*
X203999852Y-57063754D01*
X203907314Y-56996521D01*
X203831269Y-56939992D01*
X203784083Y-56903618D01*
X203683604Y-56823706D01*
X203579864Y-56740610D01*
X203475685Y-56656642D01*
X203373886Y-56574113D01*
X203277286Y-56495336D01*
X203188705Y-56422620D01*
X203110963Y-56358279D01*
X203046878Y-56304623D01*
X202999271Y-56263963D01*
X202970962Y-56238612D01*
X202964328Y-56231581D01*
X202970932Y-56229917D01*
X202997911Y-56241280D01*
X203037029Y-56261900D01*
X203077950Y-56284703D01*
X203139347Y-56318688D01*
X203214901Y-56360369D01*
X203298292Y-56406258D01*
X203364059Y-56442370D01*
X203588368Y-56566260D01*
X203786417Y-56677438D01*
X203957977Y-56775771D01*
X204102816Y-56861124D01*
X204220707Y-56933365D01*
X204311418Y-56992358D01*
X204324579Y-57001377D01*
X204383520Y-57041367D01*
X204432831Y-57073322D01*
X204467469Y-57094080D01*
X204482392Y-57100479D01*
X204482499Y-57100400D01*
X204478956Y-57085321D01*
X204467258Y-57042503D01*
X204447861Y-56973515D01*
X204421217Y-56879926D01*
X204387783Y-56763307D01*
X204348012Y-56625226D01*
X204302359Y-56467253D01*
X204251278Y-56290958D01*
X204195225Y-56097911D01*
X204134653Y-55889680D01*
X204070017Y-55667835D01*
X204001772Y-55433946D01*
X203930371Y-55189582D01*
X203856271Y-54936313D01*
X203812940Y-54788362D01*
X203137323Y-52482382D01*
X201304832Y-51524576D01*
X199472341Y-50566769D01*
X199423175Y-50617679D01*
X199394522Y-50648113D01*
X199348572Y-50697907D01*
X199286926Y-50765279D01*
X199211187Y-50848446D01*
X199122957Y-50945627D01*
X199023839Y-51055039D01*
X198915435Y-51174900D01*
X198799347Y-51303427D01*
X198677178Y-51438840D01*
X198550531Y-51579356D01*
X198421007Y-51723192D01*
X198290210Y-51868566D01*
X198159740Y-52013696D01*
X198031202Y-52156801D01*
X197906197Y-52296098D01*
X197786327Y-52429804D01*
X197673196Y-52556138D01*
X197568405Y-52673318D01*
X197473556Y-52779561D01*
X197390253Y-52873085D01*
X197320097Y-52952109D01*
X197264692Y-53014849D01*
X197225638Y-53059524D01*
X197204540Y-53084352D01*
X197201161Y-53088954D01*
X197206361Y-53106108D01*
X197221188Y-53148658D01*
X197244476Y-53213421D01*
X197275064Y-53297215D01*
X197311788Y-53396856D01*
X197353484Y-53509162D01*
X197398990Y-53630950D01*
X197409109Y-53657932D01*
X197457489Y-53786859D01*
X197504328Y-53911687D01*
X197548107Y-54028369D01*
X197587307Y-54132857D01*
X197620410Y-54221104D01*
X197645898Y-54289063D01*
X197662252Y-54332685D01*
X197662839Y-54334253D01*
X197680774Y-54383989D01*
X197706168Y-54457156D01*
X197738235Y-54551340D01*
X197776191Y-54664126D01*
X197819248Y-54793098D01*
X197866623Y-54935842D01*
X197917530Y-55089943D01*
X197971183Y-55252986D01*
X198026797Y-55422556D01*
X198083586Y-55596239D01*
X198140765Y-55771618D01*
X198197548Y-55946280D01*
X198253151Y-56117809D01*
X198306787Y-56283790D01*
X198357672Y-56441809D01*
X198405019Y-56589450D01*
X198448044Y-56724299D01*
X198485961Y-56843940D01*
X198517984Y-56945960D01*
X198543328Y-57027942D01*
X198561208Y-57087471D01*
X198570838Y-57122134D01*
X198572234Y-57130328D01*
X198563939Y-57120287D01*
X198547283Y-57088257D01*
X198525464Y-57040525D01*
X198519174Y-57025930D01*
X198366370Y-56666694D01*
X198225474Y-56334724D01*
X198096180Y-56029284D01*
X197978183Y-55749642D01*
X197871178Y-55495063D01*
X197774859Y-55264812D01*
X197688922Y-55058156D01*
X197613060Y-54874360D01*
X197546970Y-54712689D01*
X197490345Y-54572410D01*
X197442880Y-54452789D01*
X197404271Y-54353091D01*
X197374211Y-54272582D01*
X197371651Y-54265522D01*
X197346405Y-54196150D01*
X197313475Y-54106348D01*
X197274542Y-54000644D01*
X197231289Y-53883565D01*
X197185396Y-53759640D01*
X197138546Y-53633395D01*
X197092421Y-53509359D01*
X197048701Y-53392059D01*
X197009069Y-53286023D01*
X196975206Y-53195779D01*
X196948795Y-53125853D01*
X196933546Y-53086000D01*
X196911501Y-53029087D01*
X198150431Y-51657918D01*
X198308165Y-51483348D01*
X198460277Y-51315001D01*
X198605503Y-51154275D01*
X198742581Y-51002566D01*
X198870249Y-50861273D01*
X198987244Y-50731793D01*
X199092302Y-50615522D01*
X199184163Y-50513859D01*
X199261562Y-50428200D01*
X199323238Y-50359944D01*
X199367927Y-50310487D01*
X199394367Y-50281227D01*
X199401490Y-50273346D01*
X199415754Y-50279119D01*
G37*
G36*
X201554137Y-60906927D02*
G01*
X201489225Y-60943568D01*
X201459898Y-60960403D01*
X201408081Y-60990449D01*
X201337629Y-61031457D01*
X201252397Y-61081181D01*
X201156242Y-61137371D01*
X201053019Y-61197780D01*
X201013056Y-61221191D01*
X200902335Y-61285631D01*
X200791850Y-61349132D01*
X200686592Y-61408883D01*
X200591551Y-61462076D01*
X200511720Y-61505899D01*
X200452088Y-61537543D01*
X200442367Y-61542495D01*
X200282935Y-61622817D01*
X200918536Y-61615328D01*
X201554137Y-61607838D01*
X201554137Y-61795408D01*
X200011504Y-61795408D01*
X200011504Y-61586123D01*
X200473511Y-61312744D01*
X200589134Y-61244691D01*
X200703429Y-61178093D01*
X200811981Y-61115473D01*
X200910379Y-61059353D01*
X200994209Y-61012255D01*
X201059058Y-60976703D01*
X201088538Y-60961186D01*
X201241558Y-60883008D01*
X200011504Y-60898726D01*
X200011504Y-60710982D01*
X201554137Y-60710982D01*
X201554137Y-60906927D01*
G37*
%TO.C,D5*%
X194630000Y-75768957D02*
X194630000Y-72108957D01*
X196530000Y-75768957D02*
X196530000Y-72108957D01*
X194630000Y-75768957D02*
X196530000Y-75768957D01*
%TO.C,Q2*%
X196800000Y-41705000D02*
X196800000Y-41410000D01*
X193960000Y-41410000D02*
X193960000Y-41705000D01*
X193960000Y-44655000D02*
X193960000Y-44950000D01*
X196800000Y-44950000D02*
X196800000Y-44655000D01*
X196800000Y-41410000D02*
X193960000Y-41410000D01*
X197530000Y-44655000D02*
X196800000Y-44655000D01*
X193960000Y-44950000D02*
X196800000Y-44950000D01*
%TO.C,Q3*%
X196800000Y-60733957D02*
X196800000Y-60438957D01*
X197530000Y-63683957D02*
X196800000Y-63683957D01*
X193960000Y-63683957D02*
X193960000Y-63978957D01*
X196800000Y-60438957D02*
X193960000Y-60438957D01*
X196800000Y-63978957D02*
X196800000Y-63683957D01*
X193960000Y-63978957D02*
X196800000Y-63978957D01*
X193960000Y-60438957D02*
X193960000Y-60733957D01*
%TO.C,R6*%
X195817258Y-67811457D02*
X195342742Y-67811457D01*
X195817258Y-66766457D02*
X195342742Y-66766457D01*
%TO.C,D1*%
X193320000Y-38400244D02*
X196980000Y-38400244D01*
X193320000Y-36500244D02*
X196980000Y-36500244D01*
X193320000Y-36500244D02*
X193320000Y-38400244D01*
%TO.C,J1*%
X166052530Y-31690000D02*
X166875000Y-31690000D01*
X163345000Y-31625000D02*
X164475000Y-31625000D01*
X166875000Y-31690000D02*
X166875000Y-35620000D01*
X164782530Y-35620000D02*
X165437470Y-35620000D01*
X163345000Y-33145000D02*
X163345000Y-35620000D01*
X165038471Y-33145000D02*
X165181529Y-33145000D01*
X165235000Y-33091529D02*
X165235000Y-32948471D01*
X166052530Y-35620000D02*
X166875000Y-35620000D01*
X163345000Y-35620000D02*
X164167470Y-35620000D01*
X165235000Y-31690000D02*
X165437470Y-31690000D01*
X163345000Y-33145000D02*
X163911529Y-33145000D01*
X165235000Y-31821529D02*
X165235000Y-31690000D01*
X163345000Y-32385000D02*
X163345000Y-31625000D01*
%TO.C,K2*%
X169935000Y-58645000D02*
X192635000Y-58645000D01*
X188385000Y-49945000D02*
X187185000Y-49945000D01*
X187185000Y-50645000D02*
X188385000Y-50645000D01*
X187785000Y-51645000D02*
X187785000Y-54795000D01*
X188385000Y-50645000D02*
X188385000Y-49945000D01*
X192635000Y-41945000D02*
X169935000Y-41945000D01*
X192635000Y-58645000D02*
X192635000Y-41945000D01*
X187185000Y-49945000D02*
X187185000Y-50645000D01*
X169935000Y-41945000D02*
X169935000Y-58645000D01*
X187585000Y-49945000D02*
X187985000Y-50645000D01*
X187785000Y-45795000D02*
X187785000Y-48945000D01*
X192895000Y-49295000D02*
X192895000Y-51295000D01*
%TO.C,R3*%
X195342742Y-51322500D02*
X195817258Y-51322500D01*
X195342742Y-50277500D02*
X195817258Y-50277500D01*
%TD*%
M02*
